<svg id="Camada_1" data-name="Camada 1" xmlns="http://www.w3.org/2000/svg" viewBox="0 0 683.94 453.08"><defs><style>.cls-1{fill:#ebebeb;}.cls-2{fill:#263238;}.cls-3{fill:#e0e0e0;}.cls-4{fill:#fafafa;}.cls-5{fill:#f5f5f5;}.cls-6{fill:#0bde97;}.cls-7{fill:#fff;}.cls-8{fill:#455a64;}.cls-9{fill:#ffbe9d;}.cls-10{fill:#eb996e;}.cls-11{opacity:0.3;}.cls-12{fill:#aa6550;}.cls-13{opacity:0.6;}.cls-14{fill:#995037;}.cls-15{fill:#60ed85;}.cls-16{opacity:0.2;}.cls-17{fill:none;}</style></defs><title>avaliacoes</title><g id="freepik--background-simple--inject-40"><path class="cls-1" d="M623.79,210.1c-26.63-28.59-69.13-41.32-107.08-32.09-23.93,5.82-45.13,19.39-67.62,29.42s-48.61,16.52-71.53,7.51c-22.51-8.85-37.16-30.81-46.63-53.07s-15.32-46.18-27.7-67c-21.3-35.77-62.13-59-103.76-59.13h-2.26c-75.81,1-137.44,61-142.69,136.63C52,208.56,51.76,259.86,72.76,293.79c0,0,66.36,129.08,234.52,155,151.18,23.3,244.41-36.06,244.41-36.06l-3.48.81c37-9.63,73-49.93,93.16-92.46C658.08,285.75,650.41,238.69,623.79,210.1Z" transform="translate(-42.97 -35.74)"/></g><g id="freepik--Floor--inject-40"><path class="cls-2" d="M726.91,478.44c0,.14-153.11.26-341.94.26s-342-.12-342-.26,153.07-.26,342-.26S726.91,478.3,726.91,478.44Z" transform="translate(-42.97 -35.74)"/></g><g id="freepik--Panel--inject-40"><path class="cls-3" d="M476.17,61.46s15.29.21,8.75,30.49-5.7,36-5.7,48A20.9,20.9,0,0,0,490.53,159H469.79L454.54,88.31V61.46Z" transform="translate(-42.97 -35.74)"/><polygon class="cls-3" points="437.7 264.05 228.31 264.05 230.18 59.2 427.4 48.89 437.7 264.05"/><polygon class="cls-1" points="430.51 258.76 221.12 258.76 222.99 53.91 426.3 49.94 430.51 258.76"/><polygon class="cls-4" points="426.17 253.05 217.21 253.05 217.21 48.2 426.3 47.71 426.17 253.05"/><path class="cls-2" d="M469.14,288.79c0-1.91,0-82.17-.1-205.34l.23.23-208.76.52h-.33l.26-.26V288.79l-.22-.22,209,.22-209,.23H260V83.68h.58l208.77-.45h.22v.22C469.28,206.62,469.14,286.88,469.14,288.79Z" transform="translate(-42.97 -35.74)"/><path class="cls-5" d="M469.27,82.9c-10.8-12.57,1.73-21.87,6-22.07l-199-.11a16.76,16.76,0,0,0-16.78,16.74,17.32,17.32,0,0,0,.25,2.88,24.09,24.09,0,0,0,.81,3.11" transform="translate(-42.97 -35.74)"/><path class="cls-2" d="M474.54,159h4.2l11.79-.07v.31a12.63,12.63,0,0,1-4.81-2.75,15.79,15.79,0,0,1-3.58-5.12,33.39,33.39,0,0,1-2.15-6.54c-.27-1.17-.51-2.36-.73-3.58-.13-.62-.22-1.24-.29-1.87a15.5,15.5,0,0,1-.14-1.92,68.91,68.91,0,0,1,.26-8c.2-2.72.51-5.51.84-8.36.68-5.69,1.53-11.62,2.54-17.7.42-2.59.94-5.16,1.37-7.67s.75-5,1.07-7.48.58-4.88.87-7.25c.13-1.18.29-2.35.32-3.5a21.6,21.6,0,0,0-.19-3.41A20.73,20.73,0,0,0,484,67.74,12.49,12.49,0,0,0,480.15,63a7.49,7.49,0,0,0-5.44-1.21,9.89,9.89,0,0,0-4.84,2,12,12,0,0,0-3,3.74,15.83,15.83,0,0,0-1.46,4.07,10.63,10.63,0,0,0,.79,6.78,23.46,23.46,0,0,0,2.2,3.83l.68.93c.15.21.22.33.22.33a3.33,3.33,0,0,1-.27-.29l-.71-.91a20.76,20.76,0,0,1-2.3-3.81,10.81,10.81,0,0,1-.9-6.92,16.46,16.46,0,0,1,1.46-4.16,12.39,12.39,0,0,1,3.09-3.88,10.34,10.34,0,0,1,5-2.12,7.93,7.93,0,0,1,5.74,1.26,12.9,12.9,0,0,1,4,4.91A20.79,20.79,0,0,1,486.33,74a22.64,22.64,0,0,1,.21,3.49,32.73,32.73,0,0,1-.32,3.55c-.26,2.37-.54,4.79-.86,7.26s-.65,5-1.06,7.5-.95,5.07-1.36,7.67c-1,6.07-1.87,12-2.56,17.67-.33,2.84-.64,5.62-.85,8.34a71.84,71.84,0,0,0-.29,7.9,16.8,16.8,0,0,0,.13,1.88c.05.62.18,1.24.28,1.85.22,1.21.45,2.4.72,3.56a33.43,33.43,0,0,0,2.08,6.47,15.34,15.34,0,0,0,3.47,5,12.5,12.5,0,0,0,4.66,2.71l1,.32h-1l-11.79-.07h-3.92Z" transform="translate(-42.97 -35.74)"/><path class="cls-2" d="M345.67,67.09c.08.06-.52.85-1.11,2.31a13.38,13.38,0,0,0-.75,2.63,15,15,0,0,0-.16,3.35,14.59,14.59,0,0,0,.67,3.28,12.81,12.81,0,0,0,1.14,2.5c.81,1.34,1.52,2,1.45,2.11s-.22-.14-.54-.45a8.22,8.22,0,0,1-1.22-1.47,11.57,11.57,0,0,1-1.28-2.53,12.66,12.66,0,0,1-.53-6.87,12.19,12.19,0,0,1,.88-2.7,8.37,8.37,0,0,1,1-1.64C345.47,67.26,345.64,67.07,345.67,67.09Z" transform="translate(-42.97 -35.74)"/><path class="cls-2" d="M340.7,60a20.92,20.92,0,0,0-2.64,3.23,13.23,13.23,0,0,0,3.33,17.86A20.83,20.83,0,0,0,345,83.16a4.59,4.59,0,0,1-1.1-.3,12.28,12.28,0,0,1-2.75-1.46,13.19,13.19,0,0,1-3.45-18.33l.05-.07a11.53,11.53,0,0,1,2-2.35A4.1,4.1,0,0,1,340.7,60Z" transform="translate(-42.97 -35.74)"/><path class="cls-2" d="M453.16,219.92h-2.57l-7.39.05-27.2.13-89.61.08h-38.9v-.25c0-25.6.07-47.62.1-63.26,0-7.8.05-14,.07-18.28v0c0,4.28,0,10.48.07,18.28,0,15.64.06,37.66.1,63.26l-.25-.25h38.65l89.61.08,27.16.08,7.39,0h1.92Z" transform="translate(-42.97 -35.74)"/><rect class="cls-6" x="258.25" y="162.41" width="16.71" height="16.71"/><rect class="cls-6" x="282.74" y="150.47" width="16.71" height="28.65"/><rect class="cls-6" x="307.33" y="136.9" width="16.71" height="42.22"/><rect class="cls-6" x="331.17" y="121.8" width="16.71" height="57.32"/><rect class="cls-6" x="355.56" y="102.47" width="16.71" height="76.65"/><rect class="cls-6" x="379.77" y="87.72" width="16.71" height="90.61"/><path class="cls-2" d="M301.22,181a.87.87,0,0,1,.21-.17l.65-.45,2.55-1.7,9.57-6.31,33.15-21.67.39-.25v7.94l-.4-.21,13.06-8.76,46.1-30.8,14-9.29,3.82-2.5,1-.64.35-.2a2.43,2.43,0,0,1-.32.24l-1,.69-3.77,2.58L406.72,119l-46,30.93-13.07,8.75-.4.27v-8l.39.21-33.26,21.51-9.65,6.19-2.59,1.63-.67.42Z" transform="translate(-42.97 -35.74)"/><path class="cls-2" d="M425.69,113.09a8.92,8.92,0,0,1-.18-2.06c0-1.28-.07-3.06-.08-5l.26.26h-.64c-2.14,0-4.08,0-5.48-.08a10.81,10.81,0,0,1-2.27-.18,10.19,10.19,0,0,1,2.27-.19c1.4,0,3.34-.07,5.48-.07h.9V106c0,2,0,3.77-.08,5A8.17,8.17,0,0,1,425.69,113.09Z" transform="translate(-42.97 -35.74)"/><path class="cls-2" d="M337.41,233.39c0,.15-5.16.26-11.53.26s-11.53-.11-11.53-.26,5.16-.26,11.53-.26S337.41,233.25,337.41,233.39Z" transform="translate(-42.97 -35.74)"/><path class="cls-2" d="M325.57,241.29a14,14,0,0,1,0-5.4A14,14,0,0,1,325.57,241.29Z" transform="translate(-42.97 -35.74)"/><path class="cls-2" d="M353.83,244c0,.14-13.87.26-31,.26s-31-.12-31-.26,13.86-.26,31-.26S353.83,243.85,353.83,244Z" transform="translate(-42.97 -35.74)"/><path class="cls-2" d="M292.32,251.68a26.77,26.77,0,0,1,0-7.48A26.77,26.77,0,0,1,292.32,251.68Z" transform="translate(-42.97 -35.74)"/><path class="cls-2" d="M314.35,250.85a19.88,19.88,0,0,1,0-6.44A19.88,19.88,0,0,1,314.35,250.85Z" transform="translate(-42.97 -35.74)"/><path class="cls-2" d="M337,251.26a23.87,23.87,0,0,1,0-7.06A23.87,23.87,0,0,1,337,251.26Z" transform="translate(-42.97 -35.74)"/><path class="cls-2" d="M354.24,251.26a25.3,25.3,0,0,1,0-7.27A25.3,25.3,0,0,1,354.24,251.26Z" transform="translate(-42.97 -35.74)"/><path class="cls-2" d="M300,253.76a54.9,54.9,0,0,1-7.48.26,54.9,54.9,0,0,1-7.48-.26,53.34,53.34,0,0,1,7.48-.26A53.34,53.34,0,0,1,300,253.76Z" transform="translate(-42.97 -35.74)"/><path class="cls-2" d="M319.13,253.76a62.34,62.34,0,0,1-11.43,0A62.34,62.34,0,0,1,319.13,253.76Z" transform="translate(-42.97 -35.74)"/><path class="cls-2" d="M343.44,254.38a71.71,71.71,0,0,1-12.26,0A71.71,71.71,0,0,1,343.44,254.38Z" transform="translate(-42.97 -35.74)"/><path class="cls-2" d="M363.18,253.34a81.73,81.73,0,0,1-13.09,0A81.73,81.73,0,0,1,363.18,253.34Z" transform="translate(-42.97 -35.74)"/><path class="cls-2" d="M292.53,261a9.18,9.18,0,0,1,0-4.36A9.18,9.18,0,0,1,292.53,261Z" transform="translate(-42.97 -35.74)"/><path class="cls-2" d="M306.75,261c0,.14-6.05.26-13.5.26s-13.51-.12-13.51-.26,6.05-.26,13.51-.26S306.75,260.88,306.75,261Z" transform="translate(-42.97 -35.74)"/><path class="cls-2" d="M306.75,267.26a18.61,18.61,0,0,1,0-6.23A18.61,18.61,0,0,1,306.75,267.26Z" transform="translate(-42.97 -35.74)"/><path class="cls-2" d="M279.74,267.68a21.19,21.19,0,0,1,0-6.65A21.19,21.19,0,0,1,279.74,267.68Z" transform="translate(-42.97 -35.74)"/><path class="cls-2" d="M337.55,261a9.18,9.18,0,0,1,0-4.36A9.18,9.18,0,0,1,337.55,261Z" transform="translate(-42.97 -35.74)"/><path class="cls-2" d="M370.39,261c0,.14-10.22.26-22.82.26s-22.81-.12-22.81-.26,10.21-.26,22.81-.26S370.39,260.88,370.39,261Z" transform="translate(-42.97 -35.74)"/><path class="cls-2" d="M351.77,267.26a18.61,18.61,0,0,1,0-6.23A18.61,18.61,0,0,1,351.77,267.26Z" transform="translate(-42.97 -35.74)"/><path class="cls-2" d="M371.32,267.26a18.61,18.61,0,0,1,0-6.23A18.61,18.61,0,0,1,371.32,267.26Z" transform="translate(-42.97 -35.74)"/><path class="cls-2" d="M324.76,267.68a21.19,21.19,0,0,1,0-6.65A21.19,21.19,0,0,1,324.76,267.68Z" transform="translate(-42.97 -35.74)"/><path class="cls-2" d="M285.06,271.51a54,54,0,0,1-10.64,0A54,54,0,0,1,285.06,271.51Z" transform="translate(-42.97 -35.74)"/><path class="cls-2" d="M311.52,270.75a63.22,63.22,0,0,1-11.51,0A63.22,63.22,0,0,1,311.52,270.75Z" transform="translate(-42.97 -35.74)"/><path class="cls-2" d="M330.63,270.75a49,49,0,0,1-10.13,0A49,49,0,0,1,330.63,270.75Z" transform="translate(-42.97 -35.74)"/><path class="cls-2" d="M356.4,270.75a57.75,57.75,0,0,1-11,0A57.75,57.75,0,0,1,356.4,270.75Z" transform="translate(-42.97 -35.74)"/><path class="cls-2" d="M377,270.06a59.44,59.44,0,0,1-11.16,0A59.44,59.44,0,0,1,377,270.06Z" transform="translate(-42.97 -35.74)"/><path class="cls-2" d="M453,274.11H382.47V230.43H453Zm-70.49-.05H453V230.48H382.52Z" transform="translate(-42.97 -35.74)"/><path class="cls-6" d="M436,262c-4.89-1.85-10.51,3.27-15.31,1.18-2.78-1.21-4.05-4.37-5.42-7.08s-3.72-5.59-6.74-5.27-5.52,3.85-8.47,3c-1.86-.54-2.78-2.6-3.25-4.48s-.79-3.95-2.21-5.27-4.36-1-4.59,1v23.13h55.13S437.66,262.64,436,262Z" transform="translate(-42.97 -35.74)"/><path class="cls-3" d="M446.58,268.17c0,.05-13.36.09-29.84.09s-29.84,0-29.84-.09,13.36-.09,29.84-.09S446.58,268.12,446.58,268.17Z" transform="translate(-42.97 -35.74)"/><path class="cls-2" d="M446.58,258.07c0,.05-13.36.09-29.84.09s-29.84,0-29.84-.09,13.36-.09,29.84-.09S446.58,258,446.58,258.07Z" transform="translate(-42.97 -35.74)"/><path class="cls-2" d="M446.58,248s-13.36.08-29.84.08-29.84,0-29.84-.08,13.36-.09,29.84-.09S446.58,247.92,446.58,248Z" transform="translate(-42.97 -35.74)"/><path class="cls-2" d="M446.58,238.36s-13.36.09-29.84.09-29.84,0-29.84-.09,13.36-.09,29.84-.09S446.58,238.31,446.58,238.36Z" transform="translate(-42.97 -35.74)"/><path class="cls-2" d="M287.79,98.29h.38a5.77,5.77,0,0,1,1.1.1,5.45,5.45,0,0,1,1.66.57,5.39,5.39,0,0,1,1.77,1.52,6.45,6.45,0,0,1,1.17,2.6,6.13,6.13,0,0,1-.41,3.25,9.61,9.61,0,0,1-.81,1.6,16,16,0,0,0-.91,1.62,13.81,13.81,0,0,0-1.22,3.71v.09h-.09l-2.61-.06-2.74-.07H285v-.1a7.93,7.93,0,0,0-1.13-3.66c-.29-.56-.62-1.08-.93-1.61a15.64,15.64,0,0,1-.86-1.55,5.08,5.08,0,0,1-.29-3.24,6.83,6.83,0,0,1,1.13-2.59A5,5,0,0,1,284.67,99a6.43,6.43,0,0,1,1.65-.56,6.63,6.63,0,0,1,1.09-.14h0a7.69,7.69,0,0,0-1.07.17,6.67,6.67,0,0,0-1.62.58,5.11,5.11,0,0,0-1.73,1.47,6.77,6.77,0,0,0-1.07,2.55,4.88,4.88,0,0,0,.29,3.13,16.26,16.26,0,0,0,.86,1.53c.31.52.64,1,.94,1.61a8,8,0,0,1,1.15,3.76l-.09-.11,2.74.07,2.61.07-.1.08a14.19,14.19,0,0,1,1.24-3.76,17.54,17.54,0,0,1,.93-1.63,9.28,9.28,0,0,0,.8-1.57,5.93,5.93,0,0,0,.42-3.17,6.23,6.23,0,0,0-1.11-2.54A5.63,5.63,0,0,0,290.88,99a5.83,5.83,0,0,0-1.62-.59,7.91,7.91,0,0,0-1.09-.13h-.38Z" transform="translate(-42.97 -35.74)"/><path class="cls-2" d="M288.55,113v-.33c0-.22-.06-.54-.11-1-.08-.83-.21-2-.27-3.51v-2.43a3.49,3.49,0,0,1,.35-1.31,2.09,2.09,0,0,1,1.05-1,1.34,1.34,0,0,1,1.43.34,1,1,0,0,1,.28.73,1.28,1.28,0,0,1-.3.75,1.87,1.87,0,0,1-.66.49,3.58,3.58,0,0,1-.79.23,10.52,10.52,0,0,1-3.36,0,2.66,2.66,0,0,1-.78-.26,2,2,0,0,1-.65-.5,1.49,1.49,0,0,1-.36-.72,1.24,1.24,0,0,1,.13-.78,1.09,1.09,0,0,1,.58-.52.94.94,0,0,1,.75.07,1.37,1.37,0,0,1,.54.5,1.82,1.82,0,0,1,.25.67,7.65,7.65,0,0,1,.08,1.35v5.9c0-.83,0-2-.06-3.51v-2.43a7.48,7.48,0,0,0-.08-1.34,1.84,1.84,0,0,0-.24-.64,1.38,1.38,0,0,0-.52-.47.83.83,0,0,0-.69-.06,1,1,0,0,0-.53.48,1.12,1.12,0,0,0-.12.72,1.5,1.5,0,0,0,.34.69,2.42,2.42,0,0,0,1.39.73,9.23,9.23,0,0,0,1.66.15,8.39,8.39,0,0,0,1.66-.13,3,3,0,0,0,.78-.22,1.8,1.8,0,0,0,.63-.46,1.27,1.27,0,0,0,.28-.7.91.91,0,0,0-.26-.68,1.26,1.26,0,0,0-1.34-.32,2,2,0,0,0-1,.94,3.35,3.35,0,0,0-.35,1.28,10.45,10.45,0,0,1-.05,1.26,9,9,0,0,0,0,1.16c.05,1.48.17,2.68.24,3.5a7.62,7.62,0,0,0,.1,1V113Z" transform="translate(-42.97 -35.74)"/><path class="cls-2" d="M285.07,113v3.17h0l1.7,2.12h1.89l1.07-1.21.54-.6v.08c0-1.21,0-2.35.06-3.39l.11.11-3.85-.12h-1.52a1.09,1.09,0,0,1,.36,0h5.09v3.5h0l-.54.61-1.07,1.2h-2.12L285,116.26h0c0-.91.05-1.69.07-2.35A4.61,4.61,0,0,1,285.07,113Z" transform="translate(-42.97 -35.74)"/><path class="cls-2" d="M290.26,116.22l-.2-.09a3.43,3.43,0,0,0-.52-.23,5.2,5.2,0,0,0-3.7,0,4.93,4.93,0,0,0-.53.22l-.2.09a.57.57,0,0,1,.18-.12l.53-.25a5.21,5.21,0,0,1,1.87-.35,4.85,4.85,0,0,1,2.39.65A.57.57,0,0,1,290.26,116.22Z" transform="translate(-42.97 -35.74)"/><path class="cls-2" d="M290.29,115.4l-.19-.1-.53-.23a5.58,5.58,0,0,0-1.85-.36,5.31,5.31,0,0,0-1.85.33,4.93,4.93,0,0,0-.53.22l-.19.08.18-.11a3.54,3.54,0,0,1,.52-.25,4.86,4.86,0,0,1,1.88-.35,5,5,0,0,1,1.86.39,3.6,3.6,0,0,1,.52.26A.57.57,0,0,1,290.29,115.4Z" transform="translate(-42.97 -35.74)"/><path class="cls-2" d="M290.27,114.61a.66.66,0,0,1-.19-.09,3.54,3.54,0,0,0-.53-.23,5.24,5.24,0,0,0-3.7,0c-.22.08-.4.16-.53.22l-.19.09.18-.12c.12-.06.3-.15.52-.24a4.86,4.86,0,0,1,1.88-.35,4.81,4.81,0,0,1,1.87.38c.22.1.4.19.52.26Z" transform="translate(-42.97 -35.74)"/><path class="cls-1" d="M309.37,136.14s-2,18.45.57,28.55l24.65-1.08s-5.28-18.19-2-26.25Z" transform="translate(-42.97 -35.74)"/><path class="cls-6" d="M309.47,135.55s.17,19.92,1.18,26l25-1.18s-2.2-19.58-1.35-24.81Z" transform="translate(-42.97 -35.74)"/><path class="cls-7" d="M330.51,143.92c0,.09-3.74.39-8.37.67s-8.38.43-8.39.33,3.74-.39,8.37-.67S330.51,143.82,330.51,143.92Z" transform="translate(-42.97 -35.74)"/><path class="cls-7" d="M330.52,148.13c0,.1-3.74.4-8.37.67s-8.39.43-8.39.34,3.74-.39,8.37-.67S330.51,148,330.52,148.13Z" transform="translate(-42.97 -35.74)"/><path class="cls-7" d="M326.27,152.28a5.9,5.9,0,0,1-1.39.2c-.86.08-2.05.17-3.37.25s-2.52.13-3.38.15a5.55,5.55,0,0,1-1.41,0,5.9,5.9,0,0,1,1.39-.2c.87-.08,2.06-.17,3.38-.25s2.51-.14,3.38-.16A5.46,5.46,0,0,1,326.27,152.28Z" transform="translate(-42.97 -35.74)"/><path class="cls-2" d="M366.42,103.21c0,.15-14.61.26-32.63.26s-32.63-.11-32.63-.26,14.61-.26,32.63-.26S366.42,103.07,366.42,103.21Z" transform="translate(-42.97 -35.74)"/><path class="cls-2" d="M325.13,109.16c0,.15-5.48.26-12.24.26s-12.24-.11-12.24-.26,5.48-.26,12.24-.26S325.13,109,325.13,109.16Z" transform="translate(-42.97 -35.74)"/><path class="cls-2" d="M338.13,109.16a42.57,42.57,0,0,1-9.44,0A42.57,42.57,0,0,1,338.13,109.16Z" transform="translate(-42.97 -35.74)"/><path class="cls-2" d="M474.54,171.9a.89.89,0,0,1,0-.23,2.89,2.89,0,0,0-.06-.67c-.05-.63-.12-1.49-.21-2.57-.15-2.29-.37-5.51-.64-9.47-.5-8.05-1.19-19.08-1.95-31.27s-1.32-23.23-1.79-31.28c-.2-4-.36-7.19-.48-9.48,0-1.08-.08-1.94-.1-2.58v-.67a.89.89,0,0,1,0-.23v.23l.06.67c.05.63.12,1.49.2,2.57.16,2.29.38,5.51.65,9.47.5,8,1.19,19.08,1.94,31.27s1.33,23.23,1.79,31.27c.21,4,.37,7.2.49,9.49,0,1.08.08,1.94.1,2.58v.67A.89.89,0,0,1,474.54,171.9Z" transform="translate(-42.97 -35.74)"/><path class="cls-2" d="M469.27,60.83H357l-82.15-.26h0a19.85,19.85,0,0,0-10.44,6.51,19.29,19.29,0,0,0-4.06,8.38,20.09,20.09,0,0,0-.39,5.89c.06.67.12,1.18.18,1.52a4.63,4.63,0,0,1,.07.52,12.5,12.5,0,0,1-.35-2,19.74,19.74,0,0,1,.3-5.94,19.33,19.33,0,0,1,4-8.51,20,20,0,0,1,10.58-6.68h0l82.16.1,79.35.25,24.06.14,6.54.06h2.42Z" transform="translate(-42.97 -35.74)"/></g><g id="freepik--Plant--inject-40"><path class="cls-6" d="M629.87,374.41a54.77,54.77,0,0,1,52.23-14.33,95.14,95.14,0,0,1-52.85,16.51" transform="translate(-42.97 -35.74)"/><path class="cls-6" d="M647.59,311.68c-2.18-15.39,3.8-32.7,15.32-43.89.38,15.25-6,32.42-15.32,43.89" transform="translate(-42.97 -35.74)"/><path class="cls-6" d="M638.37,340.76a82.11,82.11,0,0,1,37.74-36.07,51.85,51.85,0,0,1-37.88,36.23" transform="translate(-42.97 -35.74)"/><path class="cls-6" d="M636.46,346.36c9.3.27,18.71-.06,27.7-2.44s17.6-6.95,23.58-14.07a92.58,92.58,0,0,0-51.14,15.61" transform="translate(-42.97 -35.74)"/><path class="cls-6" d="M641.18,327.89c-4.72-17.69-12.5-29.92-26.4-39.83a36.78,36.78,0,0,0,26.4,39.83" transform="translate(-42.97 -35.74)"/><path class="cls-6" d="M606.09,358.39A26.19,26.19,0,0,1,622,334.14c-.78,9.13-8,19.7-15.91,24.25" transform="translate(-42.97 -35.74)"/><path class="cls-6" d="M601.65,343.48A39,39,0,0,0,576.1,310.2c3.21,14.78,11.75,27.08,25.55,33.28" transform="translate(-42.97 -35.74)"/><path class="cls-6" d="M608.34,369.94c-3.27-4.69-8.62-7.61-14.16-9.06s-11.32-1.57-17-1.69A39.84,39.84,0,0,0,607.91,372" transform="translate(-42.97 -35.74)"/><path class="cls-6" d="M615,407.63a43.65,43.65,0,0,0-53.3,25.25c19.36-3.68,38.47-12.28,53.3-25.25" transform="translate(-42.97 -35.74)"/><path class="cls-6" d="M636.24,394.53c-3.22,9.51-2.6,21,4.55,29.19a34.88,34.88,0,0,0-4.55-29.19" transform="translate(-42.97 -35.74)"/><path class="cls-6" d="M648.8,389.25a35.76,35.76,0,0,0,19.75,29,2.25,2.25,0,0,0,1.75.29c.87-.36,1-1.55.84-2.48-1.4-12.18-10.42-24-22.34-26.83" transform="translate(-42.97 -35.74)"/><path class="cls-6" d="M657,388a29.33,29.33,0,0,0,41.45,1.61c.48-.45.95-.91,1.4-1.39-13.62-1.49-29.34-2.48-42.85-.22" transform="translate(-42.97 -35.74)"/><path class="cls-2" d="M659,279.13a2.67,2.67,0,0,1-.13.4l-.41,1.16c-.39,1-.94,2.51-1.64,4.41s-1.58,4.26-2.56,7c-.5,1.36-1,2.82-1.58,4.37s-1.1,3.2-1.7,4.93c-2.41,6.89-5.09,15.17-8,24.39s-5.82,19.42-8.75,30.18-5.46,21.07-7.65,30.49-4,17.93-5.27,25.11q-.49,2.7-1,5.12c-.34,1.61-.54,3.16-.78,4.59-.49,2.86-.92,5.32-1.2,7.34s-.55,3.56-.71,4.65c-.09.52-.15.92-.2,1.21a2.71,2.71,0,0,1-.09.41,2.81,2.81,0,0,1,0-.41l.15-1.22c.15-1.09.35-2.66.62-4.67s.65-4.49,1.11-7.36c.23-1.44.48-3,.74-4.59s.61-3.34.93-5.13c1.28-7.2,3.07-15.72,5.16-25.16s4.72-19.74,7.61-30.52,5.94-20.95,8.81-30.18,5.63-17.49,8.09-24.37l1.74-4.92L654,292c1-2.73,1.88-5.07,2.65-7s1.32-3.35,1.73-4.37c.2-.48.35-.86.46-1.14A2.83,2.83,0,0,1,659,279.13Z" transform="translate(-42.97 -35.74)"/><path class="cls-2" d="M584.23,318.09a1.58,1.58,0,0,1,.23.22l.66.69c.56.6,1.39,1.51,2.42,2.71a97.85,97.85,0,0,1,8,10.69,71.6,71.6,0,0,1,8.38,17.94c2.25,7.14,3.64,15.26,5,23.74,2.77,17,6.17,32.19,8.63,43.19,1.24,5.48,2.24,9.92,3,13,.33,1.51.59,2.7.78,3.54l.19.93a1.13,1.13,0,0,1,0,.32,1.6,1.6,0,0,1-.1-.31l-.24-.91c-.21-.84-.51-2-.88-3.53l-3.11-13c-2.55-11-6-26.2-8.78-43.2-1.39-8.48-2.77-16.57-5-23.68a72.34,72.34,0,0,0-8.24-17.88,101.11,101.11,0,0,0-7.86-10.76c-1-1.22-1.8-2.14-2.34-2.77l-.62-.72A1.5,1.5,0,0,1,584.23,318.09Z" transform="translate(-42.97 -35.74)"/><path class="cls-2" d="M661.07,387.43a2,2,0,0,1-.49.09l-1.41.16-1,.1L657,388c-.87.13-1.86.26-2.93.49l-1.69.34-1.81.46c-1.26.28-2.56.75-4,1.17a57.67,57.67,0,0,0-8.63,3.8,48.3,48.3,0,0,0-7.73,5.37,38.3,38.3,0,0,0-3,2.84,30.22,30.22,0,0,0-2.35,2.71,29.31,29.31,0,0,0-1.74,2.4,15.4,15.4,0,0,0-1.19,1.89l-.72,1.22c-.17.28-.27.42-.29.41a2.62,2.62,0,0,1,.19-.46c.18-.34.39-.76.64-1.27a16.47,16.47,0,0,1,1.13-1.95,24.35,24.35,0,0,1,1.69-2.46,29.2,29.2,0,0,1,2.32-2.78,39.35,39.35,0,0,1,3-2.92,46.38,46.38,0,0,1,7.79-5.46,54.9,54.9,0,0,1,8.73-3.8c1.4-.41,2.72-.86,4-1.13l1.84-.43,1.7-.31c1.09-.21,2.09-.32,3-.42l1.21-.14h1l1.42-.06A2.14,2.14,0,0,1,661.07,387.43Z" transform="translate(-42.97 -35.74)"/><path class="cls-2" d="M665,318.42a7.42,7.42,0,0,1-1,.94l-2.81,2.44c-2.38,2-5.69,4.82-9.37,7.87s-7,5.79-9.48,7.75l-2.91,2.31a6.21,6.21,0,0,1-1.11.79,6.43,6.43,0,0,1,1-.95l2.8-2.43c2.38-2,5.7-4.82,9.38-7.87s7-5.79,9.46-7.76l2.91-2.3A5.88,5.88,0,0,1,665,318.42Z" transform="translate(-42.97 -35.74)"/><path class="cls-2" d="M668.3,336.43c0,.14-7.11,2.38-16,5s-16.08,4.62-16.12,4.49,7.1-2.38,16-5S668.26,336.3,668.3,336.43Z" transform="translate(-42.97 -35.74)"/><path class="cls-2" d="M641.89,329.26a6,6,0,0,1-.74-1l-1.88-2.88c-1.6-2.42-3.87-5.72-6.56-9.23s-5.27-6.57-7.18-8.76l-2.26-2.58a5.43,5.43,0,0,1-.79-1,6.87,6.87,0,0,1,.94.85c.58.57,1.4,1.41,2.39,2.48,2,2.12,4.62,5.16,7.32,8.68s4.92,6.88,6.45,9.35c.76,1.24,1.36,2.26,1.75,3A6.23,6.23,0,0,1,641.89,329.26Z" transform="translate(-42.97 -35.74)"/><path class="cls-2" d="M617.06,339.26a24.18,24.18,0,0,1-1.68,2.76c-1.07,1.68-2.52,4-4,6.65s-2.77,5.08-3.67,6.86a23.51,23.51,0,0,1-1.51,2.85,18,18,0,0,1,1.18-3c.82-1.82,2-4.3,3.55-7a76.17,76.17,0,0,1,4.16-6.59A16.06,16.06,0,0,1,617.06,339.26Z" transform="translate(-42.97 -35.74)"/><path class="cls-2" d="M608.56,370.43c0,.07-1.4-.6-3.64-1.6s-5.35-2.32-8.87-3.56-6.78-2.15-9.15-2.75-3.86-.94-3.84-1a4.71,4.71,0,0,1,1.06.11c.68.1,1.66.29,2.86.55a77.8,77.8,0,0,1,9.24,2.62,80.84,80.84,0,0,1,8.86,3.71c1.1.55,2,1,2.58,1.36A4.66,4.66,0,0,1,608.56,370.43Z" transform="translate(-42.97 -35.74)"/><path class="cls-2" d="M615.25,407.69a1.76,1.76,0,0,1-.44.15l-1.29.32-4.76,1.1a157,157,0,0,0-15.53,4.1,68.69,68.69,0,0,0-14.49,6.81c-1.74,1.1-3.09,2.08-4,2.78A10.61,10.61,0,0,1,573.3,424a2,2,0,0,1,.32-.33c.23-.21.55-.52,1-.89a42.82,42.82,0,0,1,3.91-2.93,63.82,63.82,0,0,1,14.53-7,129.27,129.27,0,0,1,15.63-4l4.79-.93A9.53,9.53,0,0,1,615.25,407.69Z" transform="translate(-42.97 -35.74)"/><path class="cls-2" d="M639.44,416.87c-.15,0-1-5-1.9-11.2s-1.53-11.26-1.39-11.28,1,5,1.9,11.2S639.58,416.85,639.44,416.87Z" transform="translate(-42.97 -35.74)"/><path class="cls-2" d="M664.62,407.73a28,28,0,0,1-2.27-2.7c-1.36-1.69-3.25-4-5.38-6.57s-4.11-4.79-5.54-6.43a24.3,24.3,0,0,1-2.26-2.7,3.87,3.87,0,0,1,.72.62c.44.42,1.06,1.05,1.81,1.84,1.51,1.57,3.53,3.79,5.67,6.34s4,4.92,5.27,6.68c.65.87,1.16,1.59,1.5,2.1A2.94,2.94,0,0,1,664.62,407.73Z" transform="translate(-42.97 -35.74)"/><polygon class="cls-8" points="555 395.34 555 407.79 558.12 407.79 569.18 442.7 593.71 442.7 604.42 408.13 608.57 407.79 608.57 395.34 555 395.34"/><path class="cls-2" d="M649.47,443.87c0,.15-10.84.26-24.19.26s-24.2-.11-24.2-.26,10.83-.26,24.2-.26S649.47,443.73,649.47,443.87Z" transform="translate(-42.97 -35.74)"/><path class="cls-2" d="M667.11,363.83a10.69,10.69,0,0,1-1.57.42l-4.31,1c-3.63.9-8.61,2.26-14,4.08s-10.2,3.74-13.63,5.22l-4.06,1.78A10.54,10.54,0,0,1,628,377a8.62,8.62,0,0,1,1.42-.8c.93-.48,2.3-1.14,4-1.93A142.8,142.8,0,0,1,661.14,365c1.82-.4,3.31-.7,4.34-.88A9,9,0,0,1,667.11,363.83Z" transform="translate(-42.97 -35.74)"/><path class="cls-4" d="M641.32,463.26c0,.14-7.6.26-17,.26s-17-.12-17-.26,7.6-.26,17-.26S641.32,463.12,641.32,463.26Z" transform="translate(-42.97 -35.74)"/><path class="cls-4" d="M642.28,460.37c0,.15-8.06.26-18,.26s-18-.11-18-.26,8.06-.26,18-.26S642.28,460.23,642.28,460.37Z" transform="translate(-42.97 -35.74)"/></g><g id="freepik--character-2--inject-40"><path class="cls-6" d="M492.29,446.69l-1.63,20.53s-20.28,6.52-20.4,10.32l39.68.52,1.17-31.41Z" transform="translate(-42.97 -35.74)"/><path class="cls-1" d="M502.89,465.13a1.62,1.62,0,0,1,1.18,1.82,1.57,1.57,0,0,1-1.79,1.18A1.71,1.71,0,0,1,501,466.2a1.61,1.61,0,0,1,2-1" transform="translate(-42.97 -35.74)"/><path class="cls-1" d="M509.94,478.06l-.08-3.18-37.58.23s-2.15,1.28-2.09,2.52Z" transform="translate(-42.97 -35.74)"/><path class="cls-2" d="M490,467c0,.19,1,.25,2,.85s1.51,1.39,1.68,1.31-.14-1.2-1.33-1.9A2.39,2.39,0,0,0,490,467Z" transform="translate(-42.97 -35.74)"/><path class="cls-2" d="M485.9,468.89c0,.19.81.49,1.49,1.29s.9,1.66,1.1,1.65.28-1.12-.59-2.1S485.9,468.7,485.9,468.89Z" transform="translate(-42.97 -35.74)"/><path class="cls-2" d="M483.68,473.94c.18,0,.42-.94-.11-2s-1.45-1.44-1.52-1.27.5.71.92,1.58S483.49,473.93,483.68,473.94Z" transform="translate(-42.97 -35.74)"/><path class="cls-2" d="M490.22,462.35c.09.17,1-.12,2.07-.08s2,.36,2.06.19-.75-.84-2-.87S490.12,462.2,490.22,462.35Z" transform="translate(-42.97 -35.74)"/><path class="cls-2" d="M490,458.22a3.68,3.68,0,0,0,2-.07,8.86,8.86,0,0,0,2.07-.7,9.53,9.53,0,0,0,1.12-.64,2.53,2.53,0,0,0,.59-.49.84.84,0,0,0,0-1,1.06,1.06,0,0,0-.86-.42,2.68,2.68,0,0,0-.74.13,7.93,7.93,0,0,0-1.23.46,6.59,6.59,0,0,0-1.79,1.26c-.9.88-1.19,1.61-1.12,1.65s.52-.56,1.43-1.3a8.64,8.64,0,0,1,1.75-1.05,7.5,7.5,0,0,1,1.13-.38c.41-.13.77-.14.89,0s0,.1,0,.23a2.44,2.44,0,0,1-.43.35,9.35,9.35,0,0,1-1,.63,10.2,10.2,0,0,1-1.9.8A15.44,15.44,0,0,0,490,458.22Z" transform="translate(-42.97 -35.74)"/><path class="cls-2" d="M490.29,458.49a3.15,3.15,0,0,0,.46-1.94,6.65,6.65,0,0,0-.33-2.17,7.54,7.54,0,0,0-.55-1.19,1.64,1.64,0,0,0-1.3-1,.91.91,0,0,0-.81.58,3,3,0,0,0-.18.73,4.3,4.3,0,0,0,0,1.34,4.62,4.62,0,0,0,.91,2c.81,1,1.62,1.21,1.64,1.15a8.35,8.35,0,0,1-1.25-1.43,4.57,4.57,0,0,1-.69-1.85,4.43,4.43,0,0,1,0-1.15c0-.42.2-.77.36-.73a1.49,1.49,0,0,1,.72.63,6.94,6.94,0,0,1,.52,1.06,7.63,7.63,0,0,1,.45,2C490.37,457.73,490.18,458.46,490.29,458.49Z" transform="translate(-42.97 -35.74)"/><path class="cls-6" d="M578.09,443.27l4.58,24,9.1,17.92a2.5,2.5,0,0,1-1.1,3.36l-.15.07h0a2.48,2.48,0,0,1-2.29-.17c-4.39-2.71-20.5-12.75-20.74-14.53-.27-2-6.52-25-6.52-25Z" transform="translate(-42.97 -35.74)"/><path class="cls-1" d="M590.52,488.6l-23.38-16.31.22,1a3.75,3.75,0,0,0,1.39,2.2c1.9,1.46,7.23,5.36,19.41,12.95a2.5,2.5,0,0,0,2.36.15Z" transform="translate(-42.97 -35.74)"/><path class="cls-1" d="M570.4,465.26a1.5,1.5,0,0,1,.82,1.84,1.45,1.45,0,0,1-1.82.83,1.6,1.6,0,0,1-.86-2,1.52,1.52,0,0,1,2-.65" transform="translate(-42.97 -35.74)"/><path class="cls-2" d="M582.82,479.35a7.69,7.69,0,0,1,1.69-2.31,8,8,0,0,1,2.64-1.12c0-.06-.34-.18-.91-.14a4,4,0,0,0-2.06.84,3.79,3.79,0,0,0-1.29,1.81C582.72,479,582.76,479.34,582.82,479.35Z" transform="translate(-42.97 -35.74)"/><path class="cls-2" d="M585.21,482.18c.13.08.73-.86,1.89-1.48a22.5,22.5,0,0,1,2.26-.81,2.79,2.79,0,0,0-2.52.34C585.52,480.94,585.07,482.14,585.21,482.18Z" transform="translate(-42.97 -35.74)"/><path class="cls-2" d="M578.77,475.93a26.08,26.08,0,0,1,2.77-2.48,25.79,25.79,0,0,1,3.36-1.59A6.84,6.84,0,0,0,578.77,475.93Z" transform="translate(-42.97 -35.74)"/><path class="cls-2" d="M576.77,468.76c.09.13,1.29-.7,3-1.14s3.15-.31,3.17-.47a6.26,6.26,0,0,0-6.17,1.61Z" transform="translate(-42.97 -35.74)"/><path class="cls-2" d="M575.25,461.76a12.2,12.2,0,0,1,3.08-1.27,12.88,12.88,0,0,1,3.34.11,1.84,1.84,0,0,0-.92-.5,5.44,5.44,0,0,0-4.82.87C575.42,461.37,575.2,461.71,575.25,461.76Z" transform="translate(-42.97 -35.74)"/><path class="cls-2" d="M578,459.17a3.75,3.75,0,0,0-.16-.91,6.31,6.31,0,0,0-1.22-2.21,2.85,2.85,0,0,0-1.48-1.07,1,1,0,0,0-1.06.45,1.61,1.61,0,0,0-.15,1.16,3.55,3.55,0,0,0,3.72,2.55,4.12,4.12,0,0,0,3.49-2.95A1.46,1.46,0,0,0,581,455a1,1,0,0,0-1.12-.29,3.53,3.53,0,0,0-1.39,1.15,7.28,7.28,0,0,0-1.23,2.21,2.14,2.14,0,0,0-.19.9,11.54,11.54,0,0,1,1.71-2.86,3.18,3.18,0,0,1,1.24-1,.54.54,0,0,1,.61.16,1,1,0,0,1,.07.78,3.66,3.66,0,0,1-3,2.51,3.07,3.07,0,0,1-3.18-2.11,1.16,1.16,0,0,1,.06-.82.56.56,0,0,1,.58-.26,2.59,2.59,0,0,1,1.27.89A9,9,0,0,1,578,459.17Z" transform="translate(-42.97 -35.74)"/><path class="cls-2" d="M492,258c-.25,0-3.29,201.15-3.29,201.15l24.31-.84,8.41-98.9,2-72.6L540,354l20.63,105.39,24.27-6.09L554,256.72l-29.08-5.62Z" transform="translate(-42.97 -35.74)"/><path class="cls-2" d="M544.85,133.75c2.91-5.74,3.82-16.06.49-21.77s-10.09-9.84-16.43-11.72a5.58,5.58,0,0,0-3.26-.2,2.18,2.18,0,0,0-1.54,2.55,14.09,14.09,0,0,0-4-2.29,4.71,4.71,0,0,0-4.37.62,2.88,2.88,0,0,0-.43,4h0a5,5,0,0,0-6.74,6.11,15.91,15.91,0,0,0,3.23,5.09c1.26,1.34,1.38,2.64,1,4.45" transform="translate(-42.97 -35.74)"/><path class="cls-9" d="M520.88,181.06c.18-2.76.63-27.7.62-27.81s-9.26-1.15-9.66-10.36c-.19-4.45.16-13.64.57-21.95A17.17,17.17,0,0,1,529,104.62h.89c9.6.26,14.74,8.56,14.21,18.15l-1.31,53.37" transform="translate(-42.97 -35.74)"/><path class="cls-10" d="M521.5,153.25a22.22,22.22,0,0,0,11.89-3.92s-2.77,5.76-12,5.22Z" transform="translate(-42.97 -35.74)"/><path class="cls-2" d="M514,127.16a1.33,1.33,0,0,0,1.31,1.29,1.26,1.26,0,0,0,1.32-1.2v0a1.3,1.3,0,0,0-1.31-1.29h0a1.26,1.26,0,0,0-1.32,1.2Z" transform="translate(-42.97 -35.74)"/><path class="cls-2" d="M514.53,125.39c.17.16,1.14-.61,2.56-.65s2.47.64,2.62.46-.1-.38-.57-.7a3.63,3.63,0,0,0-2.1-.58,3.45,3.45,0,0,0-2,.73C514.58,125,514.45,125.31,514.53,125.39Z" transform="translate(-42.97 -35.74)"/><path class="cls-2" d="M528.14,127.36a1.33,1.33,0,0,0,1.31,1.29,1.25,1.25,0,0,0,1.32-1.18v0a1.33,1.33,0,0,0-1.31-1.29A1.29,1.29,0,0,0,528.14,127.36Z" transform="translate(-42.97 -35.74)"/><path class="cls-2" d="M528.45,125.22c.17.16,1.15-.61,2.56-.65s2.48.64,2.62.46-.1-.38-.56-.7a3.66,3.66,0,0,0-2.11-.58,3.54,3.54,0,0,0-2,.73C528.51,124.83,528.37,125.14,528.45,125.22Z" transform="translate(-42.97 -35.74)"/><path class="cls-2" d="M523.64,135.88a8.62,8.62,0,0,0-2.31-.35c-.36,0-.71-.09-.78-.33a1.93,1.93,0,0,1,.21-1.08l1-2.78c1.37-4,2.34-7.23,2.18-7.28s-1.39,3.12-2.76,7.08c-.32,1-.64,1.91-.93,2.8a2.08,2.08,0,0,0-.15,1.43.94.94,0,0,0,.61.51,2.14,2.14,0,0,0,.62.06A8.93,8.93,0,0,0,523.64,135.88Z" transform="translate(-42.97 -35.74)"/><path class="cls-2" d="M527.84,136.73c-.23,0-.19,1.53-1.47,2.66s-2.92,1-2.93,1.23.38.28,1.07.28A3.9,3.9,0,0,0,527,140a3.38,3.38,0,0,0,1.13-2.23C528.13,137.09,527.94,136.71,527.84,136.73Z" transform="translate(-42.97 -35.74)"/><path class="cls-2" d="M527.91,119.68c.16.38,1.56.15,3.23.3s3,.56,3.23.21c.1-.17-.15-.52-.7-.88a5.5,5.5,0,0,0-2.42-.76,5.34,5.34,0,0,0-2.5.37C528.15,119.19,527.85,119.5,527.91,119.68Z" transform="translate(-42.97 -35.74)"/><path class="cls-2" d="M514.92,121.27c.26.32,1.23,0,2.4-.1s2.17.15,2.39-.19c.09-.17-.07-.49-.52-.78a3.34,3.34,0,0,0-2-.47,3.26,3.26,0,0,0-1.89.71C514.93,120.78,514.81,121.12,514.92,121.27Z" transform="translate(-42.97 -35.74)"/><path class="cls-9" d="M543.59,129.59c.16-.07,6.27-2.07,6.27,4.24s-6.33,5-6.35,4.82S543.59,129.59,543.59,129.59Z" transform="translate(-42.97 -35.74)"/><path class="cls-10" d="M545.44,136.26a1.63,1.63,0,0,0,.3.16,1.06,1.06,0,0,0,.82,0,2.73,2.73,0,0,0,1.26-2.44,3.86,3.86,0,0,0-.31-1.57,1.27,1.27,0,0,0-.82-.84.55.55,0,0,0-.65.3c-.09.17,0,.3-.08.31s-.13-.11-.08-.37a.7.7,0,0,1,.24-.39.82.82,0,0,1,.61-.16,1.52,1.52,0,0,1,1.15,1,3.64,3.64,0,0,1,.38,1.75,2.86,2.86,0,0,1-1.61,2.73,1.18,1.18,0,0,1-1-.17C545.45,136.41,545.42,136.27,545.44,136.26Z" transform="translate(-42.97 -35.74)"/><path class="cls-2" d="M508.39,109c-.74,8.17,9.33,11.58,13.75,7,2-2.11,3.82-4.75,6.6-5.7a7.49,7.49,0,0,1,5.75.6h0c2.6,1.35,4.13,4.36,4.54,7.26.56,4-.09,7.6,1,11.31a2.51,2.51,0,0,0,.78,1.43,2,2,0,0,0,2.49-.63,7.77,7.77,0,0,0,1.58-4.16,25.82,25.82,0,0,0-.38-10.21,17.62,17.62,0,0,0-5.12-8.76,16.75,16.75,0,0,0-11.86-4.06,20.58,20.58,0,0,0-11.77,4.62,12.13,12.13,0,0,0-3.73,4.58" transform="translate(-42.97 -35.74)"/><path class="cls-8" d="M515.06,104.53a1.83,1.83,0,0,0-.87,0,4.39,4.39,0,0,0-2.08,1.16,5.42,5.42,0,0,0-1.57,3.17,6.08,6.08,0,0,0,1.21,4.16,8,8,0,0,0,3.41,2.66,10.73,10.73,0,0,0,3.44.76,12.4,12.4,0,0,0,2.36-.07,2.73,2.73,0,0,0,.85-.17c0-.09-1.23.08-3.18-.1a11.37,11.37,0,0,1-3.29-.83,7.65,7.65,0,0,1-3.2-2.54A5.68,5.68,0,0,1,511,109a5.12,5.12,0,0,1,1.36-3,4.54,4.54,0,0,1,1.89-1.22C514.76,104.59,515.07,104.58,515.06,104.53Z" transform="translate(-42.97 -35.74)"/><path class="cls-8" d="M519.28,101.65a.92.92,0,0,0-.6.1,2,2,0,0,0-1,1.35,3.58,3.58,0,0,0,.48,2.41,10.79,10.79,0,0,0,1.72,2.41,11,11,0,0,0,4.51,2.86,5.09,5.09,0,0,0,2.18.37c0-.09-.82-.19-2.06-.69a12.14,12.14,0,0,1-4.27-2.87,11.11,11.11,0,0,1-1.69-2.29,3.45,3.45,0,0,1-.54-2.14,2,2,0,0,1,.75-1.25C519.07,101.71,519.29,101.69,519.28,101.65Z" transform="translate(-42.97 -35.74)"/><path class="cls-9" d="M464.39,183.29,421,179.18l-6.86-1.65s-15.68-2.8-17.15-3.27c-1.7-.53-2.37.16-2.52.8-.24,1,.75,2.07,2.19,2.57.5.18,8.49,2.6,8.49,2.6a20.25,20.25,0,0,0-2.63.87c-1.86.71-3.58,3.22-4.37,6.09s-.76,3.74.34,4.1a1.44,1.44,0,0,0,1.24-.22A2.91,2.91,0,0,0,401,189.4c1.34-4.58,4.15-5.05,4.15-5.05l.9.22s-2.84,2.15-2.69,4.61a2.86,2.86,0,0,0,.27,1A3.72,3.72,0,0,0,406,194.9a3.76,3.76,0,0,0,2.05.1c.62-.13,1.27-.52,1.34-1.15a2.05,2.05,0,0,0-.24-1,3,3,0,0,1-.17-.5l2.6.25s5.87.26,8.41.66l40.87,10.57a10.46,10.46,0,0,0,12.75-7.5c0-.06,0-.13.05-.19h0a10.47,10.47,0,0,0-7.76-12.61A12,12,0,0,0,464.39,183.29Z" transform="translate(-42.97 -35.74)"/><path class="cls-9" d="M420.08,180.32a2.19,2.19,0,0,1-1.79,1.79c-.89.22-1.81.14-2.71.29-2.67.47-4.66,3-7.36,3.34-.37,0-.85,0-1-.37s.15-.66.41-.9l6.49-6.22" transform="translate(-42.97 -35.74)"/><path class="cls-10" d="M414.15,178.25a4.08,4.08,0,0,0-.77.6c-.47.41-1.14,1-2,1.78l-2.88,2.67c-.27.26-.54.52-.83.78a1.61,1.61,0,0,0-.73,1.13.76.76,0,0,0,.49.7,1.51,1.51,0,0,0,.73.09,6.38,6.38,0,0,0,1.29-.31,35.54,35.54,0,0,0,4.22-2.36,6.7,6.7,0,0,1,1.9-.71c.62-.12,1.23-.13,1.8-.19a3.15,3.15,0,0,0,2.42-1.16,1.2,1.2,0,0,0,.26-1,2.6,2.6,0,0,1-.42.83,3.07,3.07,0,0,1-2.29.92c-.62,0-1.23.06-1.84.13a6.83,6.83,0,0,0-2,.71,39.55,39.55,0,0,1-4.19,2.29,5.06,5.06,0,0,1-1.16.29c-.37,0-.7-.08-.67-.28a1.84,1.84,0,0,1,.57-.77c.28-.26.55-.54.82-.79l2.8-2.76c.79-.79,1.43-1.44,1.86-1.89S414.18,178.28,414.15,178.25Z" transform="translate(-42.97 -35.74)"/><path class="cls-10" d="M406.12,184.47a3.76,3.76,0,0,0-1.7.05,2.85,2.85,0,0,0-1.44,1.07,7.15,7.15,0,0,0-1,2.06,12.3,12.3,0,0,1-.9,2.19,3.76,3.76,0,0,1-1.36,1.41,1.48,1.48,0,0,1-1.31.08c-.29-.14-.4-.28-.39-.29s.15.08.43.17a1.36,1.36,0,0,0,1.16-.17,3.61,3.61,0,0,0,1.21-1.36,13.62,13.62,0,0,0,.85-2.14,7.11,7.11,0,0,1,1.05-2.14,3,3,0,0,1,1.62-1.11,2.64,2.64,0,0,1,1.31,0A1,1,0,0,1,406.12,184.47Z" transform="translate(-42.97 -35.74)"/><path class="cls-10" d="M396.14,177.43a10,10,0,0,1,1.59.47l3.8,1.23,3.82,1.17a10.86,10.86,0,0,1,1.58.53,6.5,6.5,0,0,1-1.64-.3c-1-.24-2.36-.61-3.86-1.08s-2.83-.95-3.78-1.33A8.24,8.24,0,0,1,396.14,177.43Z" transform="translate(-42.97 -35.74)"/><path class="cls-10" d="M407.35,186.83s-.11.16-.32.41a1.49,1.49,0,0,0-.44,1.2.8.8,0,0,0,.53.62,4.31,4.31,0,0,0,1.06.25,1.85,1.85,0,0,1,1.18.58,1.62,1.62,0,0,1,.26,1.41,1.84,1.84,0,0,1-.93,1.08,2.25,2.25,0,0,1-1.3.24,7,7,0,0,1-2-.67,4.18,4.18,0,0,1-1.19-.81,1,1,0,0,1-.29-.45s.13.14.38.36a4.57,4.57,0,0,0,1.19.69,7.77,7.77,0,0,0,2,.58,1.8,1.8,0,0,0,1.87-1.11,1.31,1.31,0,0,0-.19-1.12,1.53,1.53,0,0,0-1-.48,4.42,4.42,0,0,1-1.12-.3,1.06,1.06,0,0,1-.64-.83,2,2,0,0,1,1-1.65Z" transform="translate(-42.97 -35.74)"/><path class="cls-10" d="M408.49,192.17a.79.79,0,0,1,.43.19,1.42,1.42,0,0,1,.53,1.18,1.9,1.9,0,0,1-1.08,1.57,3.16,3.16,0,0,1-2.34.13,3.81,3.81,0,0,1-1.92-1.35,3.68,3.68,0,0,1-.69-1.77,3.45,3.45,0,0,1,.09-1.28c.08-.29.16-.44.18-.43a5.84,5.84,0,0,0,0,1.67,3.47,3.47,0,0,0,.71,1.63,3.58,3.58,0,0,0,1.77,1.21,2.88,2.88,0,0,0,2.1-.08,1.73,1.73,0,0,0,1-1.32,1.42,1.42,0,0,0-.38-1.07C408.64,192.25,408.48,192.2,408.49,192.17Z" transform="translate(-42.97 -35.74)"/><path class="cls-10" d="M415.52,188.34a1.52,1.52,0,0,1,.25-.75,3.12,3.12,0,0,1,1.52-1.35v.29a9.4,9.4,0,0,1-1-.51,7,7,0,0,1-2.81-2.68,17.36,17.36,0,0,0,3,2.4,8.48,8.48,0,0,0,1,.5l.34.16-.35.13a3.35,3.35,0,0,0-1.47,1.16C415.66,188.08,415.57,188.36,415.52,188.34Z" transform="translate(-42.97 -35.74)"/><path class="cls-10" d="M401.91,184.26c.06-.06.54.43.62,1.22s-.27,1.37-.35,1.32.1-.59,0-1.28S401.83,184.32,401.91,184.26Z" transform="translate(-42.97 -35.74)"/><path class="cls-6" d="M465.16,204.49,493.44,198S492,249.8,492,250.29s-2.33,1.3-2.13,5.07l2,4.47,62,.83,1.68-50.34,5.66-39-13-8L543.63,157l-17.88,18.86-4.45-16.1.13-4.79-4.42,4.8-23.85,6.88-31.51,14.69-21.3-1.63-5.53,18.64Z" transform="translate(-42.97 -35.74)"/><path class="cls-2" d="M523.28,170.08a2.84,2.84,0,0,0-1.28,1.43,5.77,5.77,0,0,0-.39,2.18,8.48,8.48,0,0,1-.42,3l-.22.51-.22-.51a28.27,28.27,0,0,1-1.4-4.59c-.75-3.24-1.24-6.21-1.56-8.35a21.77,21.77,0,0,1-.37-3.51,27,27,0,0,1,.74,3.44c.41,2.13,1,5.08,1.7,8.3a32.33,32.33,0,0,0,1.32,4.51h-.43a8.29,8.29,0,0,0,.46-2.79,5.8,5.8,0,0,1,.52-2.28,2.57,2.57,0,0,1,1-1.14A1,1,0,0,1,523.28,170.08Z" transform="translate(-42.97 -35.74)"/><path class="cls-2" d="M546.23,162.18a4,4,0,0,1-.6.87c-.42.53-1,1.3-1.8,2.24-1.54,1.88-3.68,4.45-6.08,7.28L533.93,177l-.3.34-.1-.43c-.55-2.18-1-4-1.28-5.3-.12-.65-.48-1-.83-1a.69.69,0,0,0-.48.13s.07-.26.48-.28a.86.86,0,0,1,.66.27,1.92,1.92,0,0,1,.44.82c.37,1.28.88,3.1,1.46,5.26l-.41-.09,3.78-4.49c2.4-2.82,4.59-5.36,6.2-7.18.8-.91,1.46-1.64,1.92-2.14S546.2,162.15,546.23,162.18Z" transform="translate(-42.97 -35.74)"/><path class="cls-2" d="M519.86,245a2.54,2.54,0,0,1-.06-.67v-9c.06-6,.35-14.23,1-23.33s1.64-17.3,2.46-23.22c.4-3,.77-5.35,1-7l.33-1.9a3.61,3.61,0,0,1,.15-.65,3.75,3.75,0,0,1,0,.67c-.06.49-.14,1.12-.23,1.91-.22,1.72-.52,4.1-.89,7-.72,5.93-1.61,14.13-2.3,23.22s-1,17.33-1.18,23.29c-.07,2.94-.12,5.34-.17,7.08,0,.79,0,1.42-.05,1.92A3.91,3.91,0,0,1,519.86,245Z" transform="translate(-42.97 -35.74)"/><path class="cls-2" d="M514.81,257.13a11.75,11.75,0,0,1-.47-4.45,16.21,16.21,0,0,1,.52-4.44,23.63,23.63,0,0,1,0,4.45C514.79,255.13,515,257.11,514.81,257.13Z" transform="translate(-42.97 -35.74)"/><path class="cls-2" d="M540.21,242.58a11.77,11.77,0,0,1-1.59.6c-1,.36-2.56.83-4.44,1.38A152,152,0,0,1,504,249.92c-1.95.13-3.54.21-4.64.23a9.65,9.65,0,0,1-1.7,0,12,12,0,0,1,1.69-.18l4.62-.4c3.9-.36,9.28-1,15.16-2s11.15-2.31,14.93-3.31l4.48-1.23A9.57,9.57,0,0,1,540.21,242.58Z" transform="translate(-42.97 -35.74)"/><path class="cls-2" d="M493.13,208.89c-.14,0-.23-7.35-.2-16.43s.17-16.43.32-16.42.23,7.35.2,16.43S493.28,208.89,493.13,208.89Z" transform="translate(-42.97 -35.74)"/><path class="cls-6" d="M560.06,170.56s7.81,6.7,8.33,10.5c.39,2.93,8.08,30.48,11.54,42.82a17.92,17.92,0,0,1-.66,11.63l-10,24.7-16.15-9.56,8.08-23.16-6.69-19.66Z" transform="translate(-42.97 -35.74)"/><path class="cls-2" d="M569.29,260.21a1.4,1.4,0,0,1-.3-.15l-.86-.47-3.27-1.87L553,250.83l-.15-.09.06-.15c2.26-6.53,5-14.47,8-23.19v.17c-.94-2.54-1.93-5.19-2.94-7.9-2.37-6.37-4.62-12.45-6.68-18h0c-2-4.29-3.82-8.44-4.31-12.42a17.48,17.48,0,0,1,.16-5.59,16.64,16.64,0,0,1,1.62-4.49,18.68,18.68,0,0,1,4.18-5.26,16.75,16.75,0,0,1,1.4-1.12,2.85,2.85,0,0,1,.52-.33,3,3,0,0,1-.47.4c-.32.25-.78.63-1.35,1.16a19.33,19.33,0,0,0-4,5.29,15.8,15.8,0,0,0-1.54,4.42,17,17,0,0,0-.11,5.47c.51,3.89,2.28,8,4.35,12.27h0l6.72,18c1,2.71,2,5.36,2.94,7.91v.17c-3.06,8.7-5.84,16.63-8.13,23.15l-.09-.24,11.73,7,3.22,2,.83.52C569.2,260.13,569.3,260.2,569.29,260.21Z" transform="translate(-42.97 -35.74)"/><g class="cls-11"><path d="M527.66,174.18a2.41,2.41,0,0,1,2.4,1.76c.2,1.08.05,2.2.33,3.26s1.25,2.1,2.32,1.87a2.85,2.85,0,0,0,1.53-1.2,37.2,37.2,0,0,0,5-9.29c0,.07-5.54,6.36-5.54,6.36a18.54,18.54,0,0,0-1.24-4.63c-.19-.48-.4-1.29-.86-1.51-.75-.34-1.75.76-2.25,1.42a12.19,12.19,0,0,1-1.73,1.86" transform="translate(-42.97 -35.74)"/></g><g class="cls-11"><path d="M518.63,168.48a32.24,32.24,0,0,0,2,10.28,2.24,2.24,0,0,0,.54.9.85.85,0,0,0,1,.14,12.15,12.15,0,0,0,1-2.13c.51-1.43,2.59-1.56,2.59-1.56a37.92,37.92,0,0,0-1.36-4.76,1.34,1.34,0,0,0-1.29-.83,2.16,2.16,0,0,0-1.42,1.63c-.31,2.57-.27,3.74-.65,4.64-1-2.73-1.76-6-2.4-8.41" transform="translate(-42.97 -35.74)"/></g><g class="cls-11"><path d="M534,244.23a2.18,2.18,0,0,0,.51-3l0,0a3.35,3.35,0,0,0-3.13-1.19,7,7,0,0,0-3.16,1.42c-1,.69-1.82,1.48-2.82,2.09-2.45,1.5-5.43,1.85-8.31,1.89a49.53,49.53,0,0,0-8.61.39c-2.82.54-5.64,2-7,4.53C501.41,250.28,526,248.5,534,244.23Z" transform="translate(-42.97 -35.74)"/></g><path class="cls-9" d="M550,280.35a20.33,20.33,0,0,1-6.44-6.64.28.28,0,0,0,0-.22.41.41,0,0,0-.25-.15,31.55,31.55,0,0,1-1.88-3.3c2-1.3,4.63-3.28,1.78-3.68-3.51-.5-6-2.21-6.38-3.14a1.11,1.11,0,0,1,.79-1.36,1.13,1.13,0,0,1,.94.18,13.55,13.55,0,0,0,3.38,1.17,8.66,8.66,0,0,0,2.87.18c.59-.07,2.68-1.5,4.92-2.55a1.64,1.64,0,0,1,1-.14l.85-.06a2.63,2.63,0,0,0,2.17-1.42L557,253l9.8,5.8L559,269.54A131.31,131.31,0,0,1,550,280.35Z" transform="translate(-42.97 -35.74)"/><path class="cls-8" d="M552.06,281.47a7.79,7.79,0,0,1-2.26-1.06,20.77,20.77,0,0,1-8-8.86,8.21,8.21,0,0,1-.81-2.37,26.21,26.21,0,0,0,11,12.33Z" transform="translate(-42.97 -35.74)"/><path class="cls-8" d="M521.19,287.78a.78.78,0,0,1-.28-.08,3.15,3.15,0,0,1-.69-.45,5.77,5.77,0,0,1-1.6-2.54,41.92,41.92,0,0,1-1.09-4.28c-.36-1.62-.73-3.4-1.1-5.28-.74-3.75-1.3-7.17-1.66-9.65-.18-1.24-.31-2.25-.38-2.94a4.44,4.44,0,0,1-.07-1.09,4.35,4.35,0,0,1,.27,1l.54,2.92c.46,2.46,1.07,5.86,1.81,9.61.37,1.87.73,3.64,1.06,5.28a34.29,34.29,0,0,0,1,4.26,6.26,6.26,0,0,0,1.38,2.51A8.54,8.54,0,0,0,521.19,287.78Z" transform="translate(-42.97 -35.74)"/><path class="cls-8" d="M520.35,265.33a.86.86,0,0,1,.44,0,1.7,1.7,0,0,1,.92.81,1.73,1.73,0,0,1-.1,1.83,2,2,0,0,1-2.1.8,2.11,2.11,0,0,1-1.47-1.7,2,2,0,0,1,.63-1.72c.83-.71,1.58-.5,1.54-.46a3.13,3.13,0,0,0-1.28.72,1.59,1.59,0,0,0-.41,1.38,1.65,1.65,0,0,0,1.13,1.27,1.57,1.57,0,0,0,1.58-.57,1.39,1.39,0,0,0,.15-1.39C521,265.49,520.31,265.4,520.35,265.33Z" transform="translate(-42.97 -35.74)"/><path class="cls-8" d="M499.09,261.31a5.77,5.77,0,0,1,.26,2.3,12.37,12.37,0,0,1-5.17,9.61,5.77,5.77,0,0,1-2.07,1c0-.08.75-.47,1.85-1.34a13.58,13.58,0,0,0,5-9.34C499.11,262.2,499,261.32,499.09,261.31Z" transform="translate(-42.97 -35.74)"/><path class="cls-2" d="M460.28,191.15a34.87,34.87,0,0,1,.51-5,34.4,34.4,0,0,1,.72-4.94,18.22,18.22,0,0,1-.21,5A19,19,0,0,1,460.28,191.15Z" transform="translate(-42.97 -35.74)"/><path class="cls-2" d="M440.35,179.73a1.36,1.36,0,0,1-.07.35c-.06.27-.15.6-.26,1-.26.92-.61,2.2-1.06,3.8l-4,13.55-.16-.28c5.65,1.4,12.46,2.54,19.73,3.88,3.62.68,7.11,1.41,10.33,2.21h-.11l20.28-4.59,5.91-1.28,1.58-.33a2.1,2.1,0,0,1,.56-.08,3.74,3.74,0,0,1-.54.17l-1.56.4L485.18,200l-20.24,4.77h-.12c-3.21-.79-6.69-1.51-10.31-2.18-7.25-1.34-14.08-2.51-19.74-4l-.23-.05.07-.23c1.68-5.55,3.09-10.18,4.1-13.49.49-1.58.89-2.84,1.18-3.76l.33-1A2.26,2.26,0,0,1,440.35,179.73Z" transform="translate(-42.97 -35.74)"/></g><g id="freepik--character-1--inject-40"><polygon class="cls-12" points="117.65 374.99 114.76 428.5 134.15 433.18 138.01 380.91 117.65 374.99"/><polygon class="cls-6" points="114.19 428.05 110.89 442.57 133.19 442.57 134.15 433.11 114.19 428.05"/><path class="cls-2" d="M176.62,476.2a16,16,0,0,1-3.25.18c-2,0-4.78,0-7.84-.14l-7.83-.33a19.49,19.49,0,0,1-3.24-.26,16,16,0,0,1,3.25-.18c2,0,4.78,0,7.84.15l7.83.33A18.47,18.47,0,0,1,176.62,476.2Z" transform="translate(-42.97 -35.74)"/><path class="cls-2" d="M167.17,466.62c.17,0,.16,2.11,0,4.7s-.45,4.67-.62,4.66-.17-2.12,0-4.7S167,466.6,167.17,466.62Z" transform="translate(-42.97 -35.74)"/><g class="cls-13"><polyline class="cls-7" points="110.89 442.57 133.19 442.57 133.41 440.46 111.29 439.91 110.89 442.32"/></g><polygon class="cls-12" points="191.25 401.01 195.96 436.46 213.11 435.27 209.51 402.76 191.25 401.01"/><path class="cls-6" d="M256.26,467.16h0s19.28,6.51,19.6,10L239,478.26l-.33-9.63,1.36.27A27.39,27.39,0,0,0,256.26,467.16Z" transform="translate(-42.97 -35.74)"/><g class="cls-13"><path class="cls-7" d="M243,470.31a1.5,1.5,0,0,0-1,1.75,1.44,1.44,0,0,0,1.72,1,1.58,1.58,0,0,0,1-1.85,1.5,1.5,0,0,0-1.91-.84" transform="translate(-42.97 -35.74)"/></g><g class="cls-13"><path class="cls-7" d="M239,478.26v-3l35.34.09s1.66.67,1.51,1.83Z" transform="translate(-42.97 -35.74)"/></g><path class="cls-2" d="M256.85,467c0,.18-.89.28-1.76.89s-1.32,1.37-1.49,1.31.07-1.12,1.14-1.83S256.89,466.79,256.85,467Z" transform="translate(-42.97 -35.74)"/><path class="cls-2" d="M260.77,468.44c0,.17-.73.5-1.32,1.28s-.74,1.59-.92,1.59-.32-1,.43-2S260.76,468.27,260.77,468.44Z" transform="translate(-42.97 -35.74)"/><path class="cls-2" d="M263.1,473c-.16,0-.44-.85,0-1.85s1.27-1.42,1.35-1.27-.43.69-.77,1.51S263.28,473,263.1,473Z" transform="translate(-42.97 -35.74)"/><path class="cls-2" d="M256.45,466.86a3.33,3.33,0,0,1-1.85.05,8.1,8.1,0,0,1-1.94-.54,9,9,0,0,1-1.08-.53,2.33,2.33,0,0,1-.57-.42.77.77,0,0,1-.11-.95,1,1,0,0,1,.78-.44,2,2,0,0,1,.69.08,5.78,5.78,0,0,1,1.16.36,6.54,6.54,0,0,1,1.73,1.06c.88.77,1.19,1.44,1.13,1.47s-.51-.49-1.4-1.12a7.62,7.62,0,0,0-1.67-.88,6.78,6.78,0,0,0-1.07-.29c-.39-.09-.73-.09-.82.09s0,.09,0,.21a1.73,1.73,0,0,0,.41.3c.32.19.66.37,1,.53a9.61,9.61,0,0,0,1.8.63A14.24,14.24,0,0,1,256.45,466.86Z" transform="translate(-42.97 -35.74)"/><path class="cls-2" d="M256.22,467.13a3,3,0,0,1-.53-1.77,5.87,5.87,0,0,1,.19-2,5.19,5.19,0,0,1,.44-1.13,1.49,1.49,0,0,1,1.15-1,.86.86,0,0,1,.78.49,2.61,2.61,0,0,1,.21.67,4.36,4.36,0,0,1,0,1.25,4.26,4.26,0,0,1-.73,1.93c-.7,1-1.44,1.21-1.46,1.15a7.84,7.84,0,0,0,1.08-1.39,4.3,4.3,0,0,0,.53-1.75,3.83,3.83,0,0,0-.06-1.07c-.07-.39-.23-.7-.37-.65a1.36,1.36,0,0,0-.63.62,7.35,7.35,0,0,0-.43,1,6.52,6.52,0,0,0-.3,1.86C256.11,466.43,256.32,467.1,256.22,467.13Z" transform="translate(-42.97 -35.74)"/><path class="cls-2" d="M175,257.26S161.35,280,161.35,293.59L158,459.19l21.5,5.13,16.4-161.84s39.72,162.26,41,162.26,20.83-3.51,20.83-3.51L228.07,258Z" transform="translate(-42.97 -35.74)"/><path class="cls-8" d="M183.42,298a1.48,1.48,0,0,1,0,.42c0,.3-.1.71-.17,1.22-.18,1.1-.43,2.67-.75,4.67-.66,4.05-1.58,9.91-2.68,17.17-2.18,14.48-4.91,34.58-7.2,56.89s-3.68,42.52-4.47,57.18c-.4,7.33-.69,13.26-.86,17.36-.09,2-.17,3.61-.22,4.72,0,.52-.06.92-.07,1.23a2,2,0,0,1-.05.42,2.94,2.94,0,0,1,0-.42v-1.23c0-1.12.06-2.7.11-4.73.1-4.1.32-10,.67-17.37.69-14.67,2-34.92,4.3-57.22s5.08-42.39,7.38-56.89c1.15-7.25,2.13-13.11,2.87-17.15.36-2,.65-3.56.85-4.65.1-.51.17-.91.23-1.21A2.9,2.9,0,0,1,183.42,298Z" transform="translate(-42.97 -35.74)"/><path class="cls-8" d="M217.45,300.77c.16,0,6.72,36.32,14.65,81.17s14.23,81.25,14.07,81.28-6.72-36.31-14.65-81.18S217.29,300.8,217.45,300.77Z" transform="translate(-42.97 -35.74)"/><path class="cls-8" d="M195.14,302.2a2.37,2.37,0,0,1-.23-.41c-.13-.28-.32-.69-.55-1.23a42.08,42.08,0,0,1-1.59-4.67,47.36,47.36,0,0,1-1.54-16.16c.11-1.6.33-3.14.57-4.62s.65-2.89,1-4.22c.75-2.65,1.54-5,2.22-7s1.26-3.55,1.68-4.63l.5-1.25a2,2,0,0,1,.2-.42,1.47,1.47,0,0,1-.11.46l-.4,1.28c-.39,1.18-.9,2.76-1.52,4.67s-1.38,4.34-2.11,7c-.36,1.32-.73,2.72-1,4.17a40.8,40.8,0,0,0-.55,4.57,50.42,50.42,0,0,0,1.37,16c.51,2,1.06,3.59,1.43,4.69A14.35,14.35,0,0,1,195.14,302.2Z" transform="translate(-42.97 -35.74)"/><path class="cls-8" d="M201.23,274.39v.31a5.88,5.88,0,0,0,.05.88c0,.81.08,1.91.14,3.27.1,2.84.24,6.79.4,11.52l-.14-.2,8.28,3.37h-.23l6.72-4.09.44-.27-.13.2c.51-5.46,1-10.6,1.4-15l.22.25L206,274.5l-3.53-.06h-1.28a7.84,7.84,0,0,1,1.19-.06l3.47-.06,12.52-.11h.25v.25c-.39,4.43-.84,9.57-1.33,15v.13l-.11.07-.44.26L210,294l-.11.07-.11-.05-8.26-3.43-.13,0v-.15c-.07-4.79-.13-8.79-.17-11.67V275.5A8.22,8.22,0,0,1,201.23,274.39Z" transform="translate(-42.97 -35.74)"/><path class="cls-8" d="M170.11,270a6,6,0,0,1-.15,1.12c-.15.71-.27,1.77-.46,3-.43,2.63-1,6.28-1.72,10.65l-.09-.22,6.25,4.63h-.22l7.6-2.11.39-.11-.18.18c1.45-5,2.82-9.61,4-13.63l.17.29-11.23-2.68-3.2-.79c-.74-.19-1.15-.3-1.16-.32a10,10,0,0,1,1.09.2l3.17.66,11.43,2.48.23.06-.06.23-4,13.64v.14h-.14l-.39.11-7.6,2.1h-.12l-.1-.07L167.42,285l-.11-.09v-.13c.81-4.41,1.48-8.1,2-10.75.24-1.23.43-2.22.57-3A7.29,7.29,0,0,1,170.11,270Z" transform="translate(-42.97 -35.74)"/><path class="cls-8" d="M213.53,299a84.05,84.05,0,0,1-9.14,2.25,85.32,85.32,0,0,1-9.26,1.74,84.8,84.8,0,0,1,9.15-2.25A85.6,85.6,0,0,1,213.53,299Z" transform="translate(-42.97 -35.74)"/><path class="cls-8" d="M186.8,299.71a9.16,9.16,0,0,1-2.34,0,39.47,39.47,0,0,1-11-2.53,8.17,8.17,0,0,1-2.11-1,14.35,14.35,0,0,1,2.23.68c1.37.44,3.27,1,5.41,1.49s4.09.82,5.52,1A12.66,12.66,0,0,1,186.8,299.71Z" transform="translate(-42.97 -35.74)"/><path class="cls-2" d="M184.42,127.19c.74,2.14-1.8,4-4,4.47s-4.88.82-5.89,2.85c-.88,1.76,0,4-.79,5.79-1.52,3.41-7.66,2.7-8.86,6.24C164,149,166.32,151.47,166,154c-.25,2.19-2.26,3.69-4,5s-3.62,3.16-3.35,5.36c.32,2.53,3.42,4.28,3.13,6.82s-3.64,3.66-4.13,6.13c-.57,2.92,3.09,4.8,4.27,7.54.9,2.09.34,4.79,1.86,6.49s4.32,1.39,6.6.91l22.77-4.83c-1.54-3.59-.1-7.81,2.1-11s5.11-6,7-9.4,2.5-8,0-11.06" transform="translate(-42.97 -35.74)"/><path class="cls-2" d="M224.45,145.39a24.48,24.48,0,0,0-.75-3.6,3.57,3.57,0,0,0-.91-1.47c-.45-.43-1-.16-1.4.45a11,11,0,0,0,0,9.23c.37.62,1,.89,1.4.46a3.61,3.61,0,0,0,.91-1.48,24.62,24.62,0,0,0,.75-3.59,2.81,2.81,0,0,1,.08,1,10.1,10.1,0,0,1-.43,2.73,4,4,0,0,1-1,1.72,1.2,1.2,0,0,1-1.21.28,2,2,0,0,1-1-.81,11.19,11.19,0,0,1,0-9.84,2,2,0,0,1,1-.81,1.2,1.2,0,0,1,1.21.28,4,4,0,0,1,1,1.72,10,10,0,0,1,.43,2.72A2.86,2.86,0,0,1,224.45,145.39Z" transform="translate(-42.97 -35.74)"/><path class="cls-2" d="M187.31,166.35c-4.12-7-5.3-16.23-6.34-24.24-.49-3.78-1.35-9.15,1.3-11.51,2.85-2.53,3.12-6.43,6.39-8.38s7.7-2.11,10.78.12" transform="translate(-42.97 -35.74)"/><path class="cls-12" d="M198.72,191h0a11.16,11.16,0,0,0,12-10.26c0-.14,0-.27,0-.41.26-6.08.48-12.22.48-12.22s9.21-.84,9.91-10,.45-30.16.45-30.16h0a31.77,31.77,0,0,0-32.11,2l.47,32.08,0,17.26C190,185.1,193,190.54,198.72,191Z" transform="translate(-42.97 -35.74)"/><path class="cls-2" d="M212.09,147c-1.56-1.95-4.12-2.73-6.22-1.37a5.3,5.3,0,0,0-1.79,6.62,7,7,0,0,0,4.47,3.39,3.51,3.51,0,0,1,2.73,3.78c-.27,2.28-4.08,3.13-5.81,5-2.68,2.94-8.54,4.17-12.49,4.62s-3.42.49-5.67-2.71a12.29,12.29,0,0,1-2.2-7.4q-.17-10.1-.35-20.17a28.29,28.29,0,0,1,.48-7.23,9.7,9.7,0,0,1,3.83-6c2.22-1.46,5-1.57,7.56-2.38,3.16-1,5.85-3.1,8.8-4.6s6.59-2.4,9.55-.9c2.12,1.08,3.54,3.2,5.61,4.39,2.94,1.68,7,1.31,8.37,5.65a7.36,7.36,0,0,1-.06,4.64c-2,5.89-9.33,8.24-14.58,5.68-.1,1,.87,3.22-.19,6.38-.34,1-.46,2.54-2,2.56" transform="translate(-42.97 -35.74)"/><path class="cls-14" d="M210.44,152.69a.9.9,0,0,1-.12.39,1.35,1.35,0,0,1-1,.51,2.5,2.5,0,0,1-2.35-2.52,2.59,2.59,0,0,1,.67-1.93,2.76,2.76,0,0,1,1.43-.82c.94-.19,1.48.16,1.44.21a9,9,0,0,0-1.31.23,2.28,2.28,0,0,0-1.6,2.24,2.13,2.13,0,0,0,1.7,2.09C210.07,153.18,210.38,152.63,210.44,152.69Z" transform="translate(-42.97 -35.74)"/><path class="cls-2" d="M224.47,145a33,33,0,0,1-6.13,1.31,34.38,34.38,0,0,1-6.23.72,33,33,0,0,1,6.13-1.31A33.52,33.52,0,0,1,224.47,145Z" transform="translate(-42.97 -35.74)"/><path class="cls-2" d="M188,175.25a2.66,2.66,0,0,0,3.17,1.27,7.59,7.59,0,0,0,3.06-2.08,8.05,8.05,0,0,1,3-2.12c2.43-.74,5.41.88,7.45-.63,1.86-1.37,1.62-4.48,3.45-5.9,1-.75,2.32-.85,3.31-1.58,1.85-1.36,1.54-4.41,0-6.11s-3.89-2.38-6.1-3l-19.59,8.35Z" transform="translate(-42.97 -35.74)"/><path class="cls-8" d="M211.31,139.85a1,1,0,0,1-.16.12,3.81,3.81,0,0,1-.52.29,10.71,10.71,0,0,1-2.14.77,23.78,23.78,0,0,1-3.56.57,35.1,35.1,0,0,0-4.68.64,8.79,8.79,0,0,0-4.83,2.65c-1.32,1.53-1.82,3.73-2.84,5.87a7.6,7.6,0,0,1-2.28,2.87,12,12,0,0,1-3.41,1.68c-2.41.8-5.06,1.29-7.06,3a5,5,0,0,0-1.81,3.2,22,22,0,0,0,0,3.81,6.22,6.22,0,0,1-3.38,6.3c-2,1.21-4.19,1.85-5.9,2.94a6.89,6.89,0,0,0-2.11,1.95,5.13,5.13,0,0,0-.8,2.49,17.29,17.29,0,0,0,.63,4.63,12.13,12.13,0,0,1,.33,3.6,5,5,0,0,1-.65,2.19,2.53,2.53,0,0,1-.5.63,5.5,5.5,0,0,0,.92-2.83,12.23,12.23,0,0,0-.42-3.51,17.22,17.22,0,0,1-.73-4.73,5.49,5.49,0,0,1,.83-2.72,7.25,7.25,0,0,1,2.23-2.11c1.78-1.16,3.94-1.82,5.89-3a5.72,5.72,0,0,0,3.08-5.83,21.28,21.28,0,0,1,0-3.91,5.61,5.61,0,0,1,2-3.56c2.18-1.83,4.92-2.3,7.26-3.09a11.71,11.71,0,0,0,3.26-1.58,7,7,0,0,0,2.13-2.67c1-2,1.52-4.3,2.95-5.94a9.13,9.13,0,0,1,5.12-2.73,34.26,34.26,0,0,1,4.74-.57,28.1,28.1,0,0,0,3.54-.46A15.12,15.12,0,0,0,211.31,139.85Z" transform="translate(-42.97 -35.74)"/><path class="cls-8" d="M206,143.12c0,.06-.71,0-1.91.27A8.65,8.65,0,0,0,199.7,146a8.11,8.11,0,0,0-1.75,3.07,13.43,13.43,0,0,0-.36,4.09,10.68,10.68,0,0,1-.68,4.68,4.67,4.67,0,0,1-1.71,1.92A22.49,22.49,0,0,1,193,161a5.89,5.89,0,0,0-1.94,1.38,3.49,3.49,0,0,0-.77,2.1c-.11,1.52.22,3.21-.52,4.67a7.65,7.65,0,0,1-3.05,3c-1.15.68-2.27,1.19-3.21,1.76a7.69,7.69,0,0,0-2.26,1.87,5,5,0,0,0-1,2,4.63,4.63,0,0,0,0,1.89,1.16,1.16,0,0,1-.2-.47,3.59,3.59,0,0,1-.06-1.46,5.09,5.09,0,0,1,.93-2.13,8,8,0,0,1,2.31-2c1-.61,2.07-1.14,3.17-1.82a7.17,7.17,0,0,0,2.81-2.84c.65-1.26.35-2.82.44-4.47a4.1,4.1,0,0,1,.89-2.44,6.51,6.51,0,0,1,2.14-1.53c1.53-.75,3.08-1.43,3.71-2.86a10.26,10.26,0,0,0,.65-4.42,14.07,14.07,0,0,1,.44-4.24,8,8,0,0,1,1.91-3.2,8.68,8.68,0,0,1,4.65-2.57,6.4,6.4,0,0,1,1.45-.1A1.46,1.46,0,0,1,206,143.12Z" transform="translate(-42.97 -35.74)"/><polyline class="cls-15" points="170.5 140.88 168.13 136.01 147.54 135.23 144.31 141.56 170.17 141.56"/><path class="cls-8" d="M284.25,220.67c-.15-.74,5.44-29.82,7-37.8a1.68,1.68,0,0,0-1.35-2,1.63,1.63,0,0,0-.31,0H248.35a1.67,1.67,0,0,0-1.65,1.3l-8.44,35.59-20.81,1.55.73,1.37Z" transform="translate(-42.97 -35.74)"/><polygon class="cls-1" points="239.47 182.35 246.14 147.1 205.61 147.34 196.71 182.4 239.47 182.35"/><path class="cls-2" d="M239.65,218.16h0l8.9-35.07h0l40.56-.25h0l-6.68,35.27h0Zm8.95-35-8.89,35,42.71,0,6.66-35.2Z" transform="translate(-42.97 -35.74)"/><path class="cls-2" d="M282.4,218.33c0,.14-11.86.26-26.48.26s-26.49-.12-26.49-.26,11.85-.26,26.49-.26S282.4,218.19,282.4,218.33Z" transform="translate(-42.97 -35.74)"/><path class="cls-8" d="M279.6,209.43a1.51,1.51,0,0,1-.52,0l-1.52,0-5.59.08c-4.72,0-11.23.08-18.43.08H247.3l.08-.31c1.44-5.55,2.69-10.4,3.61-14,.45-1.68.82-3,1.1-4.08a10.61,10.61,0,0,1,.46-1.45,9.46,9.46,0,0,1-.29,1.5c-.24,1-.56,2.41-1,4.11-.87,3.56-2.06,8.42-3.43,14l-.24-.31h5.91c7.2,0,13.71,0,18.43.08l5.59.08H279A1.58,1.58,0,0,1,279.6,209.43Z" transform="translate(-42.97 -35.74)"/><polygon class="cls-6" points="207.28 172.35 208.03 168.95 213.25 168.95 212.58 172.35 207.28 172.35"/><polygon class="cls-6" points="214.37 172.35 215.94 165.66 221.16 165.66 219.68 172.35 214.37 172.35"/><polygon class="cls-6" points="221.46 172.35 222.22 168.95 227.44 168.95 226.77 172.35 221.46 172.35"/><polygon class="cls-6" points="228.55 172.35 231.54 159.35 236.76 159.35 233.86 172.35 228.55 172.35"/><path class="cls-8" d="M254.34,211.89a4.46,4.46,0,0,1-2.11.24c-1.16,0-2.1-.13-2.1-.28a8.57,8.57,0,0,1,4.21,0Z" transform="translate(-42.97 -35.74)"/><path class="cls-8" d="M261.21,211.88a8.65,8.65,0,0,1-4.21,0,8.65,8.65,0,0,1,4.21,0Z" transform="translate(-42.97 -35.74)"/><path class="cls-8" d="M268.09,211.87a8.65,8.65,0,0,1-4.21,0,8.65,8.65,0,0,1,4.21,0Z" transform="translate(-42.97 -35.74)"/><path class="cls-8" d="M275,211.86a8.61,8.61,0,0,1-4.22,0A8.61,8.61,0,0,1,275,211.86Z" transform="translate(-42.97 -35.74)"/><path class="cls-8" d="M264.85,188.36a33.4,33.4,0,0,1-5.83.26,33.56,33.56,0,0,1-5.84-.26,33.56,33.56,0,0,1,5.84-.26A33.4,33.4,0,0,1,264.85,188.36Z" transform="translate(-42.97 -35.74)"/><path class="cls-8" d="M258.72,186.91a12.56,12.56,0,0,1-5.18,0A12.91,12.91,0,0,1,258.72,186.91Z" transform="translate(-42.97 -35.74)"/><path class="cls-6" d="M247.54,242.1l23.86-17.27-.89-1.44a11.47,11.47,0,0,0-5.58-4.68l-3.73.67-22.12,3.37Z" transform="translate(-42.97 -35.74)"/><polygon class="cls-6" points="119.74 202.39 139.57 194.51 135.14 178.1 118.99 183.59 119.74 202.39"/><path class="cls-6" d="M246.71,242.56c4.94-2.45,6.21-8.34,3.8-13.3L230,185.36a8,8,0,0,0-2.07-2.83,23.18,23.18,0,0,0-17-5.82l-21.42-.56s-16.83,0-23.14,13.26c-.46,1-10.24,20.37-16.69,33.15a11.06,11.06,0,0,0,4.88,14.85,12.34,12.34,0,0,0,1.18.51h0a11,11,0,0,0,13.9-5.85l7-15.62L181,238.82l-6.35,18.44,53.11.73-4.08-24.67-1.29-17.58L233.2,238a10,10,0,0,0,13.34,4.69l.17-.08Z" transform="translate(-42.97 -35.74)"/><g class="cls-16"><path d="M182.83,238.39c4,3,9.95,2,14.9,1.19a21.55,21.55,0,0,0,13-7,8.78,8.78,0,0,0,2.41-6.13c-.2-2.25-2.19-4.42-4.43-4.15-2.56.31-3.8,3.19-5,5.46A19.89,19.89,0,0,1,183,237.49S182.12,237.86,182.83,238.39Z" transform="translate(-42.97 -35.74)"/></g><g class="cls-16"><path d="M215.63,203.83c1.25,10.1.69,9.34,2.8,19.3,1,4.89,2.29,10,5.67,13.7l-1.67-21.09Z" transform="translate(-42.97 -35.74)"/></g><polygon class="cls-6" points="131.72 221.52 130.2 217.09 134.16 214.45 182.88 210.43 186.31 216.89 184.83 222.25 131.72 221.52"/><path class="cls-2" d="M184.75,173.67a7.26,7.26,0,0,0-4.14,9.4,7.35,7.35,0,0,0,.76,1.44,3.64,3.64,0,0,1,.93,2c-.1,1.8-3,1.85-3.92,3.4a2.76,2.76,0,0,0,.78,3.25,20.87,20.87,0,0,0,3,2,3.7,3.7,0,0,1,1.84,2.93c1,0,1.62-1.26,1.47-2.26a10.47,10.47,0,0,0-1.25-2.77,2.87,2.87,0,0,1-.13-2.89c.66-.95,2-1,3.1-1.41a4.32,4.32,0,0,0,2.29-5.56c-.66-1.46-2.18-2.94-1.44-4.36.41-.79,1.36-1.09,2.14-1.53a5.57,5.57,0,0,0,.73-9.28" transform="translate(-42.97 -35.74)"/><path class="cls-2" d="M176.5,218.59a12.5,12.5,0,0,1-1.08,2.49c-.74,1.51-1.82,3.56-3.12,5.77s-2.59,4.13-3.56,5.51a13.31,13.31,0,0,1-1.66,2.14,15.27,15.27,0,0,1,1.36-2.35c.88-1.42,2.11-3.38,3.41-5.57s2.42-4.21,3.24-5.67A14.8,14.8,0,0,1,176.5,218.59Z" transform="translate(-42.97 -35.74)"/><path class="cls-2" d="M171.83,227a8.55,8.55,0,0,1-2.2,6.86c-.13-.09.77-1.46,1.36-3.35S171.67,227,171.83,227Z" transform="translate(-42.97 -35.74)"/><path class="cls-2" d="M249.64,227.68c-.13.06-4.29-8.64-9.28-19.42s-8.94-19.58-8.81-19.64,4.29,8.63,9.28,19.42S249.77,227.62,249.64,227.68Z" transform="translate(-42.97 -35.74)"/><path class="cls-2" d="M224.34,182.84c0,.08-.9.41-2.22,1.23a13.89,13.89,0,0,0-6.44,9.81c-.23,1.54-.16,2.52-.25,2.53a6.59,6.59,0,0,1-.12-2.58,12.91,12.91,0,0,1,6.62-10.08A6.47,6.47,0,0,1,224.34,182.84Z" transform="translate(-42.97 -35.74)"/><path class="cls-2" d="M181,239c-.14,0-2.53-10.14-5.34-22.73s-5-22.81-4.83-22.84,2.53,10.14,5.34,22.73S181.12,239,181,239Z" transform="translate(-42.97 -35.74)"/><polyline class="cls-12" points="228.43 189.09 238.11 184.92 225.21 184.92 228.03 188.58"/><path class="cls-2" d="M251.5,225.91a16.94,16.94,0,0,1-2.35-2.21,17.54,17.54,0,0,1-2.28-2.28,7.06,7.06,0,0,1,2.64,1.91A7.28,7.28,0,0,1,251.5,225.91Z" transform="translate(-42.97 -35.74)"/><path class="cls-2" d="M233.65,238.77a8.1,8.1,0,0,1-.82-1.35c-.5-.88-1.19-2.17-2-3.77-1.68-3.21-3.92-7.68-6.36-12.62s-4.69-9.41-6.36-12.62c-.79-1.54-1.46-2.82-2-3.8a10.24,10.24,0,0,1-.67-1.42,8.73,8.73,0,0,1,.85,1.32c.52.87,1.25,2.14,2.12,3.73,1.75,3.17,4.05,7.61,6.49,12.56s4.6,9.35,6.23,12.68l1.88,3.85A9.28,9.28,0,0,1,233.65,238.77Z" transform="translate(-42.97 -35.74)"/><path class="cls-2" d="M214.5,225.18v.35a8.35,8.35,0,0,1-.17,1A13.53,13.53,0,0,1,213,230a19.48,19.48,0,0,1-9,8,38.88,38.88,0,0,1-11.71,2.92c-1.53.17-2.78.27-3.64.33a6,6,0,0,1-1.34,0,8.28,8.28,0,0,1,1.32-.23l3.61-.5a42.32,42.32,0,0,0,11.54-3,20,20,0,0,0,8.87-7.66A19.11,19.11,0,0,0,214.5,225.18Z" transform="translate(-42.97 -35.74)"/><path class="cls-2" d="M203.82,251c0,.14-6.58.72-14.72,1.29s-14.74.92-14.75.77,6.58-.72,14.72-1.29S203.81,250.8,203.82,251Z" transform="translate(-42.97 -35.74)"/><path class="cls-2" d="M212.31,247a23.92,23.92,0,0,1,1.06,10.08c-.15,0-.21-2.27-.51-5A50.69,50.69,0,0,1,212.31,247Z" transform="translate(-42.97 -35.74)"/><path class="cls-2" d="M215.73,243.82a6.82,6.82,0,0,1,.44,2,25.48,25.48,0,0,1-.69,9.87,6.34,6.34,0,0,1-.72,1.93c-.16,0,.78-3,1-6.87S215.57,243.84,215.73,243.82Z" transform="translate(-42.97 -35.74)"/><path class="cls-2" d="M213.53,177a104.76,104.76,0,0,1-10.63-.33c-5.86-.33-10.6-.72-10.6-.86s4.77,0,10.63.34S213.53,176.83,213.53,177Z" transform="translate(-42.97 -35.74)"/></g><g id="freepik--speech-bubble--inject-40"><polygon class="cls-6" points="635.66 159.36 631.43 152.14 627.41 159.36 570.4 159.36 570.4 189.17 659.18 189.17 659.18 159.36 635.66 159.36"/><path class="cls-7" d="M629.33,210.26a4.36,4.36,0,0,0,2.64-4,4.11,4.11,0,1,0-8.19-.67,3.47,3.47,0,0,0,0,.56,4.37,4.37,0,0,0,2.58,4.11c-6.32.9-6.09,7.76-6.09,7.76l14.92.19S635.58,211.26,629.33,210.26Z" transform="translate(-42.97 -35.74)"/><path class="cls-7" d="M692,203.93c0,.09-11.34.16-25.31.16s-25.31-.07-25.31-.16,11.33-.15,25.31-.15S692,203.85,692,203.93Z" transform="translate(-42.97 -35.74)"/><path class="cls-7" d="M692,208.48c0,.08-11.34.15-25.31.15s-25.31-.07-25.31-.15,11.33-.15,25.31-.15S692,208.4,692,208.48Z" transform="translate(-42.97 -35.74)"/><path class="cls-7" d="M692,213c0,.09-11.34.16-25.31.16s-25.31-.07-25.31-.16,11.33-.15,25.31-.15S692,212.94,692,213Z" transform="translate(-42.97 -35.74)"/><path class="cls-7" d="M666.71,217.52c0,.09-5.67.16-12.65.16s-12.66-.07-12.66-.16,5.67-.15,12.66-.15S666.71,217.44,666.71,217.52Z" transform="translate(-42.97 -35.74)"/></g><g id="freepik--Chart--inject-40"><path class="cls-2" d="M310.42,348.86a4.06,4.06,0,0,1-.85.06l-2.44.05-8.95.09-29.54.08h-2.38v-.28c0-11,.06-20.92.09-28.13,0-3.53.06-6.4.08-8.45,0-.95,0-1.72.05-2.29a3.55,3.55,0,0,1,.06-.8,5.34,5.34,0,0,1,0,.8c0,.57,0,1.34,0,2.29,0,2.05.05,4.92.09,8.45,0,7.21,0,17.1.09,28.13l-.28-.28h2.1l29.54.09,8.95.08,2.44.06A5.43,5.43,0,0,1,310.42,348.86Z" transform="translate(-42.97 -35.74)"/><path class="cls-2" d="M305.54,318.82a11.06,11.06,0,0,1-1.31,1.25l-3.7,3.25c-3.15,2.73-7.51,6.47-12.36,10.57l-.74.62-.18.16-.18-.17-5.5-5.11h.34l-8.07,6.66-2.34,1.87a5.43,5.43,0,0,1-.88.63,5.53,5.53,0,0,1,.77-.76l2.25-2,7.94-6.81.17-.15.17.15,5.52,5.08h-.36l.73-.62c4.85-4.1,9.25-7.79,12.46-10.44l3.82-3.12A12.52,12.52,0,0,1,305.54,318.82Z" transform="translate(-42.97 -35.74)"/><path class="cls-2" d="M305.54,328a14.8,14.8,0,0,1-.19-2.74c-.05-1.69-.08-4-.09-6.67l.28.28h-.47c-2.73,0-5.2,0-7-.08a14.84,14.84,0,0,1-2.9-.2,16.56,16.56,0,0,1,2.9-.19c1.79-.06,4.26-.09,7-.09h.75v.28c0,2.62,0,5-.09,6.67A14.8,14.8,0,0,1,305.54,328Z" transform="translate(-42.97 -35.74)"/></g><g id="freepik--Gears--inject-40"><path class="cls-6" d="M120.8,194.81a15.88,15.88,0,0,1,4,1.07l3-2.49,5.1,3.88-1.6,3.53a15.34,15.34,0,0,1,2.1,3.61l3.86.34.86,6.36-3.63,1.35a15.45,15.45,0,0,1-1.06,4l2.49,3-3.89,5.1L128.52,223a16,16,0,0,1-3.62,2.11l-.34,3.86-6.35.86-1.36-3.63a15.88,15.88,0,0,1-4-1.07l-3,2.49-5.1-3.88,1.6-3.53a15.34,15.34,0,0,1-2.1-3.61l-3.86-.34-.86-6.36,3.63-1.35a15.81,15.81,0,0,1,1.06-4.05l-2.49-3,3.89-5.1,3.52,1.61a16,16,0,0,1,3.62-2.11l.34-3.86,6.35-.86,1.36,3.63Zm-2.61,8.82a6.88,6.88,0,1,0,7.74,5.9,6.88,6.88,0,0,0-7.74-5.9Z" transform="translate(-42.97 -35.74)"/><path class="cls-15" d="M118.19,203.63a1.07,1.07,0,0,1,.43-.09,5.4,5.4,0,0,1,1.27,0,6.87,6.87,0,0,1,4.22,1.94,7.09,7.09,0,0,1,.11,10l-.11.11a7.1,7.1,0,0,1-11.19-8.49L113,207a6.92,6.92,0,0,1,3.55-3,5.37,5.37,0,0,1,1.24-.31,1.09,1.09,0,0,1,.44,0c0,.06-.6.12-1.6.54a6.93,6.93,0,0,0-3.28,3,6.64,6.64,0,0,0,10.39,8,6.53,6.53,0,0,0,1.88-3.35,6.68,6.68,0,0,0-1.75-6.12,6.81,6.81,0,0,0-4-2C118.8,203.59,118.19,203.69,118.19,203.63Z" transform="translate(-42.97 -35.74)"/><path class="cls-15" d="M120.8,194.81a.48.48,0,0,0-.1-.22l-.28-.67c-.25-.65-.61-1.55-1.06-2.71l.09.06-6.34.91.12-.12c-.1,1.17-.21,2.47-.32,3.86V196h-.09a16,16,0,0,0-3.56,2.1l-.09.07-.1,0-3.53-1.59.23-.06-3.86,5.12v-.28l2.5,3,.09.1v.13a15.84,15.84,0,0,0-1,4v.14l-.14,0-3.63,1.37.16-.27c.28,2,.57,4.15.87,6.35l-.23-.22,3.86.34h.16l.06.15a15.17,15.17,0,0,0,2.08,3.54l.1.13-.07.15c-.5,1.11-1,2.31-1.61,3.53l-.08-.33,5.11,3.88h-.35l3-2.49.13-.11.16.07a15.34,15.34,0,0,0,4,1h0c.1.08-.23-.17.22.18h0v.17l.08.23.17.45.34.91c.23.61.45,1.21.68,1.81l-.3-.18,6.36-.86-.24.25c.12-1.3.23-2.58.34-3.86v-.16l.15-.07a15.73,15.73,0,0,0,3.55-2.06l.13-.1.15.07,3.52,1.61-.32.08,3.89-5.1v.32l-2.48-3-.1-.11.06-.14a15.45,15.45,0,0,0,1.06-4v-.14h.14l3.63-1.35-.15.25c-.29-2.24-.57-4.35-.84-6.36l.19.18-3.85-.35h-.13v-.11a15,15,0,0,0-2.07-3.58l-.07-.09v-.1l1.62-3.52.05.2-5.07-3.91h.15l-3,2.47h0a16.57,16.57,0,0,0-3-.94l-.76-.15c-.18,0-.26,0-.25-.06h.26a5.55,5.55,0,0,1,.77.11,14.91,14.91,0,0,1,3,.86h-.09l3-2.52.08-.06.08.06L133.1,197l.11.08-.06.12-1.59,3.53v-.18a15.72,15.72,0,0,1,2.15,3.64l-.17-.12,3.86.33h.17v.17q.42,3,.88,6.35v.19l-.18.06-3.62,1.37.15-.2a15.86,15.86,0,0,1-1.07,4.11v-.26c.81,1,1.65,2,2.49,3l.13.16-.12.16-3.88,5.11-.12.17-.2-.09-3.53-1.6h.28a15.91,15.91,0,0,1-3.67,2.15l.17-.23c-.12,1.27-.23,2.56-.34,3.86v.22h-.22l-6.35.86h-.22l-.08-.2c-.23-.6-.45-1.21-.68-1.81l-.34-.91-.17-.46-.08-.23,0-.11v-.06h0c.45.35.13.09.23.17h0a16.29,16.29,0,0,1-4.11-1.08l.29-.05-3,2.49-.17.14-.18-.13-5.1-3.89-.17-.13.09-.2c.55-1.21,1.1-2.42,1.61-3.52v.27a16.24,16.24,0,0,1-2.14-3.67l.22.16-3.85-.34h-.21v-.21c-.29-2.2-.58-4.36-.85-6.35v-.2l.19-.07,3.63-1.35-.15.2a15.34,15.34,0,0,1,1.09-4.1v.23c-.87-1-1.72-2.05-2.48-3l-.12-.13.11-.14,3.9-5.09.1-.13.14.07,3.52,1.62h-.19a16.06,16.06,0,0,1,3.66-2.11l-.1.14c.13-1.39.26-2.69.37-3.86v-.11h.11l6.36-.81h.07v.07c.42,1.16.75,2.06,1,2.7.1.29.18.53.25.71S120.83,194.7,120.8,194.81Z" transform="translate(-42.97 -35.74)"/><path class="cls-17" d="M109,237.69a10.13,10.13,0,0,1,2.54.67l1.86-1.56,3.21,2.44-1,2.21a10.12,10.12,0,0,1,1.32,2.27l2.43.21.54,4-2.28.86a10.13,10.13,0,0,1-.67,2.54l1.56,1.86-2.44,3.21-2.21-1a10.12,10.12,0,0,1-2.27,1.32l-.22,2.42-4,.54-.85-2.27a9.74,9.74,0,0,1-2.54-.68l-1.86,1.57-3.21-2.44,1-2.22a9.83,9.83,0,0,1-1.32-2.26l-2.42-.22-.55-4,2.28-.85a9.72,9.72,0,0,1,.67-2.54L97,241.89l2.44-3.2,2.21,1a10.12,10.12,0,0,1,2.27-1.32l.22-2.43,4-.54.85,2.28Zm-1.64,5.54a4.32,4.32,0,1,0,4.86,3.7h0A4.32,4.32,0,0,0,107.36,243.23Z" transform="translate(-42.97 -35.74)"/><path class="cls-2" d="M107.36,243.23l.27-.06a3.57,3.57,0,0,1,.8,0,4.34,4.34,0,0,1,2.65,1.21,4.46,4.46,0,0,1-5.28,7.08A4.36,4.36,0,0,1,104,249.6a4.44,4.44,0,0,1,.1-4.27,4.29,4.29,0,0,1,2.23-1.88,4.13,4.13,0,0,1,.77-.19h.28a6.19,6.19,0,0,0-1,.34,4.3,4.3,0,0,0-2.07,1.88,4.18,4.18,0,0,0,0,4,4,4,0,0,0,1.7,1.71,4.13,4.13,0,0,0,4.86-.66,4,4,0,0,0,1.18-2.1,4.18,4.18,0,0,0-1.09-3.84,4.38,4.38,0,0,0-2.49-1.26C107.75,243.2,107.36,243.27,107.36,243.23Z" transform="translate(-42.97 -35.74)"/><path class="cls-2" d="M109,237.69l-.06-.13-.18-.43c-.16-.4-.38-1-.66-1.7h.05l-4,.57.07-.08c-.06.74-.12,1.55-.19,2.43v.06H104a9.92,9.92,0,0,0-2.24,1.32h-.06l-2.22-1h.15L97.13,242v-.17l1.56,1.86.06.06v.09a9.82,9.82,0,0,0-.66,2.5v.09H98l-2.28.86.1-.17c.17,1.25.36,2.61.55,4l-.15-.14,2.42.21h.1v.09a9.26,9.26,0,0,0,1.31,2.23l.06.08v.09l-1,2.22v-.21l3.2,2.44H102c.58-.5,1.22-1,1.86-1.57l.08-.07h.1a9.74,9.74,0,0,0,2.49.66h0l.14.11h0v.13l0,.14.11.29.21.57c.14.38.29.76.43,1.13l-.19-.11,4-.54-.15.16c.07-.82.15-1.63.22-2.43v-.1h.09a9.23,9.23,0,0,0,2.23-1.3l.08-.06h.1l2.21,1-.2.06c.83-1.1,1.65-2.16,2.44-3.21v.2l-1.56-1.86-.06-.08v-.08a9.84,9.84,0,0,0,.67-2.5v-.09h.08l2.29-.85-.1.15c-.18-1.4-.36-2.73-.53-4l.12.12-2.42-.22h-.08v-.07a9.91,9.91,0,0,0-1.3-2.25v-.12c.38-.8.71-1.52,1-2.21v.13l-3.19-2.46h.09l-1.88,1.54h0a11.38,11.38,0,0,0-1.88-.59l-.48-.09h0l.49.07a9,9,0,0,1,1.91.54h-.06l1.85-1.58h0l3.22,2.41h.07v.08c-.31.69-.63,1.41-1,2.22v-.12a10.14,10.14,0,0,1,1.35,2.29l-.11-.07,2.43.2h.1v.11c.17,1.26.36,2.58.55,4v.11h-.11l-2.28.86.1-.12a10,10,0,0,1-.68,2.58v-.16l1.56,1.86.09.1-.08.1-2.44,3.21-.08.1h-.12l-2.21-1h.17a10.28,10.28,0,0,1-2.31,1.35l.11-.15q-.11,1.2-.21,2.43v.14h-.13l-4,.55h-.14l0-.13-.42-1.14-.22-.57-.11-.29v-.27h0l.14.11h0a10.45,10.45,0,0,1-2.58-.68h.17l-1.86,1.56-.11.09-.11-.08L98.81,256l-.11-.09.06-.12,1-2.22v.18a9.87,9.87,0,0,1-1.34-2.31l.13.1-2.42-.22H96v-.13c-.18-1.38-.36-2.73-.53-4v-.12h.12l2.28-.85-.1.12a10,10,0,0,1,.69-2.57v.14L96.92,242l-.08-.08.07-.09,2.45-3.2.06-.07h.09l2.21,1h-.12a10.35,10.35,0,0,1,2.3-1.33l-.06.09.23-2.42v-.08h.07l4-.51h0l.6,1.7.15.44A.66.66,0,0,1,109,237.69Z" transform="translate(-42.97 -35.74)"/></g><g id="freepik--Clock--inject-40"><circle class="cls-5" cx="220.18" cy="66.16" r="21.74" transform="translate(-52.69 29.84) rotate(-16.58)"/><path class="cls-2" d="M198.49,64.73a2,2,0,0,1,0,.35v1.76a3.7,3.7,0,0,0,.08.91,17.46,17.46,0,0,0,.32,2.27A20.5,20.5,0,0,0,201,76a21.78,21.78,0,0,0,5,6.4,21.46,21.46,0,0,0,20.13,4.39A21.1,21.1,0,0,0,229,85.74a22.13,22.13,0,0,0,2.74-1.51,28,28,0,0,0,2.57-1.91,28,28,0,0,0,2.3-2.32,20.81,20.81,0,0,0,3.46-5.71,21.37,21.37,0,0,0-1.76-19.68,26.24,26.24,0,0,0-2-2.61,24.22,24.22,0,0,0-2.3-2.23,23,23,0,0,0-2.51-1.87,23.35,23.35,0,0,0-2.72-1.41A21.53,21.53,0,0,0,202.4,54a20.35,20.35,0,0,0-2.79,5.57,15.26,15.26,0,0,0-.61,2.2c-.07.32-.15.62-.2.9s-.07.52-.1.75c-.06.43-.11.76-.15,1a2,2,0,0,1-.06.35,1,1,0,0,1,0-.35c0-.26.06-.6.1-1,0-.23,0-.49.07-.76s.12-.58.18-.91a17,17,0,0,1,.57-2.23,20.42,20.42,0,0,1,2.74-5.68A21.89,21.89,0,0,1,229,46.05a23.57,23.57,0,0,1,2.78,1.44,22.84,22.84,0,0,1,2.58,1.9,20,20,0,0,1,4.34,5,21.05,21.05,0,0,1,2.75,6.25A21.72,21.72,0,0,1,237,80.29a26.29,26.29,0,0,1-2.32,2.4,26.91,26.91,0,0,1-2.64,2,23.08,23.08,0,0,1-2.8,1.54,22.07,22.07,0,0,1-28.55-10.1,20.59,20.59,0,0,1-2-6,17.66,17.66,0,0,1-.27-2.29,4.49,4.49,0,0,0-.06-.92V65.16A1.64,1.64,0,0,1,198.49,64.73Z" transform="translate(-42.97 -35.74)"/><path class="cls-2" d="M230.06,66.82a4.9,4.9,0,0,1-.77.06h-9.37v-12A6.79,6.79,0,0,1,220,54a4.54,4.54,0,0,1,.06.9V66.82l-.14-.13h9.23A7.33,7.33,0,0,1,230.06,66.82Z" transform="translate(-42.97 -35.74)"/><path class="cls-2" d="M220.13,48a5.94,5.94,0,0,1,.14,1.83,5.94,5.94,0,0,1-.14,1.83,5.94,5.94,0,0,1-.14-1.83A5.94,5.94,0,0,1,220.13,48Z" transform="translate(-42.97 -35.74)"/><path class="cls-2" d="M230,50.92a5.94,5.94,0,0,1-1.18,1.37,5.49,5.49,0,0,1-1.37,1.17,5.94,5.94,0,0,1,1.18-1.37A5.49,5.49,0,0,1,230,50.92Z" transform="translate(-42.97 -35.74)"/><path class="cls-2" d="M235.83,57.25a7.54,7.54,0,0,1-1.5,1,7.83,7.83,0,0,1-1.58.87A4.78,4.78,0,0,1,234.19,58,4.7,4.7,0,0,1,235.83,57.25Z" transform="translate(-42.97 -35.74)"/><path class="cls-2" d="M239.23,66.64a22,22,0,0,1-5,0A22,22,0,0,1,239.23,66.64Z" transform="translate(-42.97 -35.74)"/><path class="cls-2" d="M204.69,66.3a19.71,19.71,0,0,1-4.69,0,11,11,0,0,1,2.36-.14A10.7,10.7,0,0,1,204.69,66.3Z" transform="translate(-42.97 -35.74)"/><path class="cls-2" d="M207.13,73.3a10.89,10.89,0,0,1-1.78,1.61,10.31,10.31,0,0,1-1.95,1.39,10.89,10.89,0,0,1,1.78-1.61A10.31,10.31,0,0,1,207.13,73.3Z" transform="translate(-42.97 -35.74)"/><path class="cls-2" d="M213.16,78.7A16.48,16.48,0,0,1,212,80.8a14.51,14.51,0,0,1-1.29,2,8.24,8.24,0,0,1,1-2.2A7.91,7.91,0,0,1,213.16,78.7Z" transform="translate(-42.97 -35.74)"/><path class="cls-2" d="M220.13,85.68a11,11,0,0,1-.14-2.5,10.93,10.93,0,0,1,.14-2.49,10.93,10.93,0,0,1,.14,2.49A11,11,0,0,1,220.13,85.68Z" transform="translate(-42.97 -35.74)"/><path class="cls-2" d="M230.87,82.36A7.23,7.23,0,0,1,228.81,81a7.32,7.32,0,0,1-1.67-1.84A21.55,21.55,0,0,1,229,80.74,24.12,24.12,0,0,1,230.87,82.36Z" transform="translate(-42.97 -35.74)"/><path class="cls-2" d="M235.9,76.93a8.4,8.4,0,0,1-1.64-1.45,9.18,9.18,0,0,1-1.46-1.65,17.06,17.06,0,0,1,3.1,3.1Z" transform="translate(-42.97 -35.74)"/><path class="cls-2" d="M206.9,59.61a7,7,0,0,1-1.45-1.26,6.76,6.76,0,0,1-1.26-1.46,6.76,6.76,0,0,1,1.46,1.26A6.24,6.24,0,0,1,206.9,59.61Z" transform="translate(-42.97 -35.74)"/><path class="cls-2" d="M213.12,53.06a7,7,0,0,1-1.43-1.23,6.16,6.16,0,0,1-1.23-1.42,6.42,6.42,0,0,1,1.43,1.22A6,6,0,0,1,213.12,53.06Z" transform="translate(-42.97 -35.74)"/></g></svg>