<svg xmlns="http://www.w3.org/2000/svg" viewBox="0 0 500 500"><g id="freepik--background-complete--inject-12"><rect y="382.4" width="500" height="0.25" style="fill:#ebebeb"></rect><rect x="416.78" y="398.49" width="33.12" height="0.25" style="fill:#ebebeb"></rect><rect x="322.53" y="401.21" width="8.69" height="0.25" style="fill:#ebebeb"></rect><rect x="396.59" y="389.21" width="19.19" height="0.25" style="fill:#ebebeb"></rect><rect x="52.46" y="390.89" width="43.19" height="0.25" style="fill:#ebebeb"></rect><rect x="104.56" y="390.89" width="6.33" height="0.25" style="fill:#ebebeb"></rect><rect x="131.47" y="395.11" width="93.68" height="0.25" style="fill:#ebebeb"></rect><path d="M237,337.8H43.91a5.71,5.71,0,0,1-5.7-5.71V60.66A5.71,5.71,0,0,1,43.91,55H237a5.71,5.71,0,0,1,5.71,5.71V332.09A5.71,5.71,0,0,1,237,337.8ZM43.91,55.2a5.46,5.46,0,0,0-5.45,5.46V332.09a5.46,5.46,0,0,0,5.45,5.46H237a5.47,5.47,0,0,0,5.46-5.46V60.66A5.47,5.47,0,0,0,237,55.2Z" style="fill:#ebebeb"></path><path d="M453.31,337.8H260.21a5.72,5.72,0,0,1-5.71-5.71V60.66A5.72,5.72,0,0,1,260.21,55h193.1A5.71,5.71,0,0,1,459,60.66V332.09A5.71,5.71,0,0,1,453.31,337.8ZM260.21,55.2a5.47,5.47,0,0,0-5.46,5.46V332.09a5.47,5.47,0,0,0,5.46,5.46h193.1a5.47,5.47,0,0,0,5.46-5.46V60.66a5.47,5.47,0,0,0-5.46-5.46Z" style="fill:#ebebeb"></path><rect x="182.07" y="82.92" width="95.18" height="214.41" transform="translate(459.31 380.25) rotate(180)" style="fill:#ebebeb"></rect><rect x="126.47" y="146.13" width="206.37" height="88" transform="translate(419.78 -39.53) rotate(90)" style="fill:#fafafa"></rect><rect x="228.65" y="85.91" width="2.02" height="209.41" transform="translate(459.31 381.23) rotate(180)" style="fill:#f5f5f5"></rect><rect x="179.87" y="80.13" width="99.57" height="10.09" transform="translate(459.31 170.35) rotate(180)" style="fill:#e0e0e0"></rect><rect x="179.87" y="91.34" width="99.57" height="1.2" transform="translate(459.31 183.87) rotate(180)" style="fill:#f5f5f5"></rect><rect x="179.87" y="94.05" width="99.57" height="1.2" transform="translate(459.31 189.3) rotate(180)" style="fill:#f5f5f5"></rect><rect x="179.87" y="96.77" width="99.57" height="1.2" transform="translate(459.31 194.73) rotate(180)" style="fill:#f5f5f5"></rect><rect x="179.87" y="99.48" width="99.57" height="1.2" transform="translate(459.31 200.16) rotate(180)" style="fill:#f5f5f5"></rect><rect x="179.87" y="102.2" width="99.57" height="1.2" transform="translate(459.31 205.59) rotate(180)" style="fill:#f5f5f5"></rect><rect x="179.87" y="104.91" width="99.57" height="1.2" transform="translate(459.31 211.02) rotate(180)" style="fill:#f5f5f5"></rect><rect x="179.87" y="107.63" width="99.57" height="1.2" transform="translate(459.31 216.45) rotate(180)" style="fill:#f5f5f5"></rect><rect x="179.87" y="110.34" width="99.57" height="1.2" transform="translate(459.31 221.88) rotate(180)" style="fill:#f5f5f5"></rect><rect x="179.87" y="113.06" width="99.57" height="1.2" transform="translate(459.31 227.31) rotate(180)" style="fill:#f5f5f5"></rect><rect x="179.87" y="115.77" width="99.57" height="1.2" transform="translate(459.31 232.73) rotate(180)" style="fill:#f5f5f5"></rect><rect x="179.87" y="118.48" width="99.57" height="1.2" transform="translate(459.31 238.16) rotate(180)" style="fill:#f5f5f5"></rect><rect x="179.87" y="121.2" width="99.57" height="1.2" transform="translate(459.31 243.59) rotate(180)" style="fill:#f5f5f5"></rect><rect x="179.87" y="123.91" width="99.57" height="1.2" transform="translate(459.31 249.02) rotate(180)" style="fill:#f5f5f5"></rect><rect x="179.87" y="126.63" width="99.57" height="1.2" transform="translate(459.31 254.45) rotate(180)" style="fill:#f5f5f5"></rect><rect x="179.87" y="129.34" width="99.57" height="1.2" transform="translate(459.31 259.88) rotate(180)" style="fill:#f5f5f5"></rect><rect x="179.87" y="132.06" width="99.57" height="1.2" transform="translate(459.31 265.31) rotate(180)" style="fill:#f5f5f5"></rect><rect x="179.87" y="134.77" width="99.57" height="1.2" transform="translate(459.31 270.74) rotate(180)" style="fill:#f5f5f5"></rect><rect x="179.87" y="137.49" width="99.57" height="1.2" transform="translate(459.31 276.17) rotate(180)" style="fill:#f5f5f5"></rect><rect x="69.38" y="82.92" width="95.18" height="214.41" transform="translate(233.95 380.25) rotate(180)" style="fill:#ebebeb"></rect><rect x="13.79" y="146.13" width="206.37" height="88" transform="translate(307.1 73.15) rotate(90)" style="fill:#fafafa"></rect><rect x="115.96" y="85.91" width="2.02" height="209.41" transform="translate(233.95 381.23) rotate(180)" style="fill:#f5f5f5"></rect><rect x="67.19" y="80.13" width="99.57" height="10.09" transform="translate(233.95 170.35) rotate(180)" style="fill:#e0e0e0"></rect><rect x="67.19" y="91.34" width="99.57" height="1.2" transform="translate(233.95 183.87) rotate(180)" style="fill:#f5f5f5"></rect><rect x="67.19" y="94.05" width="99.57" height="1.2" transform="translate(233.95 189.3) rotate(180)" style="fill:#f5f5f5"></rect><rect x="67.19" y="96.77" width="99.57" height="1.2" transform="translate(233.95 194.73) rotate(180)" style="fill:#f5f5f5"></rect><rect x="67.19" y="99.48" width="99.57" height="1.2" transform="translate(233.95 200.16) rotate(180)" style="fill:#f5f5f5"></rect><rect x="67.19" y="102.2" width="99.57" height="1.2" transform="translate(233.95 205.59) rotate(180)" style="fill:#f5f5f5"></rect><rect x="67.19" y="104.91" width="99.57" height="1.2" transform="translate(233.95 211.02) rotate(180)" style="fill:#f5f5f5"></rect><rect x="67.19" y="107.63" width="99.57" height="1.2" transform="translate(233.95 216.45) rotate(180)" style="fill:#f5f5f5"></rect><rect x="67.19" y="110.34" width="99.57" height="1.2" transform="translate(233.95 221.88) rotate(180)" style="fill:#f5f5f5"></rect><rect x="67.19" y="113.06" width="99.57" height="1.2" transform="translate(233.95 227.31) rotate(180)" style="fill:#f5f5f5"></rect><rect x="67.19" y="115.77" width="99.57" height="1.2" transform="translate(233.95 232.73) rotate(180)" style="fill:#f5f5f5"></rect><rect x="67.19" y="118.48" width="99.57" height="1.2" transform="translate(233.95 238.16) rotate(180)" style="fill:#f5f5f5"></rect><rect x="67.19" y="121.2" width="99.57" height="1.2" transform="translate(233.95 243.59) rotate(180)" style="fill:#f5f5f5"></rect><rect x="67.19" y="123.91" width="99.57" height="1.2" transform="translate(233.95 249.02) rotate(180)" style="fill:#f5f5f5"></rect><rect x="67.19" y="126.63" width="99.57" height="1.2" transform="translate(233.95 254.45) rotate(180)" style="fill:#f5f5f5"></rect><rect x="67.19" y="129.34" width="99.57" height="1.2" transform="translate(233.95 259.88) rotate(180)" style="fill:#f5f5f5"></rect><rect x="67.19" y="132.06" width="99.57" height="1.2" transform="translate(233.95 265.31) rotate(180)" style="fill:#f5f5f5"></rect><rect x="67.19" y="134.77" width="99.57" height="1.2" transform="translate(233.95 270.74) rotate(180)" style="fill:#f5f5f5"></rect><rect x="67.19" y="137.49" width="99.57" height="1.2" transform="translate(233.95 276.17) rotate(180)" style="fill:#f5f5f5"></rect><rect x="326.4" y="67.54" width="93.07" height="119.76" transform="translate(500.35 -245.51) rotate(90)" style="fill:#e0e0e0"></rect><rect x="314.71" y="82.55" width="116.44" height="89.75" style="fill:#ebebeb"></rect><rect x="374.37" y="98.76" width="1.04" height="12.52" style="fill:#e0e0e0"></rect><polygon points="403.86 151.56 402.82 151.56 402.82 111.79 351.04 111.79 351.04 134.38 350 134.38 350 110.76 403.86 110.76 403.86 151.56" style="fill:#e0e0e0"></polygon><polygon points="335.66 147.12 334.63 147.12 334.63 133.87 364.7 133.87 364.7 146.69 363.67 146.69 363.67 134.9 335.66 134.9 335.66 147.12" style="fill:#e0e0e0"></polygon><rect x="361.53" y="94.16" width="26.71" height="9.2" transform="translate(749.77 197.52) rotate(180)" style="fill:#f5f5f5"></rect><rect x="337.39" y="116.23" width="25.46" height="9.99" transform="translate(700.25 242.44) rotate(180)" style="fill:#f5f5f5"></rect><rect x="355.44" y="141.53" width="17.49" height="10.31" transform="translate(728.37 293.37) rotate(180)" style="fill:#f5f5f5"></rect><rect x="325.78" y="143.2" width="18.73" height="7.83" transform="translate(670.29 294.23) rotate(180)" style="fill:#f5f5f5"></rect><rect x="386.7" y="118.34" width="28.93" height="13.35" transform="translate(802.34 250.03) rotate(180)" style="fill:#f5f5f5"></rect><rect x="394.11" y="146.69" width="18.47" height="9.75" transform="translate(806.69 303.13) rotate(180)" style="fill:#f5f5f5"></rect><rect x="372.06" y="108.78" width="5.64" height="5.64" transform="translate(718.88 -74.57) rotate(135)" style="fill:#f5f5f5"></rect><rect x="347.7" y="131.56" width="5.64" height="5.64" transform="translate(693.4 -18.44) rotate(135)" style="fill:#f5f5f5"></rect><path d="M376.83,332.32c0-.41,1.39-41.07,8-47.5,6.43-6.26,13.81-.24,14.12,0l.66-.79c-.08-.07-8.41-6.87-15.51,0-6.91,6.72-8.26,46.52-8.31,48.21Z" style="fill:#e0e0e0"></path><path d="M376.26,340.31c.05-.49,4.52-48.82-13.12-69.07l-.79.68c17.36,19.92,12.93,67.8,12.88,68.29Z" style="fill:#e0e0e0"></path><path d="M376.92,335.19l1-.06c0-.55-3.45-54.94,9.49-66.85l-.7-.76C373.43,279.76,376.77,332.94,376.92,335.19Z" style="fill:#e0e0e0"></path><path d="M375.23,335.16h1c0-1.5-.43-36.74-10.44-42.48a7.07,7.07,0,0,0-6.48-.63c-6.05,2.5-9.05,13.27-9.18,13.73l1,.27c0-.1,3-10.74,8.58-13.05a6.11,6.11,0,0,1,5.56.58C374.81,299,375.23,334.8,375.23,335.16Z" style="fill:#e0e0e0"></path><path d="M379.13,335.19l1-.06c0-.28-1.51-27.85,5.93-37.56,1.81-2.36,3.76-3.48,5.83-3.33,4.88.34,9,7.47,9,7.54l.9-.51c-.18-.31-4.4-7.69-9.84-8.07-2.42-.17-4.69,1.09-6.72,3.74C377.6,307,379.06,334,379.13,335.19Z" style="fill:#e0e0e0"></path><path d="M377.5,338.94c.2-2.67,4.86-65.63-3.34-76.72l-.83.61c8,10.79,3.18,75.38,3.14,76Z" style="fill:#e0e0e0"></path><path d="M357.12,298.43s4.92,1.81,3.46,6.09-17,11.34-17,11.34-6.52-6-.54-15.69S357,295.36,357.12,298.43Z" style="fill:#ebebeb"></path><path d="M378.51,290.28s-5.24-.22-5.54,4.29,11.36,17,11.36,17,8.31-3,6.52-14.27S379.81,287.5,378.51,290.28Z" style="fill:#ebebeb"></path><path d="M383,268.66s-3.5-.38-3.21-2.5,13.58-7.61,21.42,1.25c0,0-5,8.63-12.28,8.74S383,268.66,383,268.66Z" style="fill:#ebebeb"></path><path d="M376.44,263.49s3.16,1.53,4.05-.42S373,249.43,361.64,252.8c0,0-.3,10,5.81,13.92S376.44,263.49,376.44,263.49Z" style="fill:#ebebeb"></path><path d="M393,296.71s-2.41-1.95.19-2.9,15.37-.68,15.5,12c0,0-14.87,2.47-16.71-2.35S393,296.71,393,296.71Z" style="fill:#ebebeb"></path><path d="M362.66,268.34s2.41-1.94-.19-2.89-15.37-.68-15.51,12c0,0,14.87,2.47,16.71-2.34S362.66,268.34,362.66,268.34Z" style="fill:#ebebeb"></path><path d="M370.52,278.53s.21-2.37-1.7-1.44-8.57,8.11-1.67,14.92c0,0,9.29-6.88,7.61-10.46S370.52,278.53,370.52,278.53Z" style="fill:#ebebeb"></path><path d="M395.13,281.9s-1.44-1.89.67-2.12,11.57,2.29,9.37,11.73c0,0-11.52-.86-12-4.79S395.13,281.9,395.13,281.9Z" style="fill:#ebebeb"></path><polygon points="356.2 370.22 395.74 370.22 400.01 326.93 351.94 326.93 356.2 370.22" style="fill:#f0f0f0"></polygon><rect x="349.82" y="322.15" width="52.29" height="9.55" transform="translate(751.94 653.85) rotate(180)" style="fill:#e6e6e6"></rect></g><g id="freepik--Shadow--inject-12"><ellipse id="freepik--path--inject-12" cx="250" cy="416.24" rx="193.89" ry="11.32" style="fill:#f5f5f5"></ellipse></g><g id="freepik--icon-2--inject-12"><circle cx="359.09" cy="143.01" r="29.49" transform="translate(4.06 295.8) rotate(-45)" style="fill:#4BDD72"></circle><circle cx="359.09" cy="143.01" r="29.49" transform="translate(4.06 295.8) rotate(-45)" style="fill:#fff;opacity:0.5"></circle><polygon points="374.45 122.06 374.45 157.75 368.24 163.96 343.74 163.96 343.74 122.06 374.45 122.06" style="fill:#263238"></polygon><polygon points="374.45 122.06 374.45 157.75 368.24 163.96 343.74 163.96 343.74 122.06 374.45 122.06" style="fill:#fff;opacity:0.9"></polygon><polygon points="374.45 157.75 368.24 163.96 368.24 157.75 374.45 157.75" style="isolation:isolate;opacity:0.2"></polygon><g style="isolation:isolate;opacity:0.2"><rect x="350.97" y="126.89" width="19.79" height="1.18"></rect><rect x="347.44" y="129.84" width="23.32" height="1.18"></rect><rect x="347.44" y="132.79" width="23.32" height="1.18"></rect><rect x="347.44" y="135.74" width="8.02" height="1.18"></rect><rect x="350.97" y="138.69" width="19.79" height="1.18"></rect><rect x="347.44" y="141.64" width="23.32" height="1.18"></rect><rect x="347.44" y="144.59" width="23.32" height="1.18"></rect><rect x="347.44" y="147.54" width="23.32" height="1.18"></rect><rect x="347.44" y="150.49" width="23.32" height="1.18"></rect><rect x="347.44" y="153.44" width="15.08" height="1.18"></rect></g><path d="M359.06,176a32.72,32.72,0,0,1-9.43-1.39l.3-1a31.84,31.84,0,0,0,12.54,1.16l.11,1A34.28,34.28,0,0,1,359.06,176Zm5.68-.49-.18-1a32.26,32.26,0,0,0,5.11-1.33l.34,1A34,34,0,0,1,364.74,175.52Zm-20.18-2.89c-.65-.32-1.3-.67-1.92-1l.52-.9c.61.35,1.23.69,1.86,1Zm36.64-5.12-.7-.77c.52-.47,1-1,1.52-1.47l.75.73C382.26,166.52,381.73,167,381.2,167.51ZM332.86,163a32.76,32.76,0,0,1-2.93-4.59l.92-.49a31.68,31.68,0,0,0,2.84,4.45Zm53.36-1.24-.85-.6c.49-.71,1-1.45,1.4-2.21a31.77,31.77,0,0,0,3.59-9.35l1,.22a33.15,33.15,0,0,1-3.71,9.65C387.22,160.29,386.73,161.05,386.22,161.79ZM329,156.48a33.07,33.07,0,0,1-2.87-12.68l1,0a31.92,31.92,0,0,0,2.77,12.28Zm62.79-8.78-1-.15a32.46,32.46,0,0,0,.32-4.51c0-.25,0-.5,0-.75l1,0c0,.26,0,.52,0,.78A33.09,33.09,0,0,1,391.76,147.7Zm-64.31-9.2-1-.14c.1-.72.23-1.44.38-2.15l1,.21C327.67,137.11,327.55,137.81,327.45,138.5Zm60.83-8.5c-.28-.64-.59-1.28-.92-1.9l.92-.49c.34.64.66,1.3,1,2Zm-55.49-5.14-.85-.6a33.16,33.16,0,0,1,3.45-4.21l.75.72A32.12,32.12,0,0,0,332.79,124.86Zm51.74-1.21a31.73,31.73,0,0,0-9.46-8.32l.18-.49.26-.45-.26.45.34-.41a32.86,32.86,0,0,1,9.77,8.59Zm-46.88-4.35-.7-.77a32.89,32.89,0,0,1,11.18-6.65l.35,1A31.91,31.91,0,0,0,337.65,119.3Zm35.48-5a31.38,31.38,0,0,0-4.92-1.93l.3-1a31.9,31.9,0,0,1,5.07,2Zm-19.55-2.77-.18-1c.72-.13,1.44-.23,2.16-.31l.11,1C355,111.31,354.27,111.41,353.58,111.53Z" style="fill:#4BDD72"></path><polygon points="333.69 208.49 332.95 207.75 357.91 182.79 357.91 175.48 358.95 175.48 358.95 183.22 333.69 208.49" style="fill:#4BDD72"></polygon><path d="M331.85,212.17a2.59,2.59,0,0,1-1.83-4.42,2.59,2.59,0,1,1,1.83,4.42Zm0-4.13a1.55,1.55,0,1,0,1.1.45A1.55,1.55,0,0,0,331.85,208Z" style="fill:#4BDD72"></path></g><g id="freepik--icon-1--inject-12"><circle cx="163.55" cy="97.78" r="29.49" transform="translate(-21.24 144.28) rotate(-45)" style="fill:#4BDD72"></circle><circle cx="163.55" cy="97.78" r="29.49" transform="translate(-21.24 144.28) rotate(-45)" style="fill:#fff;opacity:0.5"></circle><path d="M163.52,130.78a32.73,32.73,0,0,1-9.44-1.38l.3-1a31.84,31.84,0,0,0,12.54,1.16l.11,1A34.23,34.23,0,0,1,163.52,130.78Zm5.67-.49-.18-1a32.26,32.26,0,0,0,5.11-1.33l.34,1A32.91,32.91,0,0,1,169.19,130.29ZM149,127.41c-.65-.32-1.29-.67-1.92-1l.52-.9q.91.52,1.86,1Zm36.64-5.12-.7-.77c.52-.47,1-1,1.52-1.47l.75.73C186.71,121.3,186.18,121.81,185.65,122.29Zm-48.34-4.48a32.76,32.76,0,0,1-2.93-4.59l.92-.49a32.27,32.27,0,0,0,2.84,4.45Zm53.37-1.25-.86-.59c.49-.71,1-1.45,1.4-2.21a31.77,31.77,0,0,0,3.59-9.35l1,.22a33.15,33.15,0,0,1-3.71,9.65C191.67,115.06,191.18,115.83,190.68,116.56Zm-57.26-5.3a32.89,32.89,0,0,1-2.86-12.69l1,0a31.75,31.75,0,0,0,2.78,12.28Zm62.79-8.78-1-.15a31,31,0,0,0,.32-4.52v-.75l1,0c0,.26,0,.52,0,.77A33.13,33.13,0,0,1,196.21,102.48Zm-64.31-9.2-1-.14c.1-.72.23-1.44.38-2.15l1,.21C132.12,91.89,132,92.59,131.9,93.28Zm60.83-8.5c-.28-.65-.59-1.29-.92-1.9l.92-.49c.34.64.66,1.3,1,2Zm-55.48-5.15-.86-.59a33.16,33.16,0,0,1,3.45-4.21l.75.72A31.12,31.12,0,0,0,137.25,79.63ZM189,78.43a31.73,31.73,0,0,0-9.46-8.32l.44-1,.08,0a32.86,32.86,0,0,1,9.77,8.59ZM142.1,74.08l-.69-.77a32.75,32.75,0,0,1,11.17-6.65l.35,1A31.75,31.75,0,0,0,142.1,74.08Zm35.48-5a32.35,32.35,0,0,0-4.92-1.92l.3-1a32.93,32.93,0,0,1,5.07,2ZM158,66.31l-.18-1c.72-.12,1.44-.23,2.16-.3l.11,1C159.43,66.09,158.72,66.19,158,66.31Z" style="fill:#4BDD72"></path><path d="M163.55,147.1a2.62,2.62,0,0,1-1.84-.76,2.59,2.59,0,1,1,3.67,0A2.62,2.62,0,0,1,163.55,147.1Zm0-4.14a1.55,1.55,0,1,0,1.09.45A1.55,1.55,0,0,0,163.55,143Z" style="fill:#4BDD72"></path><rect x="163.02" y="130.22" width="1.04" height="12.22" style="fill:#4BDD72"></rect><path d="M170.9,111.56a7.07,7.07,0,0,1-14.06,1.08,6.38,6.38,0,0,1-.09-1.08,7.07,7.07,0,0,1,7-7.08h.07A7.07,7.07,0,0,1,170.9,111.56Z" style="fill:#fff;opacity:0.9"></path><path d="M170.1,111.56a6.28,6.28,0,1,1-6.27-6.28A6.28,6.28,0,0,1,170.1,111.56Z" style="isolation:isolate;opacity:0.1"></path><text transform="translate(161.57 113.7)" style="font-size:7.278180122375488px;fill:#fff;font-family:Montserrat-Medium, Montserrat;font-weight:500">$</text><path d="M163.76,104.48a9,9,0,0,1-.36,1.73,9.68,9.68,0,0,1-6.56,6.43,6.38,6.38,0,0,1-.09-1.08A7.07,7.07,0,0,1,163.76,104.48Z" style="isolation:isolate;opacity:0.1"></path><path d="M163.83,100.94a9.67,9.67,0,1,1-9.66-9.66,9.64,9.64,0,0,1,9.66,9.66Z" style="fill:#fff;opacity:0.9"></path><path d="M162.73,100.94a8.57,8.57,0,1,1-8.57-8.57A8.57,8.57,0,0,1,162.73,100.94Z" style="isolation:isolate;opacity:0.1"></path><text transform="translate(151.08 103.86)" style="font-size:9.935270309448242px;fill:#fff;font-family:Montserrat-Medium, Montserrat;font-weight:500">$</text><path d="M163.83,100.94a9.59,9.59,0,0,1-.43,2.85,12.16,12.16,0,0,1-5.76-11.87A9.69,9.69,0,0,1,163.83,100.94Z" style="isolation:isolate;opacity:0.1"></path><path d="M182.46,91.2A12.16,12.16,0,1,1,170.3,79.05,12.15,12.15,0,0,1,182.46,91.2Z" style="fill:#fff;opacity:0.9"></path><path d="M181.09,91.2A10.79,10.79,0,1,1,170.3,80.42,10.78,10.78,0,0,1,181.09,91.2Z" style="isolation:isolate;opacity:0.1"></path><text transform="translate(166.42 94.87)" style="font-size:12.497739791870117px;fill:#fff;font-family:Montserrat-Medium, Montserrat;font-weight:500">$</text></g><g id="freepik--Cabinet--inject-12"><rect x="344.65" y="217.48" width="85.7" height="198.41" style="fill:#4BDD72"></rect><rect x="344.65" y="217.48" width="85.7" height="198.41" style="fill:#fff;opacity:0.5"></rect><path d="M344.65,217.48V415.89h48.89V217.48Zm45.6,191.41H347.81V373.94h42.44Zm0-38.21H347.81V335.73h42.44Zm0-38.22H347.81V297.51h42.44Zm0-38.21H347.81V259.3h42.44Zm0-38.22H347.81V221.08h42.44Z" style="fill:#fff;opacity:0.2"></path><rect x="347.81" y="259.3" width="42.44" height="19.67" style="isolation:isolate;opacity:0.2"></rect><polygon points="390.25 290.26 344.65 323.63 344.24 291.77 390.25 290.26" style="isolation:isolate;opacity:0.2"></polygon><path d="M361.56,236.53a1,1,0,0,0-1,.95v3.61h1v-.72a1,1,0,0,1,.95-1h10.3a1,1,0,0,1,.95,1v.72h1v-3.61a1,1,0,0,0-1-.95Z" style="fill:#4BDD72"></path><rect x="361.57" y="228.85" width="12.31" height="5.41" style="fill:#fff;opacity:0.2"></rect><path d="M361.56,313a1,1,0,0,0-1,1v3.62h1v-.73a1,1,0,0,1,.95-1h10.3a1,1,0,0,1,.95,1v.73h1V314a1,1,0,0,0-1-1Z" style="fill:#4BDD72"></path><rect x="361.57" y="305.36" width="12.31" height="5.41" style="fill:#fff;opacity:0.2"></rect><path d="M361.56,351a1,1,0,0,0-1,.95v3.61h1v-.72a1,1,0,0,1,.95-1h10.3a1,1,0,0,1,.95,1v.72h1V352a1,1,0,0,0-1-.95Z" style="fill:#4BDD72"></path><rect x="361.57" y="343.36" width="12.31" height="5.41" style="fill:#fff;opacity:0.2"></rect><path d="M361.56,388.42a1,1,0,0,0-1,1V393h1v-.73a1,1,0,0,1,.95-.95h10.3a1,1,0,0,1,.95.95V393h1v-3.61a1,1,0,0,0-1-1Z" style="fill:#4BDD72"></path><rect x="361.57" y="380.75" width="12.31" height="5.41" style="fill:#fff;opacity:0.2"></rect><path d="M390.25,263.64v23.49H357.43V265.21a1.55,1.55,0,0,1,1.57-1.57h17a1.57,1.57,0,0,0,1.46-1l.48-1.25,0-.06a.64.64,0,0,1,.61-.41h10.2a.64.64,0,0,1,.61.41Z" style="fill:#4BDD72"></path><path d="M387.5,264.1v23H357.43V265.21a1.57,1.57,0,0,1,.45-1.11h15.35a1.54,1.54,0,0,0,1.11-.46H376a1.57,1.57,0,0,0,1.46-1l.48-1.25H386a.65.65,0,0,1,.62.42Z" style="isolation:isolate;opacity:0.2"></path><path d="M385.5,265.28v23.5H352.69V266.86a1.55,1.55,0,0,1,.44-1.11,1.6,1.6,0,0,1,1.13-.47h17a1.55,1.55,0,0,0,1.45-1l.48-1.25,0,0a.67.67,0,0,1,.62-.41H384a.67.67,0,0,1,.62.41Z" style="fill:#4BDD72"></path><path d="M382.75,265.75v23H352.69V266.86a1.55,1.55,0,0,1,.44-1.11h15.36a1.53,1.53,0,0,0,1.11-.47h1.65a1.55,1.55,0,0,0,1.45-1l.48-1.25h8.07a.68.68,0,0,1,.63.43Z" style="isolation:isolate;opacity:0.2"></path><path d="M380.76,266.93v23.5H347.94V268.5a1.55,1.55,0,0,1,.45-1.1,1.57,1.57,0,0,1,1.12-.47h17a1.56,1.56,0,0,0,1.46-1l.48-1.25,0-.05a.65.65,0,0,1,.61-.42h10.2a.65.65,0,0,1,.61.42Z" style="fill:#4BDD72"></path><path d="M378,267.4v23H347.94V268.5a1.55,1.55,0,0,1,.45-1.1h15.35a1.59,1.59,0,0,0,1.12-.47h1.64a1.56,1.56,0,0,0,1.46-1l.48-1.25h8.07a.66.66,0,0,1,.62.43Z" style="isolation:isolate;opacity:0.2"></path><path d="M376,268.58v23.5H343.2V270.15a1.51,1.51,0,0,1,.45-1.1,1.55,1.55,0,0,1,1.12-.47h17a1.56,1.56,0,0,0,1.45-1l.48-1.25,0-.05a.68.68,0,0,1,.62-.42h10.19a.65.65,0,0,1,.62.42Z" style="fill:#4BDD72"></path><path d="M373.26,269.05v23H343.2V270.15a1.51,1.51,0,0,1,.45-1.1H359a1.57,1.57,0,0,0,1.11-.47h1.65a1.56,1.56,0,0,0,1.45-1l.48-1.25h8.08a.66.66,0,0,1,.62.43Z" style="isolation:isolate;opacity:0.2"></path><path d="M371.27,270.23v23.49H338.45V271.8a1.53,1.53,0,0,1,.45-1.1,1.58,1.58,0,0,1,1.13-.47h17a1.57,1.57,0,0,0,1.46-1L359,268l0-.05a.65.65,0,0,1,.61-.42h10.2a.65.65,0,0,1,.61.42Z" style="fill:#4BDD72"></path><path d="M368.52,270.7v23H338.45V271.8a1.53,1.53,0,0,1,.45-1.1h15.35a1.57,1.57,0,0,0,1.12-.47H357a1.57,1.57,0,0,0,1.46-1L359,268H367a.68.68,0,0,1,.63.43Z" style="isolation:isolate;opacity:0.2"></path><polygon points="361.27 281.33 390.25 271.03 390.25 289.22 364.29 299.74 361.27 281.33" style="fill:#4BDD72"></polygon><polygon points="361.27 281.33 390.25 271.03 390.25 289.22 364.29 299.74 361.27 281.33" style="fill:#fff;opacity:0.5"></polygon><polygon points="322.74 266.08 327.28 265.02 366.69 265.02 368.48 300.58 366.69 300.99 322.74 266.08" style="fill:#4BDD72"></polygon><polygon points="366.69 300.99 324.25 300.99 322.74 266.08 365.18 266.08 366.69 300.99" style="fill:#4BDD72"></polygon><polygon points="366.69 300.99 324.25 300.99 322.74 266.08 365.18 266.08 366.69 300.99" style="fill:#fff;opacity:0.5"></polygon><polygon points="366.69 265.02 365.18 266.08 322.74 266.08 327.28 265.02 366.69 265.02" style="fill:#fff;opacity:0.7000000000000001"></polygon><polygon points="366.69 265.02 368.48 300.58 366.69 300.99 365.18 266.08 366.69 265.02" style="fill:#fff;opacity:0.4"></polygon><path d="M337.52,282.19a.91.91,0,0,0-.91,1l.19,3.66h1l0-.74a.9.9,0,0,1,.9-1H349a1,1,0,0,1,1,1l0,.74h1l-.18-3.66a1,1,0,0,0-1-1Z" style="fill:#4BDD72"></path><polygon points="349.72 279.89 337.41 279.89 337.13 274.41 349.44 274.41 349.72 279.89" style="fill:#fff;opacity:0.2"></polygon></g><g id="freepik--Calculator--inject-12"><rect x="64" y="157.59" width="111.04" height="171.24" rx="7.53" style="fill:#263238"></rect><g style="isolation:isolate;opacity:0.2"><path d="M64,203.33V321a7.84,7.84,0,0,0,7.85,7.84h95.34A7.85,7.85,0,0,0,175,321V203.33Z" style="fill:#fff"></path></g><rect x="74.63" y="237.46" width="18.13" height="11.61" rx="1.22" style="fill:#263238"></rect><rect x="98.52" y="237.46" width="18.13" height="11.61" rx="1.22" style="fill:#263238"></rect><rect x="122.42" y="237.46" width="18.13" height="11.61" rx="1.22" style="fill:#263238"></rect><rect x="146.31" y="237.46" width="18.13" height="11.61" rx="1.22" style="fill:#263238"></rect><rect x="146.31" y="209.22" width="18.13" height="11.61" rx="1.22" style="fill:#263238"></rect><rect x="122" y="209.22" width="18.13" height="11.61" rx="1.22" style="fill:#263238"></rect><g style="isolation:isolate;opacity:0.30000000000000004"><rect x="74.6" y="225.89" width="10.84" height="6.4" rx="1.22" style="fill:#fff"></rect></g><g style="isolation:isolate;opacity:0.30000000000000004"><rect x="90.4" y="225.89" width="10.84" height="6.4" rx="1.22" style="fill:#fff"></rect></g><g style="isolation:isolate;opacity:0.30000000000000004"><rect x="106.2" y="225.89" width="10.84" height="6.4" rx="1.22" style="fill:#fff"></rect></g><g style="isolation:isolate;opacity:0.30000000000000004"><rect x="122" y="225.89" width="10.84" height="6.4" rx="1.22" style="fill:#fff"></rect></g><g style="isolation:isolate;opacity:0.30000000000000004"><rect x="137.8" y="225.89" width="10.84" height="6.4" rx="1.22" style="fill:#fff"></rect></g><g style="isolation:isolate;opacity:0.30000000000000004"><rect x="153.6" y="225.89" width="10.84" height="6.4" rx="1.22" style="fill:#fff"></rect></g><g style="isolation:isolate;opacity:0.2"><rect x="74.6" y="209.22" width="5.42" height="11.61"></rect></g><g style="isolation:isolate;opacity:0.2"><rect x="80.98" y="209.22" width="5.42" height="11.61"></rect></g><g style="isolation:isolate;opacity:0.2"><rect x="87.37" y="209.22" width="5.42" height="11.61"></rect></g><g style="isolation:isolate;opacity:0.2"><rect x="93.75" y="209.22" width="5.42" height="11.61"></rect></g><g style="isolation:isolate;opacity:0.2"><rect x="100.14" y="209.22" width="5.42" height="11.61"></rect></g><g style="isolation:isolate;opacity:0.2"><rect x="106.53" y="209.22" width="5.42" height="11.61"></rect></g><rect x="74.63" y="253.61" width="18.13" height="11.61" rx="1.22" style="fill:#263238"></rect><rect x="98.52" y="253.61" width="18.13" height="11.61" rx="1.22" style="fill:#263238"></rect><rect x="122.42" y="253.61" width="18.13" height="11.61" rx="1.22" style="fill:#263238"></rect><rect x="146.31" y="253.61" width="18.13" height="11.61" rx="1.22" style="fill:#263238"></rect><rect x="74.63" y="269.75" width="18.13" height="11.61" rx="1.22" style="fill:#263238"></rect><rect x="98.52" y="269.75" width="18.13" height="11.61" rx="1.22" style="fill:#263238"></rect><rect x="122.42" y="269.75" width="18.13" height="11.61" rx="1.22" style="fill:#263238"></rect><rect x="146.31" y="269.75" width="18.13" height="11.61" rx="1.22" style="fill:#263238"></rect><rect x="74.63" y="285.9" width="18.13" height="11.61" rx="1.22" style="fill:#263238"></rect><rect x="98.52" y="285.9" width="18.13" height="11.61" rx="1.22" style="fill:#263238"></rect><rect x="122.42" y="285.9" width="18.13" height="11.61" rx="1.22" style="fill:#263238"></rect><rect x="74.63" y="302.04" width="18.13" height="11.61" rx="1.22" style="fill:#263238"></rect><rect x="98.52" y="302.04" width="18.13" height="11.61" rx="1.22" style="fill:#263238"></rect><rect x="122.42" y="302.04" width="18.13" height="11.61" rx="1.22" style="fill:#263238"></rect><path d="M163.17,285.9H147.58a1.26,1.26,0,0,0-1.27,1.26v25.22a1.27,1.27,0,0,0,1.27,1.27h15.59a1.27,1.27,0,0,0,1.27-1.27V287.16A1.26,1.26,0,0,0,163.17,285.9Z" style="fill:#263238"></path><g style="isolation:isolate;opacity:0.4"><rect x="74.6" y="172.43" width="89.84" height="22.07" style="fill:#fff"></rect></g><path d="M94.81,192.24v1.42H94v-1.42a5,5,0,0,1-3-1.08l.46-1a4.33,4.33,0,0,0,2.58,1v-2.9c-1.38-.33-2.83-.77-2.83-2.47,0-1.24.89-2.31,2.83-2.47v-1.43h.79v1.42a4.94,4.94,0,0,1,2.54.76l-.41,1a4.41,4.41,0,0,0-2.13-.7v2.91c1.4.35,2.9.76,2.9,2.47C97.71,191,96.79,192.08,94.81,192.24ZM94,187.1v-2.7c-1.12.14-1.6.7-1.6,1.36S93.12,186.86,94,187.1Zm2.47,2.75c0-.8-.75-1.12-1.68-1.37v2.69C96,191.06,96.49,190.52,96.49,189.85Z" style="fill:#263238"></path><path d="M101.41,183.41v8.75h-1.23V184.5h-2v-1.09Z" style="fill:#263238"></path><path d="M109.31,189.58c0,1.48-1.09,2.68-3.31,2.68a4.92,4.92,0,0,1-3.21-1.07l.58-1a3.91,3.91,0,0,0,2.63.93c1.31,0,2.06-.59,2.06-1.54s-.66-1.53-2.16-1.53h-.7v-.87l2.2-2.7h-4.21v-1.09H109v.85l-2.28,2.83C108.42,187.25,109.31,188.23,109.31,189.58Z" style="fill:#263238"></path><path d="M110.45,191.37a.84.84,0,0,1,.85-.85.82.82,0,0,1,.82.85.83.83,0,0,1-.82.86A.85.85,0,0,1,110.45,191.37Z" style="fill:#263238"></path><path d="M119.42,189.58c0,1.48-1.09,2.68-3.31,2.68a4.92,4.92,0,0,1-3.21-1.07l.58-1a3.91,3.91,0,0,0,2.63.93c1.31,0,2.06-.59,2.06-1.54s-.66-1.53-2.16-1.53h-.7v-.87l2.2-2.7H113.3v-1.09h5.77v.85l-2.28,2.83C118.53,187.25,119.42,188.23,119.42,189.58Z" style="fill:#263238"></path><path d="M127.09,187.67c0,3-1.68,4.59-4.13,4.59a4.2,4.2,0,0,1-2.17-.52l.47-1a3.08,3.08,0,0,0,1.69.41c1.77,0,2.89-1.11,2.89-3.29v-.32a2.91,2.91,0,0,1-2.52,1.15,2.69,2.69,0,0,1-3-2.65,2.81,2.81,0,0,1,3.08-2.76C125.77,183.31,127.09,184.89,127.09,187.67ZM125.56,186c0-.9-.73-1.69-2.09-1.69a1.72,1.72,0,0,0-1.92,1.7c0,1,.76,1.69,2,1.69A1.83,1.83,0,0,0,125.56,186Z" style="fill:#263238"></path><path d="M134.41,191.07v1.09h-6.29v-.85l3.56-3.44c.93-.9,1.1-1.45,1.1-2,0-.9-.64-1.45-1.86-1.45a2.75,2.75,0,0,0-2.24,1l-.84-.73a4,4,0,0,1,3.19-1.33c1.83,0,3,.94,3,2.44a3.54,3.54,0,0,1-1.44,2.75l-2.67,2.57Z" style="fill:#263238"></path><path d="M135.53,191.37a.84.84,0,0,1,.85-.85.83.83,0,0,1,.83.85.83.83,0,0,1-.83.86A.85.85,0,0,1,135.53,191.37Z" style="fill:#263238"></path><path d="M138.25,187.78c0-2.84,1.52-4.47,3.57-4.47s3.56,1.63,3.56,4.47-1.53,4.48-3.56,4.48S138.25,190.63,138.25,187.78Zm5.88,0c0-2.23-.95-3.36-2.31-3.36s-2.33,1.13-2.33,3.36.95,3.36,2.33,3.36S144.13,190,144.13,187.78Z" style="fill:#263238"></path><path d="M146.58,187.78c0-2.84,1.53-4.47,3.57-4.47s3.56,1.63,3.56,4.47-1.52,4.48-3.56,4.48S146.58,190.63,146.58,187.78Zm5.88,0c0-2.23-.94-3.36-2.31-3.36s-2.32,1.13-2.32,3.36.95,3.36,2.32,3.36S152.46,190,152.46,187.78Z" style="fill:#263238"></path><path d="M154.92,187.78c0-2.84,1.52-4.47,3.57-4.47s3.56,1.63,3.56,4.47-1.52,4.48-3.56,4.48S154.92,190.63,154.92,187.78Zm5.88,0c0-2.23-1-3.36-2.31-3.36s-2.32,1.13-2.32,3.36,1,3.36,2.32,3.36S160.8,190,160.8,187.78Z" style="fill:#263238"></path></g><g id="freepik--character-1--inject-12"><rect x="207.32" y="328.46" width="58.91" height="27.52" style="fill:#4BDD72"></rect><rect x="207.32" y="328.46" width="58.91" height="27.52" style="fill:#fff;isolation:isolate;opacity:0.6000000000000001"></rect><polygon points="266.23 332.58 224.08 332.58 266.23 333.81 266.23 332.58" style="isolation:isolate;opacity:0.2"></polygon><polygon points="216.12 336.66 255.12 336.19 216.12 337.89 216.12 336.66" style="isolation:isolate;opacity:0.2"></polygon><path d="M266.23,342c-1,.06-40.91.89-40.91.89l40.91,1.56Z" style="isolation:isolate;opacity:0.2"></path><polygon points="216.12 347.84 247.16 348.51 216.12 349.19 216.12 347.84" style="isolation:isolate;opacity:0.2"></polygon><polygon points="266.23 351.04 236.17 352.14 266.23 352.14 266.23 351.04" style="isolation:isolate;opacity:0.2"></polygon><polygon points="216.12 329.69 216.12 354.74 268.85 354.74 268.85 356.96 130.69 356.96 130.69 327.47 268.85 327.47 268.85 329.69 216.12 329.69" style="fill:#4BDD72"></polygon><polygon points="216.12 329.69 216.12 354.74 268.85 354.74 268.85 356.96 130.69 356.96 130.69 327.47 268.85 327.47 268.85 329.69 216.12 329.69" style="fill:#fff;isolation:isolate;opacity:0.2"></polygon><polygon points="216.12 329.69 216.12 354.74 268.85 354.74 268.85 356.96 212.24 356.96 212.24 327.47 268.85 327.47 268.85 329.69 216.12 329.69" style="isolation:isolate;opacity:0.2"></polygon><rect x="158.16" y="337.21" width="44.16" height="10.01" style="fill:#fff;isolation:isolate;opacity:0.6000000000000001"></rect><circle cx="146.02" cy="342.21" r="5.99" style="fill:#fff;isolation:isolate;opacity:0.6000000000000001"></circle><path d="M150.25,343.5a4.42,4.42,0,1,1-2.94-5.52A4.41,4.41,0,0,1,150.25,343.5Z" style="isolation:isolate;opacity:0.2"></path><rect x="218.77" y="357.94" width="58.91" height="27.52" style="fill:#4BDD72"></rect><rect x="218.77" y="357.94" width="58.91" height="27.52" style="fill:#fff;isolation:isolate;opacity:0.6000000000000001"></rect><polygon points="277.68 362.06 235.54 362.06 277.68 363.3 277.68 362.06" style="isolation:isolate;opacity:0.2"></polygon><polygon points="227.57 366.14 266.58 365.67 227.57 367.38 227.57 366.14" style="isolation:isolate;opacity:0.2"></polygon><path d="M277.68,371.48c-.94.06-40.91.88-40.91.88l40.91,1.57Z" style="isolation:isolate;opacity:0.2"></path><polygon points="227.57 377.33 258.61 377.99 227.57 378.68 227.57 377.33" style="isolation:isolate;opacity:0.2"></polygon><polygon points="277.68 380.52 247.62 381.62 277.68 381.62 277.68 380.52" style="isolation:isolate;opacity:0.2"></polygon><polygon points="227.57 359.18 227.57 384.22 280.3 384.22 280.3 386.44 142.15 386.44 142.15 356.96 280.3 356.96 280.3 359.18 227.57 359.18" style="fill:#263238"></polygon><polygon points="227.57 359.18 227.57 384.22 280.3 384.22 280.3 386.44 223.69 386.44 223.69 356.96 280.3 356.96 280.3 359.18 227.57 359.18" style="isolation:isolate;opacity:0.2"></polygon><rect x="169.62" y="366.69" width="44.16" height="10.01" style="fill:#fff;isolation:isolate;opacity:0.6000000000000001"></rect><path d="M163.46,371.7a6,6,0,1,1-6-6A6,6,0,0,1,163.46,371.7Z" style="fill:#fff;isolation:isolate;opacity:0.6000000000000001"></path><path d="M161.7,373a4.42,4.42,0,1,1-2.94-5.52A4.43,4.43,0,0,1,161.7,373Z" style="isolation:isolate;opacity:0.2"></path><rect x="210.57" y="387.39" width="58.91" height="27.52" style="fill:#4BDD72"></rect><rect x="210.57" y="387.39" width="58.91" height="27.52" style="fill:#fff;isolation:isolate;opacity:0.6000000000000001"></rect><polygon points="269.48 391.51 227.34 391.51 269.48 392.75 269.48 391.51" style="isolation:isolate;opacity:0.2"></polygon><polygon points="219.37 395.6 258.37 395.12 219.37 396.83 219.37 395.6" style="isolation:isolate;opacity:0.2"></polygon><path d="M269.48,400.93c-.94.06-40.91.88-40.91.88l40.91,1.57Z" style="isolation:isolate;opacity:0.2"></path><polygon points="219.37 406.78 250.41 407.44 219.37 408.13 219.37 406.78" style="isolation:isolate;opacity:0.2"></polygon><polygon points="269.48 409.97 239.42 411.07 269.48 411.07 269.48 409.97" style="isolation:isolate;opacity:0.2"></polygon><polygon points="219.37 388.63 219.37 413.67 272.1 413.67 272.1 415.89 133.94 415.89 133.94 386.41 272.1 386.41 272.1 388.63 219.37 388.63" style="fill:#4BDD72"></polygon><polygon points="219.37 388.63 219.37 413.67 272.1 413.67 272.1 415.89 215.49 415.89 215.49 386.41 272.1 386.41 272.1 388.63 219.37 388.63" style="isolation:isolate;opacity:0.2"></polygon><rect x="161.41" y="396.14" width="44.16" height="10.01" style="fill:#fff;isolation:isolate;opacity:0.6000000000000001"></rect><path d="M155.26,401.15a6,6,0,1,1-6-6A6,6,0,0,1,155.26,401.15Z" style="fill:#fff;isolation:isolate;opacity:0.6000000000000001"></path><path d="M153.5,402.44a4.42,4.42,0,1,1-2.94-5.52A4.43,4.43,0,0,1,153.5,402.44Z" style="isolation:isolate;opacity:0.2"></path><g id="freepik--group--inject-12"><path d="M197.71,257.61c-.25,4.78-.66,9.48-1.26,14.23-.29,2.37-.64,4.75-1.06,7.16-.22,1.21-.44,2.42-.74,3.68-.13.61-.33,1.3-.5,1.95-.08.32-.23.74-.35,1.1l-.2.57-.06.16-.13.32c-.1.22-.2.42-.29.58a8,8,0,0,1-1.14,1.53,11.11,11.11,0,0,1-1,1,17.64,17.64,0,0,1-1.87,1.35,36.86,36.86,0,0,1-3.48,1.91c-2.29,1.11-4.55,2-6.83,2.84A119.22,119.22,0,0,1,165,300a2.54,2.54,0,0,1-1.71-4.74l.05,0c4.14-2.07,8.33-4.17,12.37-6.3,2-1.07,4-2.18,5.83-3.32a28.28,28.28,0,0,0,2.52-1.74,8,8,0,0,0,.92-.81,2.82,2.82,0,0,0,.23-.26c0-.06,0-.07-.11.11l-.1.18-.05.12v0l.06-.28c0-.2.09-.33.13-.59.08-.5.18-.94.25-1.49.15-1,.29-2.15.42-3.26.23-2.24.43-4.52.64-6.81L187.55,257v0a5.09,5.09,0,0,1,10.16.67Z" style="fill:#ff8b7b"></path><path d="M164.37,294.27l-6.79.38,2.72,7.69s6.1-1.08,6-4.42Z" style="fill:#ff8b7b"></path><path d="M152.83,299.88l1.4,2.53a2.36,2.36,0,0,0,2.86,1.08l3.21-1.15-2.72-7.69-3.79,2A2.36,2.36,0,0,0,152.83,299.88Z" style="fill:#ff8b7b"></path><path d="M184.23,252.91c9.74.82,15.78-.21,14.79,10.37s-2.11,14.19-2.11,14.19H184.67S183,258.11,183,256.28A6.22,6.22,0,0,1,184.23,252.91Z" style="fill:#4BDD72"></path><path d="M199,263.29c-.07.82-.14,1.6-.22,2.34-.44,4.09-.87,6.94-1.23,8.82a29.39,29.39,0,0,1-.66,3H184.67s-.06-.8-.17-2.08c-.43-5-1.46-17.65-1.46-19.11a6.27,6.27,0,0,1,1.19-3.38C194,253.74,200,252.7,199,263.29Z" style="fill:#fff;isolation:isolate;opacity:0.7000000000000001"></path><polygon points="184.11 275.42 199.87 274.3 197.05 280.06 184.11 280.06 184.11 275.42" style="fill:#4BDD72"></polygon><polygon points="199.87 274.29 197.05 280.06 184.1 280.06 184.1 275.42 184.5 275.39 191.16 274.92 197.57 274.45 199.87 274.29" style="fill:#4BDD72"></polygon><polygon points="199.87 274.29 197.05 280.06 184.1 280.06 184.1 275.42 184.5 275.39 191.16 274.92 197.57 274.45 199.87 274.29" style="fill:#fff;opacity:0.6000000000000001"></polygon><path d="M199.87,274.29l-2.82,5.77h-2.32a7.72,7.72,0,0,1-2.42-2.59,12.31,12.31,0,0,1-1.15-2.55c-2.15-6.28-.93-15.09-.93-15.09,3.13.65,6.17,2.94,8.57,5.8-.44,4.09-.87,6.94-1.23,8.82Z" style="isolation:isolate;opacity:0.2"></path><polygon points="189.95 400.12 182.4 400.6 176.45 386.6 184 386.12 189.95 400.12" style="fill:#e4897b"></polygon><polygon points="184 386.12 176.45 386.6 179.53 393.82 187.07 393.34 184 386.12" style="isolation:isolate;opacity:0.2"></polygon><path d="M179.56,398.33l7.48-3.55a.62.62,0,0,1,.73.18l3.81,4.91a1,1,0,0,1-.19,1.41,1.18,1.18,0,0,1-.19.11c-2.44,1.11-4.27,1.8-7.31,3.24-1.88.89-7.43,3.76-10,5s-4.13-1.17-3.19-1.91c4.26-3.29,7.16-6.41,8-8.5A1.66,1.66,0,0,1,179.56,398.33Z" style="fill:#263238"></path><path d="M178,400.38a2.05,2.05,0,0,1-1.33.25A1,1,0,0,1,176,400a.49.49,0,0,1,.05-.53c.52-.68,3.09-.4,3.37-.36a.15.15,0,0,1,.14.11.18.18,0,0,1-.05.18A8.55,8.55,0,0,1,178,400.38Zm-1.52-.84a.41.41,0,0,0-.17.12s-.06.1,0,.22a.65.65,0,0,0,.44.43,3.27,3.27,0,0,0,2.25-.93A6.44,6.44,0,0,0,176.51,399.54Z" style="fill:#4BDD72"></path><path d="M196.35,291.88c0-7.13-1.14-28.9-12.12-39a32.4,32.4,0,0,1,6.83-5.63A41.28,41.28,0,0,1,209.23,241c4.36-.44,5.17-.26,10.61.9,0,0,12.45,14.87,13.34,50Z" style="fill:#4BDD72"></path><path d="M233.17,291.88H196.35c0-1.08,0-2.49-.13-4.14a93.71,93.71,0,0,0-1.13-10.55c-1.44-8.6-4.47-18.42-10.86-24.27a32.31,32.31,0,0,1,6.82-5.64A41.5,41.5,0,0,1,209.23,241c4.36-.44,5.17-.26,10.61.9a35.89,35.89,0,0,1,3.59,5.8A66.8,66.8,0,0,1,227,256c.5,1.36,1,2.83,1.46,4.43a102.86,102.86,0,0,1,3.24,14.56A136.49,136.49,0,0,1,233.17,291.88Z" style="fill:#fff;isolation:isolate;opacity:0.7000000000000001"></path><path d="M179.51,399.41l-.08,0c-.79-.05-2.67-.82-2.85-1.53a.53.53,0,0,1,.29-.61.89.89,0,0,1,.71-.1c1,.24,2,1.94,2,2a.15.15,0,0,1,0,.17A.11.11,0,0,1,179.51,399.41Zm-2.43-1.91-.07,0c-.19.09-.15.21-.14.25.11.44,1.38,1.09,2.24,1.27a3.79,3.79,0,0,0-1.64-1.58A.53.53,0,0,0,177.08,397.5Z" style="fill:#4BDD72"></path><path d="M234.31,301.52l-1.25-14.72-36.77,2.59-1.63,12.36s-43-1.69-48.27,9.78c-8.1,17.64,29.93,79.09,29.93,79.09l9.67-1.14s-21.35-60.62-18.65-63.14c1.86-1.74,41.42-1.34,41.42-1.34S236.82,325.1,234.31,301.52Z" style="fill:#263238"></path><path d="M208.76,325s-10.8-.11-21.38,0c-9.67.14-19.15.48-20,1.3-.27.25-.3,1-.15,2.28h0C168.6,340.09,186,389.48,186,389.48l-9.67,1.14s-38-61.45-29.92-79.09c5.26-11.47,48.27-9.77,48.27-9.77l1.63-12.37,36.77-2.6,1.25,14.73C236.81,325.11,208.76,325,208.76,325Z" style="fill:#fff;isolation:isolate;opacity:0.4"></path><polygon points="175.52 392.85 187.73 390.9 186.56 387.58 173.28 390.35 175.52 392.85" style="fill:#4BDD72"></polygon><polygon points="175.52 392.85 187.73 390.9 186.56 387.58 173.28 390.35 175.52 392.85" style="fill:#fff;opacity:0.5"></polygon><polygon points="220.02 288.58 220.22 293.28 196.36 293.17 196.3 289.71 220.02 288.58" style="fill:#263238"></polygon><polygon points="221.4 288.51 233.24 287.95 233.49 293.33 221.4 293.28 221.4 288.51" style="fill:#263238"></polygon><path d="M203.61,293.33l4.63.23a.75.75,0,0,0,.84-.7v-3.31a.76.76,0,0,0-.84-.71l-4.63.23a.71.71,0,0,0-.67.69v2.89A.69.69,0,0,0,203.61,293.33Z" style="fill:#fff"></path><polygon points="205.16 400.84 197.6 400.47 193.26 385.89 200.81 386.26 205.16 400.84" style="fill:#e4897b"></polygon><polygon points="200.81 386.26 193.26 385.89 195.5 393.41 203.06 393.78 200.81 386.26" style="isolation:isolate;opacity:0.2"></polygon><path d="M196.52,399.41l7.33-3.84a.6.6,0,0,1,.74.15l4,4.75a1,1,0,0,1-.14,1.42.71.71,0,0,1-.18.12c-2.4,1.2-4.2,2-7.18,3.52-1.84,1-7.28,4.05-9.82,5.37s-4.17-1-3.26-1.78c4.13-3.45,6.9-6.68,7.69-8.8A1.63,1.63,0,0,1,196.52,399.41Z" style="fill:#263238"></path><path d="M195.07,401.51a2,2,0,0,1-1.32.3,1,1,0,0,1-.7-.61.49.49,0,0,1,0-.53c.48-.7,3.06-.52,3.35-.49a.15.15,0,0,1,.14.1.17.17,0,0,1,0,.18A8,8,0,0,1,195.07,401.51Zm-1.55-.78a.37.37,0,0,0-.17.13s0,.1,0,.22a.65.65,0,0,0,.46.41,3.3,3.3,0,0,0,2.21-1A6.61,6.61,0,0,0,193.52,400.73Z" style="fill:#4BDD72"></path><path d="M196.5,400.49l-.07,0c-.79,0-2.7-.71-2.91-1.41a.53.53,0,0,1,.27-.62.87.87,0,0,1,.7-.13c1,.2,2,1.86,2.1,1.94a.17.17,0,0,1,0,.17A.13.13,0,0,1,196.5,400.49ZM194,398.67l-.07,0c-.19.09-.14.21-.13.25.13.43,1.42,1,2.29,1.18a3.89,3.89,0,0,0-1.7-1.51A.52.52,0,0,0,194,398.67Z" style="fill:#4BDD72"></path><polygon points="192.23 391.18 204.54 392.31 204.23 388.8 190.67 388.19 192.23 391.18" style="fill:#4BDD72"></polygon><polygon points="192.23 391.18 204.54 392.31 204.23 388.8 190.67 388.19 192.23 391.18" style="fill:#fff;opacity:0.5"></polygon><path d="M187.38,325c-9.67.14-19.15.48-20,1.3-.27.25-.3,1-.15,2.28-6.61-22,26.73-22,26.73-22C196.92,311.56,193.08,319.26,187.38,325Z" style="isolation:isolate;opacity:0.2"></path><path d="M233.18,296.73s5.43,18.6-3.35,26.81S193,328,193,328l10,61.86H192.28s-26.08-59.06-20.2-73.47S218.94,305,218.94,305Z" style="fill:#263238"></path><path d="M233.18,296.73s5.43,18.6-3.35,26.81S193,328,193,328l10,61.86H192.28s-26.08-59.06-20.2-73.47S218.94,305,218.94,305Z" style="fill:#fff;isolation:isolate;opacity:0.4"></path><path d="M200.16,241.25c5-1.63,12.11,0,12.11,0l-6.84,12.95-5-2.53-1.79,3.39s-5.41-5.26-4.68-7.87C194.63,244.88,200.16,241.25,200.16,241.25Z" style="fill:#4BDD72"></path><path d="M195.12,246.27a8.6,8.6,0,0,1-1.13.92,7.9,7.9,0,0,0,8.09,3.55c5.61-.89,7.23-9.27,7.23-9.27s-3.66,0-5.29-.71-5-5.77-5-5.77l-1,.88-6.36,5.49s4.54,2.59,4.43,3.56A2.52,2.52,0,0,1,195.12,246.27Z" style="fill:#e4897b"></path><path d="M231.73,274.94c-5.69,12.66-21.28,14.61-19.46,11.86,2-3.06,4.19-24.49,4.19-24.49s7-2.87,12-1.93A102.86,102.86,0,0,1,231.73,274.94Z" style="isolation:isolate;opacity:0.2"></path><path d="M196,244.92a2.52,2.52,0,0,1-.91,1.35c4.76-1,3.36-10.37,3.36-10.37l-.52,0-6.36,5.49S196.14,244,196,244.92Z" style="isolation:isolate;opacity:0.2"></path><path d="M177.11,225.55s-.11,7.82,5.32,10.73,3.07-14.42,3.07-14.42Z" style="fill:#263238"></path><path d="M180.8,239.5a22.39,22.39,0,0,0,1.19,2.35c.14.22.27.43.42.63l.15.19a9.42,9.42,0,0,0,6,3.65,8.65,8.65,0,0,0,1.14.13,8.44,8.44,0,0,0,8-4.42,1.69,1.69,0,0,0,.17-.29c2.23-4.32.95-8.09-.68-14.65a9.27,9.27,0,0,0-14.93-5C177.39,226,178.36,234,180.8,239.5Z" style="fill:#e4897b"></path><path d="M187.88,232a.85.85,0,0,1-.32,1.14c-.35.11-.76-.24-.92-.76s0-1,.32-1.14S187.71,231.44,187.88,232Z" style="fill:#263238"></path><path d="M182,233.83a.85.85,0,0,1-.32,1.14c-.34.11-.76-.24-.92-.76s0-1,.32-1.14S181.79,233.33,182,233.83Z" style="fill:#263238"></path><path d="M183.92,233.49a19.87,19.87,0,0,1-1.1,5.28,3.22,3.22,0,0,0,2.67-.32Z" style="fill:#de5753"></path><path d="M188.5,228.17a.35.35,0,0,1-.34,0,2.62,2.62,0,0,0-2.33,0,.32.32,0,1,1-.33-.55h0a3.21,3.21,0,0,1,2.94,0,.33.33,0,0,1,.16.43h0A.38.38,0,0,1,188.5,228.17Z" style="fill:#263238"></path><path d="M187,240.48h0a5,5,0,0,0,2-4.12.17.17,0,0,0-.19-.16.16.16,0,0,0-.15.18h0a4.74,4.74,0,0,1-1.86,3.82.16.16,0,0,0,0,.23h0a.16.16,0,0,0,.23,0Z" style="fill:#263238"></path><path d="M178.67,232a.27.27,0,0,1-.23-.48h0a3.21,3.21,0,0,1,2.71-1.17.31.31,0,0,1,.27.36h0a.33.33,0,0,1-.36.28h0a2.59,2.59,0,0,0-2.13,1A.3.3,0,0,1,178.67,232Z" style="fill:#263238"></path><path d="M200.74,236.82h0a1.4,1.4,0,0,1-2.26-.91c-.23-2.13-.85-3.94-1.4-3.95-1,0-.73,1-.73,1-2.25-1-4.61-4.41-4.31-7.08a2.39,2.39,0,0,0-3.58-2.21s6.55-4.73,8.42-3.3,4.39,6.22,4.42,12.34A13,13,0,0,1,200.74,236.82Z" style="fill:#263238"></path><path d="M201.57,231.5a6.45,6.45,0,0,1-2.55,4.2c-1.82,1.32-3.51-.12-3.66-2.25-.12-1.9.65-4.93,2.81-5.39A2.87,2.87,0,0,1,201.57,231.5Z" style="fill:#e4897b"></path><path d="M191.6,222.63s-10.23,7.67-15.86,4.63,0-9.37,0-9.37.14,2.83,2,2.26a2.71,2.71,0,0,1,1.47-3.8s-.54,2,1.46,2,4.61-3.38,10.13-3.24,9.48,5.15,7.9,8.58S191.6,222.63,191.6,222.63Z" style="fill:#263238"></path><path d="M207,240.26l-6.58,10.68-5.81-5.34s-3,4.18,3.82,10.68l2-4.15,5.56,2.93,6.2-13.81Z" style="fill:#4BDD72"></path><path d="M207,240.26l-6.58,10.68-5.81-5.34s-3,4.18,3.82,10.68l2-4.15,5.56,2.93,6.2-13.81Z" style="fill:#fff;opacity:0.6000000000000001"></path><path d="M228.9,258.59c-.06,4.54-.3,9-.8,13.49-.23,2.26-.54,4.51-1,6.86-.1.59-.24,1.2-.37,1.79s-.32,1.26-.49,1.89l-.36,1.07-.2.57c-.09.2-.17.4-.27.6l-.27.49a9.74,9.74,0,0,1-2,2.28,22,22,0,0,1-3.41,2.26c-1.09.6-2.16,1.12-3.23,1.61-2.14.95-4.26,1.79-6.4,2.54a117.57,117.57,0,0,1-13,3.78,2.54,2.54,0,0,1-1.71-4.75l0,0c3.89-1.93,7.81-3.91,11.62-5.89,1.89-1,3.78-2,5.54-3.09.89-.53,1.75-1.06,2.54-1.61a13.85,13.85,0,0,0,2-1.58c.2-.19.32-.42.14-.19l-.07.13a.81.81,0,0,0-.1.21.85.85,0,0,1,0-.22l.11-.5.21-1.34.17-1.47c.24-2,.34-4.14.48-6.26l.62-12.89v-.06a5.09,5.09,0,0,1,10.18.3Z" style="fill:#ff8b7b"></path><path d="M196.53,292.05l-6.79.38,2.72,7.69s6.11-1.09,6-4.42Z" style="fill:#ff8b7b"></path><path d="M185,297.66l1.41,2.53a2.35,2.35,0,0,0,2.85,1.08l3.21-1.15-2.72-7.69-3.79,2A2.36,2.36,0,0,0,185,297.66Z" style="fill:#ff8b7b"></path><path d="M218.91,241.7c9.74.82,12.19,8.77,11.21,19.36s-1,14.19-1,14.19H216.83s-.56-19.36-.56-21.19S218.91,241.7,218.91,241.7Z" style="fill:#4BDD72"></path><path d="M218.91,241.7c9.74.82,12.19,8.77,11.21,19.36s-1,14.19-1,14.19H216.83s-.56-19.36-.56-21.19S218.91,241.7,218.91,241.7Z" style="fill:#fff;isolation:isolate;opacity:0.7000000000000001"></path><polygon points="216.27 273.2 232.03 272.07 229.22 277.84 216.27 277.84 216.27 273.2" style="fill:#4BDD72"></polygon><polygon points="216.27 273.2 232.03 272.07 229.22 277.84 216.27 277.84 216.27 273.2" style="fill:#4BDD72"></polygon><polygon points="216.27 273.2 232.03 272.07 229.22 277.84 216.27 277.84 216.27 273.2" style="fill:#fff;opacity:0.6000000000000001"></polygon><path d="M144.84,300.71v2.67c0,.68.8,1,1.48,1h53.33c.69,0,1.51-.28,1.51-1v-2.67Z" style="fill:#4BDD72"></path><path d="M144.84,300.71v2.67c0,.68.8,1,1.48,1h53.33c.69,0,1.51-.28,1.51-1v-2.67Z" style="fill:#fff;isolation:isolate;opacity:0.4"></path><path d="M144.84,300.71v2.67c0,.68.8,1,1.48,1h35.17c.69,0,1.5-.28,1.5-1v-2.67Z" style="isolation:isolate;opacity:0.2"></path><path d="M135.91,273l6.35,28.8a2.15,2.15,0,0,0,2.06,1.63H179a1.4,1.4,0,0,0,1.31-1.81L174,273.05a2,2,0,0,0-2.07-1.41H137.22C136.29,271.64,135.71,272.06,135.91,273Z" style="fill:#4BDD72"></path><path d="M135.91,273l6.35,28.8a2.15,2.15,0,0,0,2.06,1.63h33.5a1.41,1.41,0,0,0,1.32-1.81l-6.35-28.57a2,2,0,0,0-2.06-1.41H137.22C136.29,271.64,135.71,272.06,135.91,273Z" style="fill:#fff;isolation:isolate;opacity:0.4"></path><path d="M153,287.64h0c0,2.47,2.65,4.47,4.58,4.47s3.09-2,2.54-4.47-2.48-4.38-4.38-4.46c.55,2.47-.63,4.46-2.56,4.46Z" style="isolation:isolate;opacity:0.2"></path></g></g><g id="freepik--character-2--inject-12"><path d="M308.21,222.11l2.48,7.87c.82,2.63,1.63,5.25,2.48,7.84.42,1.29.85,2.57,1.31,3.8.22.62.44,1.23.67,1.79l.34.78.14.29a1.18,1.18,0,0,1,.06.13c-.08,0,.15.4.48.71a10.74,10.74,0,0,0,1.24,1c.95.7,2.12,1.44,3.18,2.15l-.89,3.86a16.29,16.29,0,0,1-4.71-.51,12,12,0,0,1-2.44-.91,8,8,0,0,1-2.64-2,6.29,6.29,0,0,1-.52-.74l-.37-.62c-.21-.37-.4-.74-.57-1.09-.35-.71-.66-1.38-1-2.06-.58-1.34-1.11-2.67-1.62-4-1-2.65-2-5.3-2.84-8s-1.72-5.32-2.49-8Z" style="fill:#b97864"></path><path d="M296.45,219.51c-1.29,3.34,7.57,16.76,7.57,16.76l10-5.51s-4.2-11.95-8.33-14C302.16,215,298.09,215.25,296.45,219.51Z" style="fill:#4BDD72"></path><path d="M296.45,219.51c-1.29,3.34,7.57,16.76,7.57,16.76l10-5.51s-4.2-11.95-8.33-14C302.16,215,298.09,215.25,296.45,219.51Z" style="fill:#fff;opacity:0.6000000000000001"></path><path d="M270.87,394.52l4.12,2.42a77.61,77.61,0,0,1,6.25-7.41h0c1.19-1.26,2.44-2.66,3.74-4.16,2.61-3,5.43-6.4,8.38-10.07L296,372c10.3-13,21.43-28.18,25.59-38.48,1.3-3.2,1.93-5.91,1.65-7.95-.85-6.15-3.24-15.4-6-24.35-4.16-13.66-8.83-26.62-8.83-26.62L297,294s3.52,8.41,6.73,17.36c3.16,8.79,6,18.11,5,20.54-.1.24-.23.52-.38.81-1.9,4-7.18,12.91-13.18,22.79-.6,1-1.21,2-1.83,3-3.22,5.28-6.56,10.7-9.66,15.68-1.21,2-2.39,3.85-3.5,5.64C274.82,388.36,270.87,394.52,270.87,394.52Z" style="fill:#b97964"></path><path d="M296.25,372c-5.44,6.83-10.66,13-14.54,17.54-.55-2.78-1.12-6.06-1.56-9.65,4.49-7.2,10-16.09,15-24.33A94.08,94.08,0,0,0,296.25,372Z" style="isolation:isolate;opacity:0.2"></path><path d="M275.75,315.67c1.42,9.7,3.44,18.49,4.76,23.73.8,3.14,1.33,5,1.33,5a263.51,263.51,0,0,0,1.76,29.83c.43,3.9.9,7.65,1.38,11.13,1.79,12.9,3.68,22.15,3.68,22.15l4.89-.64-.19-31.58-.1-16.74-.13-22.78-.06-4-.23-17.32-.35-25.55-17-7.66C273.17,291,274,304,275.75,315.67Z" style="fill:#b97964"></path><path d="M321.32,315.83c-4.35,3-10.23,4.81-14.25,5.78-.92-3.17-2.13-6.74-3.38-10.22C300.48,302.44,297,294,297,294l11.48-19.46s4.68,12.95,8.84,26.62C318.8,306.17,320.21,311.25,321.32,315.83Z" style="isolation:isolate;opacity:0.2"></path><path d="M293,325.2c-6.38-.17-11.6-.6-15.83-1.14-.49-2.67-1-5.49-1.41-8.39-1.72-11.68-2.57-24.7-.28-34.4l17,7.66.35,25.55Z" style="isolation:isolate;opacity:0.2"></path><path d="M322.14,314.14c-10.65,6.26-42,8.91-42,8.91L275,308.64l.56,14.26h-1.52s-11.45-38.75,3.76-64.14l27.25-2.1,3,14S315.74,290.81,322.14,314.14Z" style="fill:#263238"></path><path d="M302.16,413.79a7.86,7.86,0,0,0-2.61-1h0s-3-2.24-5.4-9.94l-3.58-.41a3,3,0,0,0-3,1.68,1.6,1.6,0,0,0-.16.48,20.66,20.66,0,0,0,0,2.61,73.62,73.62,0,0,0,1.18,8.66l.63-.09-.53-5.47c-.17-1.85,1.55.11,2.24,2s1.84,3.92,5.9,3.44C301.59,415.24,303.52,414.77,302.16,413.79Z" style="fill:#2e353a"></path><path d="M293.16,400.14s1.28,3.49,3,7.32a16.71,16.71,0,0,0,3.41,5.35s-3,1-4.55-.89-4.33-8.55-7.39-7.78a7,7,0,0,1,.68-1.56C288.75,401.82,293.16,400.14,293.16,400.14Z" style="fill:#b97964"></path><path d="M272.16,410.76a7.63,7.63,0,0,0-1-2.6h0s-.32-3.74,3.87-10.63l-2.07-3a3,3,0,0,0-3.22-1.11,1.51,1.51,0,0,0-.47.21,21.34,21.34,0,0,0-2,1.72,73.21,73.21,0,0,0-5.7,6.62l.48.41,3.75-4c1.28-1.36,1,1.23,0,3s-1.72,4,1.33,6.7C270.69,411.29,272.32,412.43,272.16,410.76Z" style="fill:#2e353a"></path><path d="M276.42,395s-1.77,3.26-3.51,7.08a16.6,16.6,0,0,0-1.75,6.1s-2.68-1.58-2.35-4,3.54-8.91.93-10.69a7.26,7.26,0,0,1,1.62-.52C272.23,392.78,276.42,395,276.42,395Z" style="fill:#b97964"></path><polygon points="277.59 255.97 277.43 260.08 305.59 258.99 305.78 254.13 277.59 255.97" style="fill:#263238"></polygon><polygon points="277.59 255.97 277.43 260.08 305.59 258.99 305.78 254.13 277.59 255.97" style="fill:#fff;isolation:isolate;opacity:0.2"></polygon><rect x="285.73" y="254.61" width="1.4" height="7.11" transform="translate(-3.42 3.84) rotate(-0.76)" style="fill:#263238"></rect><rect x="302.96" y="253.37" width="1.4" height="7.11" transform="translate(-3.4 4.07) rotate(-0.76)" style="fill:#263238"></rect><path d="M298.84,254.87a1.64,1.64,0,0,0-1.26-.44l-3.33.26a1.65,1.65,0,0,0-1.52,1.64v2.12a1.65,1.65,0,0,0,.52,1.22,1.68,1.68,0,0,0,1.12.44h.14l3.33-.27a1.65,1.65,0,0,0,1.52-1.64v-2.11A1.65,1.65,0,0,0,298.84,254.87ZM297.76,259l-3.33.27a.82.82,0,0,1-.61-.21.84.84,0,0,1-.25-.6v-2.12a.8.8,0,0,1,.74-.79l3.33-.26h.07a.78.78,0,0,1,.54.21.8.8,0,0,1,.25.59v.32a.57.57,0,0,0-.13,0l-.93.06a.57.57,0,1,0,.07,1.13l.94-.07h0v.7A.78.78,0,0,1,297.76,259Z" style="fill:#fff"></path><path d="M269.94,220c.6,1.54.35,2.13.85,3.51s1.06,2.87,1.52,4.18c1.09,3.1,1.94,5.78,2.63,8.16,2.1,7.34,2.46,21.46,2.46,21.46l28.33-2c2-26.27-2.54-39.24-2.54-39.24s-.71-.07-1.85-.15c-2.16-.15-5.87-.37-9.26-.34a93.18,93.18,0,0,0-11.92,1.13C277.48,217.09,273.19,217.79,269.94,220Z" style="fill:#4BDD72"></path><g style="opacity:0.6000000000000001"><path d="M269.94,220c.6,1.54.35,2.13.85,3.51s1.06,2.87,1.52,4.18c1.09,3.1,1.94,5.78,2.63,8.16,2.1,7.34,2.46,21.46,2.46,21.46l28.33-2c2-26.27-2.54-39.24-2.54-39.24s-.71-.07-1.85-.15c-2.16-.15-5.87-.37-9.26-.34a93.18,93.18,0,0,0-11.92,1.13C277.48,217.09,273.19,217.79,269.94,220Z" style="fill:#fff"></path></g><path d="M290.58,221.67c-6.23-2.62-7.4-5.91-7.4-5.91,5.17-2.73,3.62-10.38,3.62-10.38l7.37,3.61a23.08,23.08,0,0,0-1.21,3.19c-1.37,4.7.75,5.34.75,5.34C294.37,220.45,290.58,221.67,290.58,221.67Z" style="fill:#b97964"></path><path d="M294.17,209a23.08,23.08,0,0,0-1.21,3.19c-3.51-1.91-6.16-6.8-6.16-6.8Z" style="isolation:isolate;opacity:0.2"></path><polygon points="281.94 216.42 286.33 226.01 291.06 221.97 296.07 224.04 295.49 215.6 292.47 213.24 291.06 221.36 284.38 213.61 281.94 216.42" style="fill:#4BDD72"></polygon><polygon points="281.94 216.42 286.33 226.01 291.06 221.97 296.07 224.04 295.49 215.6 292.47 213.24 291.06 221.36 284.38 213.61 281.94 216.42" style="fill:#fff;opacity:0.4"></polygon><path d="M307.15,185.81s3.23.06,3.81,3.95-1.95,4.3-1.95,4.3,1.29,4.27-3,4-20.08-.61-20.08-.61-2.72-1.62-2.78-4a5,5,0,0,1,1.7-3.76s-3.06-3.18.94-6.28S307.15,185.81,307.15,185.81Z" style="fill:#263238"></path><path d="M296.07,178.88s2.56-2.44-.24-5.65c0,0,1.14-4.23-2.8-5.39a5.55,5.55,0,0,0-6,1.46s-3.52-3.79-6.49-1.32-1.07,6.14-1.07,6.14-4.75.19-3.25,4.1,4.32,3.47,4.32,3.47-1.84,1.46,0,3.5,7.28,0,7.28,0Z" style="fill:#263238"></path><path d="M300.46,189.76s.91,8.14.14,11.14c1.91,3.26,7.08-4.59,8.41-10.48C302.69,190.7,300.46,189.76,300.46,189.76Z" style="fill:#263238"></path><path d="M287.45,191.34c-1.79,6.83-2.7,9.68-.45,14.23,3.38,6.84,12.15,7.56,15.95,1.4,3.42-5.53,5.79-15.77.12-20.59A9.64,9.64,0,0,0,287.45,191.34Z" style="fill:#b97964"></path><path d="M285.55,187.15s.27,6.52-.52,8.86c1.34,2.7,5.89-3.25,7.28-7.86C293.34,184,285.55,187.15,285.55,187.15Z" style="fill:#263238"></path><path d="M287.26,177.81c-2,1.61-2.66,4.15-1.44,5.67s3.83,1.44,5.85-.17,2.65-4.15,1.44-5.67S289.27,176.2,287.26,177.81Z" style="fill:#4BDD72"></path><path d="M307.15,185.81c-.39-3.44-6.26-8.08-13.89-7.55-6.89.47-10.87,8.32-6.65,10.16s10.81-.62,10.81-.62Z" style="fill:#263238"></path><path d="M283.94,196.44a5.15,5.15,0,0,0,1.4,3.68c1.26,1.3,2.8.4,3.22-1.26.37-1.5.17-4-1.45-4.66A2.31,2.31,0,0,0,283.94,196.44Z" style="fill:#b97964"></path><path d="M297.64,196.81c-.18.55,0,1.08.32,1.2s.79-.23,1-.77,0-1.09-.32-1.2S297.82,196.27,297.64,196.81Z" style="fill:#263238"></path><path d="M303.8,198.84c-.18.55,0,1.08.32,1.2s.79-.23,1-.77,0-1.08-.32-1.2S304,198.3,303.8,198.84Z" style="fill:#263238"></path><path d="M304.6,198.05l1.44,0S305,198.9,304.6,198.05Z" style="fill:#263238"></path><path d="M301.21,199a15.45,15.45,0,0,0,.79,4.12,2.47,2.47,0,0,1-2.06-.28Z" style="fill:#a24e3f"></path><path d="M296.36,203.9a4.66,4.66,0,0,1-2.2-2.64.13.13,0,0,1,.1-.17.14.14,0,0,1,.17.1,4.59,4.59,0,0,0,3,2.86.14.14,0,0,1-.09.27A5.33,5.33,0,0,1,296.36,203.9Z" style="fill:#263238"></path><path d="M295.38,193a.24.24,0,0,1-.1-.1.27.27,0,0,1,.1-.38,3.27,3.27,0,0,1,3-.19.29.29,0,0,1,.12.38.29.29,0,0,1-.38.12,2.68,2.68,0,0,0-2.48.17A.28.28,0,0,1,295.38,193Z" style="fill:#263238"></path><path d="M306.9,196.93a.24.24,0,0,1-.1-.1,2.74,2.74,0,0,0-2.08-1.36.27.27,0,0,1-.27-.28.28.28,0,0,1,.29-.28,3.29,3.29,0,0,1,2.54,1.63.29.29,0,0,1-.09.39A.3.3,0,0,1,306.9,196.93Z" style="fill:#263238"></path><path d="M298.45,196l1.43.06S298.87,196.87,298.45,196Z" style="fill:#263238"></path><path d="M303.6,181s5-.74,6.34,3-5.53,7.23-7.94,5.73c0,0-5.33,4.56-8.68.36,0,0-3.28,1.82-5.5-.9S298.42,175.93,303.6,181Z" style="fill:#263238"></path><rect x="296.92" y="219.04" width="2.08" height="14.63" transform="translate(202.51 -135.45) rotate(38)" style="fill:#263238"></rect><path d="M312.28,208.93l-.87-.69c-2.32-1.81-6.35-.52-9,2.88s-2.93,7.63-.61,9.44l.87.68c2.32,1.81,6.35.52,9-2.88S314.6,210.74,312.28,208.93Zm-8.14,3.55c2.06-2.63,5.1-3.87,7-3,1.33,1.61.86,4.86-1.2,7.49s-5.09,3.88-7,3C301.61,218.37,302.09,215.11,304.14,212.48Zm7.06,4.64c-.13.19-.26.38-.41.56s-.29.36-.44.53c.15-.17.3-.35.44-.53S311.07,217.31,311.2,217.12Zm-7.48-5.85-.45.53-.4.56c.12-.19.26-.37.4-.56S303.56,211.44,303.72,211.27Z" style="fill:#263238"></path><path d="M312.28,208.93c-2.32-1.82-6.35-.53-9,2.87s-2.93,7.63-.61,9.44,6.35.52,9-2.88S314.6,210.74,312.28,208.93Zm-8.94,11.44c-1.8-1.41-1.44-5,.8-7.89s5.66-4.09,7.46-2.68,1.43,5-.81,7.88S305.14,221.78,303.34,220.37Z" style="fill:#fff;opacity:0.2"></path><path d="M280.24,232.26s2.76,9.12-3.82,11.61S280.24,232.26,280.24,232.26Z" style="isolation:isolate;opacity:0.2"></path><path d="M279.11,227.36l-.5,10.32c-.07,1.69-.1,3.39,0,4.89a13.12,13.12,0,0,0,.14,1.46,4.28,4.28,0,0,0-.39-.34,1.48,1.48,0,0,0-1-.25c-.26.09.32,0,.83-.3A16.09,16.09,0,0,0,280,242a44.63,44.63,0,0,0,3.69-3.23c2.42-2.36,4.82-4.93,7.11-7.5L294,233.5a70.8,70.8,0,0,1-6,9.1,39.27,39.27,0,0,1-3.8,4.25,17.63,17.63,0,0,1-2.46,2,11.28,11.28,0,0,1-1.64.92,7,7,0,0,1-2.43.62,5.42,5.42,0,0,1-3.47-.95,6.24,6.24,0,0,1-2-2.41,13.44,13.44,0,0,1-1-3.69,50.22,50.22,0,0,1-.42-5.7,98.19,98.19,0,0,1,.35-10.86Z" style="fill:#b97864"></path><path d="M290.69,230.87l3.79-5.1,3.43,6.59s-3.47,1.94-6.36,1.3Z" style="fill:#b97964"></path><polygon points="299.19 224.57 300.82 229.94 297.91 232.37 294.48 225.77 299.19 224.57" style="fill:#b97964"></polygon><path d="M270.56,219.58c-2.92,2.09-2.9,18.17-2.9,18.17l11.37.88s3.07-12.29.74-16.27C277.8,219,274.27,216.93,270.56,219.58Z" style="fill:#4BDD72"></path><path d="M270.56,219.58c-2.92,2.09-2.9,18.17-2.9,18.17l11.37.88s3.07-12.29.74-16.27C277.8,219,274.27,216.93,270.56,219.58Z" style="fill:#fff;opacity:0.6000000000000001"></path><path d="M315.71,241.47a12.51,12.51,0,0,1,10.89-11.38l-1.2,2,2.29-1.36-10.5,13.17Z" style="fill:#4BDD72"></path><path d="M315.71,241.47a12.51,12.51,0,0,1,10.89-11.38l-1.2,2,2.29-1.36-10.5,13.17Z" style="fill:#fff;opacity:0.8"></path><path d="M299.26,230.66l3.61-.11,17.28,5.86L304.4,260.47l-15.5-3.87a1.66,1.66,0,0,1-1-2.42l6.26-11.32a.74.74,0,0,0,0-.72l-.85-1.51a1,1,0,0,1,0-1l4.2-7.87A2.14,2.14,0,0,1,299.26,230.66Z" style="fill:#4BDD72"></path><polygon points="320.15 236.41 329.99 230.09 313.81 254.13 304.4 260.47 320.15 236.41" style="fill:#4BDD72"></polygon><polygon points="320.15 236.41 329.99 230.09 313.81 254.13 304.4 260.47 320.15 236.41" style="isolation:isolate;opacity:0.2"></polygon><path d="M321.82,245.66l-4.15-1.79-2.45,5,1.43,2.5a1.94,1.94,0,0,0,2.67,1.24c1-.34,2.29-2.48,2.61-3.53A13.65,13.65,0,0,0,321.82,245.66Z" style="fill:#b97964"></path></g></svg>