<svg id="Camada_1" data-name="Camada 1" xmlns="http://www.w3.org/2000/svg" xmlns:xlink="http://www.w3.org/1999/xlink" viewBox="0 0 3227.57 2118.89"><defs><style>.cls-1,.cls-2,.cls-3{fill:none;}.cls-1{opacity:0.1;}.cls-1,.cls-2{isolation:isolate;}.cls-2{opacity:0.2;}</style></defs><title>img2</title><path class="cls-1" d="M-.38,1518.88c186.11,3.21,303.42,94.09,598.8,207.35q295.4,113.25,958.15,79Q665.29,2186.88-.38,1778.36" transform="translate(257.75 125.86)"/><path class="cls-1" d="M204.75,1881.27q545.9-168.58,915.31-204.65t887.8,32.87q-147.48,5.43-743.19,194.39T204.75,1881.27Z" transform="translate(257.75 125.86)"/><path id="Path-4" class="cls-2" d="M2145.3,1697.64c174-77.26,478.13-117.82,806.17-39.75v276.3Q2435.06,1715.87,2145.3,1697.64Z" transform="translate(257.75 125.86)"/><image width="6666" height="3750" transform="scale(0.48)" xlink:href="girl.png"/><path class="cls-3" d="M-3.54,1747.42q174.24,99.48,253.06,130.93c118.22,47.17,226.61,63.77,304,74.73,80.66,11.42,255.59,8.11,387.68-6.21q79.18-8.58,196.72-37.76,119.46-32,163.85-47.63c55.62-19.61,155.29-60.53,186.27-72.21,108.44-40.87,187.15-81.66,264-104.6,136.14-40.61,203.8-46.31,317.67-53.55q152.37,5.43,225.75,17.15c83,13.26,179.25,43,234.19,58.55Q2685,1750.65,2951.23,1880l.63,110.74-2954-1.11Z" transform="translate(257.75 125.86)"/></svg>